<?xml version="1.0" standalone="no"?>
<!DOCTYPE svg PUBLIC "-//W3C//DTD SVG 1.1//EN" "http://www.w3.org/Graphics/SVG/1.1/DTD/svg11.dtd" >
<svg xmlns="http://www.w3.org/2000/svg" xmlns:xlink="http://www.w3.org/1999/xlink" version="1.1">
<metadata>
Created by FontForge 20201107 at Wed Jun 19 20:21:28 2024
 By 
Original Fonts are (c) Bitstream. OpenDyslexic changes and additional glyphs by Abelardo Gonzalez are licensed under a Creative Commons Attribution 3.0 Unported License.
Based on a work at http://dyslexicfonts.com. 2012 by Abelardo Gonzalez. Copying is an act of love. Please copy.
Bitstream license available here: http://opendyslexic.org/legal/
</metadata>
<defs>
<font id="OpenDyslexicMono-Regular" horiz-adv-x="1499" >
  <font-face 
    font-family="OpenDyslexicMono"
    font-weight="400"
    font-stretch="normal"
    units-per-em="2048"
    panose-1="0 0 5 0 0 0 0 0 0 0"
    ascent="1638"
    descent="-410"
    x-height="1120"
    cap-height="1493"
    bbox="-512 -1069 2390.17 2421"
    underline-thickness="102"
    underline-position="-436"
    unicode-range="U+0020-FB02"
  />
<missing-glyph 
d="M1262 1444h-1024v-1806h1024v1806zM1149 1329v-1397h-797v1397h797z" />
    <glyph glyph-name=".notdef" 
d="M1262 1444h-1024v-1806h1024v1806zM1149 1329v-1397h-797v1397h797z" />
    <glyph glyph-name=".null" horiz-adv-x="0" 
 />
    <glyph glyph-name="nonmarkingreturn" horiz-adv-x="682" 
 />
    <glyph glyph-name="NULL" 
 />
    <glyph glyph-name="NULL" 
 />
    <glyph glyph-name="space" unicode=" " 
 />
    <glyph glyph-name="exclam" unicode="!" 
d="M635 838l-17 -306q-3 -51 48 -51h170q50 0 47 51l-27 306l-8 606q0 49 -51 49h-95q-48 0 -51 -49zM641 207l-12 -156q-6 -51 47 -51h149q53 0 47 51l-12 156q-3 47 -51 47h-117q-48 0 -51 -47z" />
    <glyph glyph-name="quotedbl" unicode="&#x22;" 
d="M590 1493h-78q-51 0 -51 -49l-10 -488q0 -51 49 -51h100q52 0 49 51l-8 488q0 49 -51 49zM989 1493h-80q-48 0 -51 -49l-6 -488q-3 -51 47 -51h102q50 0 50 51l-11 488q0 49 -51 49z" />
    <glyph glyph-name="numbersign" unicode="#" 
d="M707 1470h-60q-46 0 -55 -43l-80 -329q-12 -43 -57 -43h-318q-49 0 -49 -49v-56q0 -49 49 -49h266q27 0 38.5 -14.5t4.5 -40.5l-59 -236q-9 -43 -53 -43h-309q-52 0 -52 -51v-51q0 -51 52 -51h258q27 0 38.5 -15t4.5 -41l-76 -303q-6 -26 5.5 -40.5t37.5 -14.5h59
q47 0 56 43l81 328q9 43 56 43h241q26 0 37.5 -15t5.5 -41l-75 -303q-6 -26 5.5 -40.5t37.5 -14.5h57q45 0 57 43l82 328q9 43 56 43h313q49 0 49 51v51q0 51 -49 51h-262q-26 0 -37.5 15t-5.5 41l57 235q12 43 55 43h308q49 0 49 49v56q0 49 -49 49h-256q-26 0 -37.5 14.5
t-5.5 40.5l75 303q12 57 -43 57h-59q-43 0 -55 -43l-82 -329q-12 -43 -56 -43h-241q-26 0 -37.5 14.5t-5.5 40.5l76 303q7 27 -4.5 42t-38.5 15zM950 846l-57 -236q-12 -43 -55 -43h-242q-26 0 -37.5 15t-5.5 41l59 235q9 43 56 43h239q26 0 37.5 -14.5t5.5 -40.5z" />
    <glyph glyph-name="dollar" unicode="$" 
d="M827 -242l-10 201q0 49 47 55q170 22 269 117t102 250q-8 148 -98 229t-291 121q-48 9 -45 55l6 367q0 52 51 49q133 -16 240 -65q26 -12 41.5 -3t15.5 37l2 50q0 43 -41 57q-121 37 -258 49q-50 3 -47 53v133q3 49 -47 52q-51 0 -51 -49l-2 -138q-3 -47 -52 -53
q-181 -19 -278 -109t-100 -243q6 -143 91 -229t269 -128q45 -9 45 -55l-4 -299q-3 -50 -53 -47q-152 16 -299 98q-26 15 -43 6t-19 -38l-2 -129q0 -46 39 -60q154 -64 320 -80q50 -3 47 -53l-17 -199q-6 -50 47 -53h76q52 -3 49 51zM690 1145l-8 -340q0 -26 -15 -37.5
t-40 -5.5q-99 26 -151 80t-52 131q0 78 56.5 137t156.5 82q25 4 39 -8.5t14 -38.5zM801 258l-8 262q0 27 15 38.5t42 4.5q186 -52 186 -201q0 -72 -43 -102t-139 -47q-53 -6 -53 45z" />
    <glyph glyph-name="percent" unicode="%" 
d="M465 1757q-158 0 -252 -109.5t-94 -295.5q0 -188 93 -298t253 -110q159 0 252.5 110t93.5 298q0 187 -93.5 296t-252.5 109zM465 1630q86 0 135 -73t49 -199q0 -122 -45.5 -168.5t-138.5 -46.5q-94 0 -140 46.5t-46 168.5q0 128 49 200t137 72zM1075 1487l-887 -1456
q-15 -25 -6 -42.5t39 -17.5h53q40 0 60 33l885 1456q15 25 6 42.5t-39 17.5h-51q-40 0 -60 -33zM1036 702q-159 0 -252.5 -109t-93.5 -296q0 -188 93 -298t253 -110q157 0 250.5 110.5t93.5 297.5q0 186 -93 295.5t-251 109.5zM1036 575q86 0 135.5 -69.5t49.5 -190.5
q0 -114 -46 -157t-139 -43t-138.5 43t-45.5 157q0 123 49 191.5t135 68.5z" />
    <glyph glyph-name="ampersand" unicode="&#x26;" 
d="M987 453l-446 501q-14 16 -40 45.5t-37 42.5t-24.5 30.5t-19.5 29.5q-31 51 -31 100q0 89 66 145t172 56q19 0 37.5 -3t30.5 -6t33 -13t29 -14t36 -20.5t38 -21.5q48 -27 70 21l25 49q11 22 4 40t-31 25q-124 46 -223 60q-175 25 -290.5 -83.5t-115.5 -275.5
q0 -97 70 -209q25 -41 -10 -69q-230 -187 -230 -422q0 -212 150 -343.5t397 -146.5q80 -5 176 30.5t189 107.5q39 31 69 -3l86 -88q24 -24 62 -24h129q34 0 41.5 18t-15.5 43l-188 191q-29 29 -4 69q59 94 82.5 192.5t34.5 233.5q3 25 -9.5 39.5t-37.5 14.5h-84
q-51 0 -54 -50q-7 -92 -21 -157.5t-46 -126.5q-12 -26 -32 -27.5t-38 19.5zM455 805l405 -477q35 -41 -6 -72q-63 -46 -127.5 -69.5t-108.5 -18.5q-166 15 -270 106.5t-104 235.5q0 158 139 297q37 37 72 -2z" />
    <glyph glyph-name="quotesingle" unicode="'" 
d="M831 1493h-73q-47 0 -56 -45l-81 -457q-5 -25 7 -39t38 -14h165q23 0 36.5 13t13.5 36v457q0 49 -50 49z" />
    <glyph glyph-name="parenleft" unicode="(" 
d="M965 1552l-54 7q-39 3 -61 -29q-317 -427 -354 -850q0 -447 174 -897q14 -38 55 -41l102 -8q29 -2 40 13.5t-1 43.5q-87 203 -121 409t-45 464q17 413 293 827q17 25 9 42t-37 19z" />
    <glyph glyph-name="parenright" unicode=")" 
d="M745 1577l-51 4q-30 3 -41 -13t0 -44q88 -209 123 -420t35 -447q-40 -427 -305 -829q-17 -26 -8 -42.5t39 -18.5l118 -9q42 -3 62 33q68 127 111 216.5t88 203t66.5 220t21.5 210.5q0 235 -45 454.5t-156 442.5q-17 36 -58 39z" />
    <glyph glyph-name="asterisk" unicode="*" 
d="M1192 1288l-4 33q-4 29 -21.5 37.5t-42.5 -6.5l-262 -170q-25 -17 -42 -8t-17 40v248q0 26 -14.5 37.5t-40.5 5.5l-54 -12q-45 -12 -39 -59l25 -213q3 -32 -13 -43t-44 6l-228 137q-43 25 -67 -16l-33 -52q-14 -22 -8 -40t30 -25l263 -107q31 -10 32 -31t-28 -34
l-242 -133q-48 -25 -16 -68l36 -53q32 -43 70 -8l197 159q25 20 42 12t17 -40v-244q0 -26 14.5 -37.5t40.5 -5.5l54 8q47 9 41 58l-27 223q-3 31 14 41.5t43 -4.5l230 -140q42 -25 69 15l37 53q32 46 -20 68l-271 104q-31 12 -32 32.5t28 35.5l250 135q36 19 33 61z" />
    <glyph glyph-name="plus" unicode="+" 
d="M784 1284h-67q-51 0 -51 -49v-459q0 -49 -50 -49h-456q-51 0 -51 -49v-72q0 -49 51 -49h456q50 0 50 -49v-459q0 -49 51 -49h67q23 0 36.5 13t13.5 36v459q0 49 51 49h456q50 0 50 49v72q0 49 -50 49h-456q-51 0 -51 49v459q0 49 -50 49z" />
    <glyph glyph-name="comma" unicode="," 
d="M668 195v-132q0 -27 -9 -61l-75 -233q-8 -26 3.5 -42t39.5 -16h30q40 0 60 33l182 260q21 30 21 62v129q0 49 -52 49h-149q-51 0 -51 -49z" />
    <glyph glyph-name="hyphen" unicode="-" 
d="M475 532l12 76q6 45 54 45l438 9q26 1 38 -13t7 -41l-10 -73q-9 -48 -53 -48l-439 -8q-26 0 -38.5 14t-8.5 39z" />
    <glyph glyph-name="period" unicode="." 
d="M606 285l-12 -234q-3 -51 47 -51h199q50 0 53 47l12 234q3 51 -49 51h-197q-50 0 -53 -47z" />
    <glyph glyph-name="slash" unicode="/" 
d="M948 1434l-545 -1567q-8 -27 3 -43t38 -17l127 -4q44 0 58 41l469 1569q8 26 -3.5 41.5t-39.5 15.5l-49 3q-42 3 -58 -39z" />
    <glyph glyph-name="zero" unicode="0" 
d="M760 1520q-250 0 -383 -197.5t-144 -577.5q0 -379 128 -576.5t378 -197.5q251 0 384.5 197.5t142.5 576.5q0 380 -127.5 577.5t-378.5 197.5zM760 1440q313 0 313 -549q-21 -280 -100.5 -414.5t-233.5 -134.5t-223.5 131.5t-69.5 417.5q0 549 314 549zM750 664
q-39 0 -64.5 29.5t-34 66.5t-8.5 80q0 39 2 69t8.5 62t18 52.5t31.5 34t47 13.5q61 0 82.5 -57t21.5 -174q0 -32 -4.5 -60t-15 -56t-32 -44t-52.5 -16z" />
    <glyph glyph-name="one" unicode="1" 
d="M336 229v-180q0 -49 49 -49h760q49 0 49 49v180q0 52 -49 52h-230q-51 0 -51 49v1114q0 49 -49 49h-123q-24 0 -59 -6l-283 -57q-45 -9 -45 -54v-84q0 -54 55 -45l250 51q26 5 41 -7t15 -38v-923q0 -49 -52 -49h-229q-49 0 -49 -52z" />
    <glyph glyph-name="two" unicode="2" 
d="M1174 291h-383q-28 0 -40.5 15.5t-0.5 39.5q43 104 147 211q36 38 74 78t58 61t28 29q90 111 125 193.5t35 175.5q0 195 -138 310.5t-370 115.5q-162 0 -383 -84q-39 -14 -39 -58v-94q0 -29 15.5 -38.5t43.5 3.5q201 101 367 101q133 0 217 -75t84 -194q0 -71 -39 -147
q-42 -85 -120 -169t-245 -210q-204 -158 -305 -242q-29 -23 -29 -59v-205q0 -49 50 -49h848q51 0 51 49v191q0 51 -51 51z" />
    <glyph glyph-name="three" unicode="3" 
d="M985 797q-25 6 -25 10.5t23 13.5q108 38 165.5 119.5t57.5 192.5q0 179 -133.5 283t-363.5 104q-162 0 -363 -52q-43 -12 -43 -57v-55q0 -27 15 -38t42 -3q179 55 330 55q153 0 234.5 -61.5t81.5 -175.5q0 -112 -79.5 -172t-228.5 -60h-131q-51 0 -51 -49v-68
q0 -49 51 -49h123q160 0 255 -72.5t95 -179.5q0 -52 -98 -137q-103 -86 -291 -86q-178 0 -334 70q-26 12 -42.5 3t-16.5 -38v-207q0 -42 41 -57q195 -60 358 -60q283 0 433.5 122.5t150.5 361.5q0 133 -67.5 225.5t-188.5 116.5z" />
    <glyph glyph-name="four" unicode="4" 
d="M807 1460l-582 -885q-18 -26 -18 -63v-41q0 -49 49 -49h553q49 0 49 -51l-16 -320q0 -51 49 -51h170q49 0 49 51l-16 320q-3 51 49 51h100q51 0 51 49v70q0 49 -51 49h-102q-48 0 -51 51l-9 803q0 49 -51 49h-164q-39 0 -59 -33zM879 1272l-9 -631q0 -51 -51 -51h-377
q-31 0 -40 17t8 42l407 641q22 31 42 25.5t20 -43.5z" />
    <glyph glyph-name="five" unicode="5" 
d="M330 1444v-637q0 -29 15.5 -39.5t41.5 0.5q137 49 268 49q176 0 271.5 -77t95.5 -230q0 -39 -25.5 -83.5t-70.5 -83.5t-117 -65t-154 -26q-177 0 -329 67q-26 12 -43 2.5t-17 -38.5v-203q0 -45 43 -57q183 -52 350 -52q274 0 424 133t150 375q0 234 -146.5 371
t-396.5 137q-54 0 -139 -16q-26 -6 -40.5 5.5t-14.5 37.5v278q0 51 49 51h528q49 0 49 50v51q0 49 -49 49h-692q-51 0 -51 -49z" />
    <glyph glyph-name="six" unicode="6" 
d="M1169 1339v78q0 43 -41 58q-139 45 -274 45q-283 0 -452 -211t-169 -564q0 -377 138 -575.5t397 -198.5q226 0 362 139t136 369q0 235 -131 371.5t-355 136.5q-180 0 -297 -123q-22 -23 -33 -18t-8 37q26 235 130 351t290 116q124 0 248 -50q28 -11 43.5 -0.5t15.5 39.5z
M768 827q135 0 215 -93.5t80 -254.5q0 -101 -80 -160t-215 -59t-215 59t-80 160q0 161 80 254.5t215 93.5z" />
    <glyph glyph-name="seven" unicode="7" 
d="M274 1444v-51q0 -23 13.5 -36.5t38.5 -13.5h653q30 0 40.5 -15.5t-1.5 -43.5l-561 -1227q-12 -26 -1 -41.5t40 -15.5h254q40 0 55 43l412 1333q8 23 8 62v6q0 49 -49 49h-850q-52 0 -52 -49z" />
    <glyph glyph-name="eight" unicode="8" 
d="M494 811q25 -9 25 -16.5t-25 -16.5q-127 -42 -202 -136t-75 -222q0 -214 142 -331.5t391 -117.5q250 0 391 117t141 332q0 128 -74 222t-200 138q-25 7 -25 14.5t23 16.5q200 80 200 322q0 164 -119.5 265t-336.5 101q-216 0 -336.5 -101t-120.5 -265q0 -116 50.5 -198.5
t150.5 -123.5zM473 1174q0 99 74.5 163t202.5 64t202 -64t74 -163q0 -116 -73 -181t-203 -65t-203.5 65t-73.5 181zM750 729q145 0 228 -77t83 -212q0 -80 -87.5 -149.5t-223.5 -69.5t-223 68.5t-87 150.5q0 135 82.5 212t227.5 77z" />
    <glyph glyph-name="nine" unicode="9" 
d="M365 190v-167q0 -44 41 -58q190 0 341 46.5t260.5 140.5t168.5 244t59 349q0 380 -136.5 577.5t-396.5 197.5q-184 0 -310 -141t-126 -367q0 -113 31.5 -189t92.5 -114.5t131 -53t167 -14.5q96 0 188 21t146 61q26 21 35 17.5t6 -35.5q-13 -112 -70.5 -199.5t-145.5 -141
t-196 -81t-229 -27.5q-27 0 -42 -18.5t-15 -47.5zM684 870q-164 0 -230.5 39t-66.5 135q0 170 69.5 259.5t227.5 89.5q166 0 263 -94t97 -255q0 -52 -24.5 -86.5t-73.5 -53.5t-111.5 -26.5t-150.5 -7.5z" />
    <glyph glyph-name="colon" unicode=":" 
d="M621 1051v-185q0 -51 49 -51h161q50 0 50 51v185q0 51 -50 51h-161q-49 0 -49 -51zM621 256v-207q0 -49 49 -49h161q50 0 50 49v207q0 49 -50 49h-161q-49 0 -49 -49z" />
    <glyph glyph-name="semicolon" unicode=";" 
d="M666 1047v-193q0 -51 51 -51h141q51 0 51 51v193q0 49 -51 49h-141q-51 0 -51 -49zM672 168v-111q0 -32 -8 -59l-70 -270q-6 -26 5.5 -41t37.5 -15h45q42 0 59 35l150 291q14 28 14 61v109q0 49 -51 49h-133q-49 0 -49 -49z" />
    <glyph glyph-name="less" unicode="&#x3c;" 
d="M1407 1028l6 80q3 28 -11 39.5t-42 5.5l-1217 -326q-42 -12 -45 -53l-12 -141q-3 -43 35 -60l1143 -530q25 -12 41.5 -2.5t17.5 37.5l12 137q6 43 -35 61l-868 396q-32 13 -31 34.5t35 28.5l926 242q42 9 45 51z" />
    <glyph glyph-name="equal" unicode="=" 
d="M109 881v-70q0 -49 51 -49h1181q50 0 50 49v70q0 49 -50 49h-1181q-51 0 -51 -49zM109 502v-101q0 -49 51 -49h1181q50 0 50 49v101q0 51 -50 51h-1181q-51 0 -51 -51z" />
    <glyph glyph-name="greater" unicode="&#x3e;" 
d="M205 1090l866 -398q21 -9 27.5 -22t-2 -24.5t-29.5 -16.5l-924 -240q-42 -12 -45 -53l-12 -137q-2 -28 12.5 -40t40.5 -5l1219 323q42 12 45 53l12 142q3 45 -37 59l-1140 533q-25 12 -42 2.5t-20 -37.5l-6 -78q-3 -44 35 -61z" />
    <glyph glyph-name="question" unicode="?" 
d="M809 451v73q0 62 2 82q7 63 37 103l31 47q28 43 34 49l60 63q90 98 131 164t41 135q0 159 -107.5 256t-289.5 97t-357 -93q-35 -20 -35 -61v-45q0 -30 18 -39t44 6q165 98 295 98q95 0 159.5 -57.5t75.5 -140.5q5 -31 -6 -60q-12 -34 -42.5 -64.5t-106.5 -92.5l-101 -88
q-86 -83 -115.5 -153t-29.5 -175v-104q0 -50 51 -50h160q51 0 51 50zM541 223v-182q0 -51 51 -51h162q51 0 51 51v182q0 51 -51 51h-162q-51 0 -51 -51z" />
    <glyph glyph-name="at" unicode="@" 
d="M1036 156v-35q0 -38 54 -35q257 20 400.5 170.5t143.5 400.5q0 251 -153 451q-123 160 -304.5 247t-394.5 87q-189 0 -357.5 -67.5t-297.5 -194.5q-126 -125 -194 -289.5t-68 -347.5q0 -188 67 -352.5t195 -290.5q265 -256 641 -256q292 0 535 174q37 24 18 67l-47 90
q-22 48 -68 19q-193 -127 -438 -127q-165 0 -291.5 41.5t-226.5 140.5q-71 75 -111.5 125.5t-73.5 109.5t-46 119.5t-13 139.5q0 193 88.5 358t245.5 268q198 129 444 129q177 0 326.5 -69.5t253.5 -200.5q127 -157 127 -375q0 -159 -67 -265.5t-189 -143.5
q-26 -7 -40.5 4.5t-14.5 38.5v631q0 49 -50 49h-43q-51 0 -51 -25v-22q0 -34 -15 -40t-40 17q-110 90 -262 90q-171 0 -279 -125t-108 -325q0 -199 107.5 -324t279.5 -125q155 0 262 88q25 23 40 17.5t15 -37.5zM463 618q0 126 71 200.5t191 74.5q123 0 194.5 -74.5
t71.5 -200.5q0 -127 -70 -200.5t-194 -73.5q-123 0 -193.5 73t-70.5 201z" />
    <glyph glyph-name="A" unicode="A" 
d="M641 1454l-553 -1397q-9 -27 1.5 -42t39.5 -15h168q41 0 55 41l49 162q15 41 58 41h583q47 0 56 -45l37 -156q9 -43 55 -43h182q28 0 38.5 15.5t0.5 41.5l-551 1397q-14 39 -57 39h-105q-43 0 -57 -39zM782 1212l224 -673q9 -26 -2 -42t-39 -16h-428q-28 0 -39 16t-2 42
l223 673q7 22 19 30t24.5 0t19.5 -30z" />
    <glyph glyph-name="B" unicode="B" 
d="M211 1444v-1395q0 -49 49 -49h488q252 0 397 110t145 308q0 145 -82 241.5t-250 135.5q-25 6 -25 10.5t25 11.5q199 59 199 307q0 177 -124.5 273t-354.5 96h-418q-49 0 -49 -49zM463 1358h250q144 0 218.5 -69t74.5 -187q0 -225 -293 -225h-250q-49 0 -49 51v379
q0 51 49 51zM463 713h274q161 0 242 -66q78 -69 78 -117q0 -134 -74.5 -183.5t-245.5 -49.5h-274q-49 0 -49 49v318q0 49 49 49z" />
    <glyph glyph-name="C" unicode="C" 
d="M1352 1243v96q0 42 -33 60q-190 121 -442 121q-338 0 -534 -208t-196 -567t196 -566.5t534 -207.5q245 0 442 123q33 20 33 60v233q0 32 -17.5 40t-42.5 -11q-180 -140 -403 -140q-265 0 -395 107.5t-134 361.5q0 296 136.5 452.5t392.5 156.5q223 0 403 -137
q25 -21 42.5 -13.5t17.5 39.5z" />
    <glyph glyph-name="D" unicode="D" 
d="M174 1444v-1395q0 -49 49 -49h367q737 0 737 748q0 745 -737 745h-367q-49 0 -49 -49zM436 1327h195q228 0 357 -134t136 -394q0 -31 -8 -62q-50 -208 -155.5 -284t-329.5 -76h-195q-49 0 -49 49v852q0 49 49 49z" />
    <glyph glyph-name="E" unicode="E" 
d="M268 1444v-1395q0 -49 51 -49h863q49 0 49 49v211q0 49 -49 49h-662q-49 0 -49 51v302q0 49 49 49h613q49 0 49 51v69q0 50 -49 50h-613q-49 0 -49 51v342q0 49 49 49h643q49 0 49 49v72q0 49 -49 49h-844q-51 0 -51 -49z" />
    <glyph glyph-name="F" unicode="F" 
d="M360 1444l-38 -1393q0 -51 51 -51h149q49 0 49 51l-16 572q0 51 49 51h471q49 0 49 49v111q0 49 -49 49h-481q-49 0 -49 51l16 330q0 49 51 49h516q52 0 52 51v80q0 49 -52 49h-718q-50 0 -50 -49z" />
    <glyph glyph-name="G" unicode="G" 
d="M1122 483v-73q0 -43 -28 -60q-85 -53 -283 -53q-119 0 -198 21.5t-136 75t-84.5 144t-32.5 228.5q0 292 125.5 450t325.5 158q237 0 442 -143q25 -20 42.5 -11.5t17.5 40.5v79q0 40 -33 60q-213 121 -487 121q-134 0 -251.5 -53.5t-205 -151t-138.5 -245t-51 -325.5
q0 -152 18 -265.5t62.5 -208.5t118 -156t184.5 -98t263 -46q271 -16 528 146q31 19 31 61v522q0 50 -49 50h-482q-49 0 -49 -50v-116q0 -49 49 -49h250q51 0 51 -52z" />
    <glyph glyph-name="H" unicode="H" 
d="M190 1444l-18 -1395q-3 -49 49 -49h131q51 0 51 49v402q0 51 50 51h594q51 0 51 -51v-402q0 -49 49 -49h133q23 0 35.5 13t11.5 36l-16 1395q-3 49 -51 49h-113q-49 0 -49 -49v-613q0 -51 -51 -51h-594q-50 0 -50 51v613q0 49 -51 49h-110q-52 0 -52 -49z" />
    <glyph glyph-name="I" unicode="I" 
d="M633 51q-3 -51 49 -51h137q52 0 49 51q-10 209 -15 422t-7.5 547t-3.5 424q0 49 -51 49h-72q-48 0 -51 -49q-1 -85 -5 -335.5t-6.5 -374t-8.5 -321.5t-15 -362z" />
    <glyph glyph-name="J" unicode="J" 
d="M680 1444l-82 -1368q-5 -67 -61.5 -120.5t-165.5 -66.5q-23 -2 -62 5l-16 4q-26 6 -40.5 -5.5t-14.5 -39.5l2 -226q3 -47 49 -53l69 -6q161 3 259.5 51.5t151 156t60.5 287.5l62 1369q3 50 -47 53l-113 8q-48 0 -51 -49z" />
    <glyph glyph-name="K" unicode="K" 
d="M209 1444l-39 -1393q0 -51 49 -51h162q50 0 47 51l-31 553q-2 37 18 44.5t42 -21.5l420 -596q19 -31 59 -31h350q34 0 42 19t-15 42l-697 701q-34 34 0 69l639 601q25 23 18 42t-42 19h-133q-36 0 -64 -25l-579 -546q-25 -23 -44 -15.5t-18 41.5l17 494q0 51 -50 51h-102
q-49 0 -49 -49z" />
    <glyph glyph-name="L" unicode="L" 
d="M299 1444l-16 -1395q-3 -49 49 -49h821q46 0 49 47l15 211q3 51 -50 51h-624q-49 0 -49 51l10 1084q0 49 -51 49h-103q-48 0 -51 -49z" />
    <glyph glyph-name="M" unicode="M" 
d="M127 1444l-29 -1393q-3 -51 49 -51h175q52 0 49 51l-31 1071q-1 32 22 37t31 -26l221 -875q8 -41 58 -41h155q50 0 58 41l221 875q8 31 31 26t22 -37l-31 -1071q-3 -51 50 -51h174q51 0 51 51l-29 1393q-3 49 -51 49h-190q-44 0 -58 -39l-293 -770q-10 -31 -32 -31
t-33 31l-273 770q-14 39 -59 39h-209q-49 0 -49 -49z" />
    <glyph glyph-name="N" unicode="N" 
d="M213 1413l-37 -1362q-3 -51 49 -51h156q50 0 47 51l-49 1059q-3 38 17.5 44t39.5 -28l578 -1089q16 -37 59 -37h203q49 0 49 49v1395q0 49 -49 49h-88q-49 0 -49 -49l-27 -1041q-2 -37 -22 -41.5t-39 27.5l-566 1038q-17 35 -59 35h-162q-48 0 -51 -49z" />
    <glyph glyph-name="O" unicode="O" 
d="M752 1520q-288 0 -465.5 -212t-177.5 -563q0 -352 177.5 -563t465.5 -211q286 0 462.5 211.5t176.5 562.5t-176.5 563t-462.5 212zM752 1356q191 0 308.5 -165.5t117.5 -445.5q0 -91 -20.5 -159.5t-56.5 -112t-90.5 -70.5t-117 -38t-141.5 -11q-101 0 -175.5 18t-134 61
t-90 121t-30.5 191q0 280 118.5 445.5t311.5 165.5z" />
    <glyph glyph-name="P" unicode="P" 
d="M299 1444l-55 -1393q0 -51 49 -51h141q51 0 51 49l17 481q3 50 51 50h195q249 0 378 121.5t129 345.5q0 220 -128 333t-379 113h-398q-48 0 -51 -49zM563 1407h205q151 0 233 -73t82 -208t-82 -207.5t-233 -72.5h-223q-49 0 -49 51l16 461q0 49 51 49z" />
    <glyph glyph-name="Q" unicode="Q" 
d="M1409 -203l-227 254q-32 35 -2 72q46 55 80 108.5t67.5 129t51.5 173.5t18 211q0 353 -181 564t-481 211t-480.5 -211t-180.5 -564q0 -355 174 -564.5t477 -209.5q27 0 45 2q43 0 66 -26l161 -183q22 -28 62 -28h323q33 0 41.5 18t-14.5 43zM735 1356q206 0 327.5 -164.5
t121.5 -446.5q0 -109 -26 -166.5t-103 -109.5q-30 -19 -62.5 -19t-52 9t-59.5 33t-56 32q-44 21 -67 -18q-19 -28 -34 -54.5t-22 -38t-13 -22t-13.5 -12.5t-16 -1.5t-28.5 3.5l-53 6q-31 4 -54 8t-55.5 15t-55.5 26.5t-48.5 42.5t-41 62.5t-26 87.5t-10.5 116
q0 282 121.5 446.5t326.5 164.5z" />
    <glyph glyph-name="R" unicode="R" 
d="M936 678q-22 12 -21.5 21.5t23.5 21.5q84 45 130 132t46 210q0 214 -124 322t-353 108h-408q-49 0 -49 -49v-1395q0 -49 49 -49h144q49 0 49 49v533q0 49 49 49h100q123 0 192.5 -50t141.5 -198l135 -344q14 -39 58 -39h180q29 0 39 16.5t-4 42.5l-174 349
q-106 208 -203 270zM453 1386h202q50 0 93 -9t85 -31.5t72 -58t48 -93t18 -131.5q0 -89 -98.5 -157t-217.5 -68h-202q-52 0 -52 49v450q0 49 52 49z" />
    <glyph glyph-name="S" unicode="S" 
d="M1186 1311v90q0 47 -41 55q-204 64 -395 64q-246 0 -386.5 -114t-140.5 -312q0 -170 102 -267t328 -141l123 -24q144 -29 216.5 -89.5t72.5 -126.5q0 -73 -99 -136.5t-261 -63.5q-206 0 -414 106q-26 14 -44 4t-18 -39v-208q0 -43 43 -58q232 -80 433 -80q281 0 426 112
t145 329q0 183 -107.5 291t-332.5 151l-123 25q-163 30 -224 80.5t-61 150.5q0 118 89.5 182t254.5 64q162 0 354 -82q26 -12 43 -1.5t17 38.5z" />
    <glyph glyph-name="T" unicode="T" 
d="M119 1444v-70q0 -52 51 -49l428 16q49 0 49 -51l-47 -1239q0 -51 49 -51h203q50 0 47 51l-45 1239q0 51 49 51l428 -16q51 -3 51 49v70q0 49 -51 49h-1163q-49 0 -49 -49z" />
    <glyph glyph-name="U" unicode="U" 
d="M168 1444l10 -883q3 -292 147.5 -441t426.5 -149q281 0 424.5 149t146.5 441l8 883q0 49 -49 49h-113q-49 0 -49 -51l8 -717q3 -237 -88.5 -344t-287.5 -107q-197 0 -289.5 107t-89.5 344l8 717q0 51 -49 51h-115q-49 0 -49 -49z" />
    <glyph glyph-name="V" unicode="V" 
d="M629 0h243q47 0 58 41l413 1395q16 57 -40 57h-107q-45 0 -57 -39l-357 -999q-10 -31 -32 -31t-33 31l-355 999q-12 39 -57 39h-108q-27 0 -38 -15t-3 -42l415 -1395q11 -41 58 -41z" />
    <glyph glyph-name="W" unicode="W" 
d="M100 1438l84 -1393q3 -45 56 -45h227q43 0 59 37l187 397q10 22 21 30t22 0t20 -30l178 -395q17 -39 58 -39h209q49 0 55 43l133 1395q3 55 -45 55h-94q-52 0 -58 -43l-102 -961q-3 -34 -27 -35t-39 31l-198 422q-17 35 -60 35h-96q-42 0 -59 -35l-221 -415
q-12 -21 -28 -27.5t-27.5 3t-12.5 30.5l-47 952q0 21 -16 32t-39 11h-95q-48 0 -45 -55z" />
    <glyph glyph-name="X" unicode="X" 
d="M211 1434l391 -701q20 -35 -4 -69l-442 -603q-20 -26 -11 -43.5t41 -17.5h211q42 0 62 35l258 440q13 26 33 26t34 -26l256 -440q20 -35 62 -35h213q31 0 39.5 17.5t-8.5 43.5l-426 601q-23 36 -2 69l403 703q15 26 5.5 42.5t-40.5 16.5h-106q-42 0 -62 -35l-317 -540
q-15 -26 -35 -26t-35 26l-315 540q-20 35 -62 35h-108q-29 0 -39 -16.5t4 -42.5z" />
    <glyph glyph-name="Y" unicode="Y" 
d="M150 1434l444 -893q14 -32 14 -64v-428q0 -49 51 -49h172q52 0 52 49v428q0 32 14 64l453 893q14 26 4 42.5t-39 16.5h-113q-40 0 -57 -35l-359 -665q-14 -26 -33.5 -26t-33.5 26l-363 665q-17 35 -57 35h-113q-29 0 -38.5 -16.5t2.5 -42.5z" />
    <glyph glyph-name="Z" unicode="Z" 
d="M129 1444v-72q0 -49 49 -49h789q34 0 41.5 -18t-15.5 -43l-843 -953q-25 -28 -25 -61v-199q0 -49 49 -49h1131q51 0 51 49v201q0 49 -51 49h-844q-32 0 -40.5 19t13.5 42l844 953q25 28 25 61v70q0 49 -52 49h-1073q-49 0 -49 -49z" />
    <glyph glyph-name="bracketleft" unicode="[" 
d="M565 1507l-55 -1726q-3 -51 47 -51h344q49 0 49 51v123q0 49 -49 49h-139q-51 0 -51 49l41 1362q0 49 49 49h139q51 0 51 49v43q0 51 -51 51h-324q-51 0 -51 -49z" />
    <glyph glyph-name="backslash" unicode="\" 
d="M375 1489l-70 2q-27 2 -41 -14t-2 -41l742 -1602q10 -23 21.5 -33.5t33.5 -11.5l135 -4q29 0 42 15t1 40l-807 1606q-11 23 -22.5 33t-32.5 10z" />
    <glyph glyph-name="bracketright" unicode="]" 
d="M856 1556h-326q-49 0 -49 -51v-43q0 -49 49 -49h140q45 0 51 -49l115 -1370q3 -22 -33.5 -36.5t-67.5 -14.5h-137q-51 0 -51 -49v-113q0 -51 51 -51h371q52 0 49 53l-111 1724q-3 49 -51 49z" />
    <glyph glyph-name="asciicircum" unicode="^" 
d="M793 1493h-84q-36 0 -64 -25l-475 -471q-23 -23 -15 -42t42 -19h186q37 0 59 31l273 376q15 22 34.5 22t34.5 -22l275 -376q19 -31 59 -31h185q34 0 42.5 19t-16.5 42l-475 471q-25 25 -61 25z" />
    <glyph glyph-name="underscore" unicode="_" 
d="M1233 -264h-965q-51 0 -51 -49v-80q0 -49 51 -49h965q49 0 49 49v80q0 49 -49 49z" />
    <glyph glyph-name="grave" unicode="`" 
d="M674 1718h-90q-30 0 -40 -16.5t5 -42.5l153 -281q18 -35 60 -35h156q32 0 40.5 18t-10.5 44l-213 283q-24 30 -61 30z" />
    <glyph glyph-name="a" unicode="a" 
d="M739 1147q244 0 364 -125.5t120 -382.5v-590q0 -49 -49 -49h-84q-52 0 -52 49v23q0 34 -15 39.5t-40 -19.5q-121 -121 -332 -121q-170 0 -272.5 97t-102.5 258q0 189 127 285t377 96h209q49 0 49 18q0 130 -79 203.5t-238 83.5q-156 0 -303 -64q-26 -12 -43 -2.5
t-17 37.5v43q0 42 41 57q177 64 340 64zM680 252q73 0 117 9.5t77.5 39t47 83t14.5 140.5q0 47 -49 47h-117q-184 0 -257 -37.5t-81 -127.5q-3 -33 6 -60q21 -59 78 -76.5t164 -17.5z" />
    <glyph glyph-name="b" unicode="b" 
d="M346 203q-18 38 -30 204.5t-28 529t-28 566.5q-2 25 11 39t38 14h82q52 0 49 -51l-14 -446q-1 -34 12.5 -39t36.5 20q104 107 305 107q204 0 331.5 -162.5t127.5 -425.5t-127.5 -425.5t-331.5 -162.5q-108 0 -183.5 15t-124 46.5t-77 71.5t-49.5 99zM1118 569q4 25 4 64
q-11 184 -86 283.5t-213 99.5q-147 0 -229 -111t-82 -313q12 -94 22.5 -136t42 -85.5t89.5 -57.5t157 -14q127 8 198 66t97 204z" />
    <glyph glyph-name="c" unicode="c" 
d="M1194 981v57q0 44 -39 58q-131 51 -285 51q-262 0 -412.5 -157t-150.5 -431q0 -270 149 -429t402 -159q158 0 297 56q40 15 37 59l-2 184q0 27 -15 36.5t-42 0.5q-30 -10 -67 -15t-61.5 -5t-70.5 1t-64 1q-183 9 -264 68t-94 202q0 207 95 324.5t272 117.5q131 0 256 -55
q26 -12 42.5 -2.5t16.5 37.5z" />
    <glyph glyph-name="d" unicode="d" 
d="M1126 1556h84q53 0 50 -51l-19 -1456q0 -49 -49 -49h-84q-51 0 -51 49v29q0 34 -15 38t-38 -22q-108 -123 -306 -123q-204 0 -331 162t-127 426t127 426t331 162q197 0 308 -123q22 -28 38 -24t17 38l14 469q0 49 51 49zM684 1014q-139 0 -222 -107.5t-89 -296.5
q0 -38 4 -61q26 -130 96 -187t207 -57q79 0 128.5 10.5t89 41t57.5 88t20 149.5q-9 420 -291 420z" />
    <glyph glyph-name="e" unicode="e" 
d="M1264 635v18q-19 242 -136.5 363.5t-341.5 130.5q-249 0 -394 -169.5t-156 -451.5q0 -262 151 -404t422 -151q174 0 377 62q40 12 37 57l-2 150q0 53 -58 36q-53 -15 -118.5 -22.5t-105.5 -8.5t-124 -1q-56 3 -92.5 6.5t-79 11.5t-69.5 20.5t-55 33.5t-44.5 50
t-28.5 70.5t-16 95.5q-3 52 49 52h735q50 0 50 51zM1047 735l-545 -2q-27 0 -40 14.5t-7 38.5q24 100 115.5 182.5t215.5 82.5q56 0 107 -24.5t88.5 -64.5t64.5 -83t44 -88q9 -24 -3.5 -40t-39.5 -16z" />
    <glyph glyph-name="f" unicode="f" 
d="M1071 1716l-117 15q-56 0 -99.5 -12.5t-85 -47.5t-69 -93t-45 -154t-18.5 -226l-4 -31q-6 -47 -53 -47h-211q-52 0 -52 -51v-82q0 -49 52 -49h206q25 0 39 -13.5t11 -37.5l-70 -836q-6 -51 47 -51h209q49 0 49 51l-26 836q0 51 49 51h250q49 0 49 49v82q0 51 -49 51h-252
q-51 0 -54 47l-6 52q1 125 8 197t25 108t38.5 45.5t59.5 9.5l113 -14q53 -6 53 47v53q0 45 -47 51z" />
    <glyph glyph-name="g" unicode="g" 
d="M1231 139l29 930q0 51 -50 51h-86q-47 0 -53 -43l-4 -43q-3 -33 -20 -37t-39 23q-109 127 -310 127q-206 0 -332 -157.5t-126 -416.5t126 -416t332 -157q177 0 293 104q41 36 42 4q1 -10 -11 -88q-35 -234 -118 -340t-228 -106q-138 0 -262 55q-26 12 -43 2.5t-17 -37.5
v-221q0 -43 41 -55q139 -45 310 -45q110 0 188 22.5t142 78.5t103.5 155t63 248.5t29.5 361.5zM977 584q0 -56 -8 -99t-21.5 -73t-37.5 -51t-48 -33t-61.5 -18.5t-70.5 -8.5t-81 -2q-55 0 -89 2.5t-69.5 12.5t-55.5 28.5t-38.5 50.5t-29 78.5t-17.5 112.5q0 200 83 310
t231 110q149 0 231 -109.5t82 -310.5z" />
    <glyph glyph-name="h" unicode="h" 
d="M1257 51l-18 625q0 232 -98.5 351.5t-290.5 119.5q-187 0 -305 -127q-25 -26 -40.5 -21t-15.5 39l17 672q3 51 -49 51h-84q-48 0 -51 -49l-78 -1661q-3 -51 49 -51h164q49 0 49 51l-19 582q0 167 87 271t235 104q130 0 192.5 -77t55.5 -261l-29 -619q-3 -51 49 -51h131
q52 0 49 51z" />
    <glyph glyph-name="i" unicode="i" 
d="M651 1518l-6 -134q0 -51 49 -51h103q52 0 49 51l-6 134q0 49 -52 49h-86q-48 0 -51 -49zM551 41q-6 -25 7.5 -38t41.5 -13h272q27 0 42.5 14t5.5 39q-46 114 -63 290t-9 357.5t35 368.5q4 24 -9.5 37.5t-39.5 13.5h-168q-26 0 -42.5 -13t-9.5 -32q27 -78 43.5 -145.5
t25.5 -122t7 -115t-6.5 -104.5t-20.5 -113t-29.5 -118.5t-39 -142t-43.5 -163.5z" />
    <glyph glyph-name="j" unicode="j" 
d="M678 1507l-6 -133q-3 -51 49 -51h82q49 0 49 51l-6 133q-3 49 -51 49h-68q-49 0 -49 -49zM627 1067l-15 -973q-1 -105 -24.5 -186.5t-58.5 -129.5t-83 -79.5t-90.5 -44t-89.5 -16.5h-28q-25 1 -38.5 -12t-13.5 -38l-4 -256q0 -48 49 -51h52q88 3 178 53t160.5 128
t118.5 182t55 209l88 1210q1 23 -11.5 36t-35.5 13l-158 4q-51 0 -51 -49z" />
    <glyph glyph-name="k" unicode="k" 
d="M299 1507l-39 -1456q0 -51 51 -51h144q50 0 47 51l-21 373q-3 35 17.5 42.5t42.5 -20.5l340 -417q23 -29 59 -29h254q35 0 43.5 19t-16.5 42l-521 502q-33 33 -6 70l344 426q22 25 13 43t-41 18h-119q-37 0 -62 -28l-292 -342q-22 -27 -42 -20t-20 42l8 733q3 51 -49 51
h-86q-49 0 -49 -49z" />
    <glyph glyph-name="l" unicode="l" 
d="M416 51q3 -51 49 -51h473q51 0 51 49v127q0 51 -51 51h-213q-23 0 -33.5 12.5t-15.5 39.5q-20 100 -31 200.5t-15 225.5t-4 214t1.5 264t1.5 277q0 51 -47 51h-154q-25 0 -39.5 -12.5t-11.5 -36.5q32 -203 39.5 -400.5t-1.5 -337t-11 -321t12 -352.5z" />
    <glyph glyph-name="m" unicode="m" 
d="M852 958q-9 -25 -27 -23t-30 28q-32 57 -47.5 81.5t-40.5 53.5t-50.5 39t-60.5 10q-42 0 -73.5 -8t-54 -27.5t-30 -28.5t-23.5 -36q-3 -5 -5 -7q-23 -38 -40 -31q-12 4 -10 33l5 25q6 53 -48 53h-59q-46 0 -49 -49l-84 -1020q-6 -51 47 -51h168q50 0 47 51l-16 582
q-6 162 60.5 271.5t166.5 109.5q70 0 112 -78t15 -225l-82 -658q-6 -53 45 -53h150q51 0 51 49l2 584q0 77 22.5 165.5t64.5 154t89 65.5q86 0 124 -77t38 -241l-66 -649q-1 -17 -1 -28t6.5 -17t23.5 -6h133q49 0 49 51l2 625q0 229 -71.5 350t-214.5 121
q-84 0 -146.5 -54.5t-91.5 -134.5z" />
    <glyph glyph-name="n" unicode="n" 
d="M1251 51l-26 625q-21 471 -402 471q-147 0 -303 -107q-25 -19 -42 -10t-17 41v8q0 51 -49 51h-86q-49 0 -52 -49l-26 -1030q-3 -51 49 -51h154q49 0 49 51l-29 592q0 168 83.5 261t248.5 93q121 0 174 -77t53 -240l-37 -629q-3 -51 49 -51h160q52 0 49 51z" />
    <glyph glyph-name="o" unicode="o" 
d="M750 1147q-242 0 -378 -155.5t-136 -432.5q0 -275 136.5 -431.5t377.5 -156.5q240 0 377 156.5t137 431.5q0 276 -137 432t-377 156zM750 1012q147 0 233 -113.5t86 -306.5q0 -95 -21 -156.5t-66 -93t-98 -42.5t-134 -11q-65 0 -110.5 6.5t-87.5 25t-67 51.5t-40 88
t-15 132q0 195 86 307.5t234 112.5z" />
    <glyph glyph-name="p" unicode="p" 
d="M453 -377l6 455q0 34 15 38t38 -22q111 -123 305 -123q205 0 333 162.5t128 425.5t-128 425.5t-333 162.5q-192 0 -301 -121q-25 -26 -34.5 -22t-2.5 38v7q6 26 -6 40.5t-39 14.5h-78q-51 0 -51 -51v-793l-82 -633q-6 -53 47 -53h131q52 0 52 49zM1159 592
q0 -81 -13.5 -137.5t-36.5 -92t-62.5 -55t-83.5 -26.5t-107 -7t-109 7t-89 27t-69 54.5t-41.5 92t-15.5 137.5q0 202 84 317t230 115t229.5 -115t83.5 -317z" />
    <glyph glyph-name="q" unicode="q" 
d="M991 74l-76 -652q-6 -53 48 -53l172 2q36 0 61 25l100 84q20 15 20.5 33.5t-18.5 35.5l-159 154q-30 27 -27 64l94 1302q3 51 -49 51h-80q-47 0 -53 -45l-8 -45q-4 -21 -13 -30t-22 -4t-27 22q-114 129 -313 129q-203 0 -330 -162.5t-127 -425.5t127 -425.5t330 -162.5
q193 0 305 121q23 27 36 22t9 -40zM305 586q0 203 83.5 318.5t229.5 115.5q147 0 231.5 -116t84.5 -318q0 -80 -15.5 -136.5t-40.5 -89.5t-68 -51.5t-87 -24t-109 -5.5q-53 0 -91 4t-75.5 15t-61.5 32.5t-43.5 55t-28.5 83.5t-9 117z" />
    <glyph glyph-name="r" unicode="r" 
d="M1085 987l-2 84q0 47 -41 53q-16 2 -41 2q-146 0 -288 -88q-25 -17 -42.5 -8.5t-17.5 39.5q0 41 -49 41h-69q-50 0 -50 -51q9 -323 -3.5 -514t-65.5 -490q-9 -55 45 -55h180q52 0 49 51l-37 508q0 393 293 393q59 0 84 -4q29 -5 42 3.5t13 35.5z" />
    <glyph glyph-name="s" unicode="s" 
d="M1118 997v47q0 44 -41 58q-134 45 -317 45q-206 0 -318 -86t-112 -244q0 -128 74.5 -193.5t248.5 -101.5l64 -14q175 -41 194 -66q26 -31 41 -57q19 -37 15 -63q-28 -117 -248 -117q-162 0 -338 78q-26 12 -42.5 2t-16.5 -39v-162q0 -43 43 -55q189 -58 350 -58
q216 0 339.5 90.5t123.5 247.5q0 136 -82.5 208t-278.5 114l-63 14q-146 32 -201 73.5t-55 117.5q0 84 73.5 131t210.5 47q146 0 279 -53q26 -12 41.5 -2.5t15.5 38.5z" />
    <glyph glyph-name="t" unicode="t" 
d="M690 1399h-94q-51 0 -51 -49l-6 -181q-3 -49 -52 -49h-36q-50 0 -50 -51v-43q0 -49 43 -49h41q25 0 38 -13t12 -36l-27 -559q-10 -205 86 -287t317 -82h140q49 0 49 49v174q0 51 -49 51h-140q-61 0 -95 7.5t-57 31.5t-30.5 64.5t-7.5 111.5l8 439q3 49 51 49h160
q49 0 49 49v43q0 51 -49 51h-158q-52 0 -49 51l6 177q0 51 -49 51z" />
    <glyph glyph-name="u" unicode="u" 
d="M276 1069v-627q0 -232 100 -351.5t294 -119.5q182 0 301 125q25 26 40 21t13 -39v-27q-3 -51 47 -51l76 2q48 3 51 51l19 1020q0 25 -13.5 38t-36.5 11l-98 -2q-48 -3 -51 -49l-19 -426q-9 -167 -91.5 -260.5t-229.5 -93.5q-122 0 -180.5 77.5t-67.5 239.5v461
q0 51 -49 51h-55q-50 0 -50 -51z" />
    <glyph glyph-name="v" unicode="v" 
d="M225 1063l375 -1022q14 -41 57 -41h185q46 0 57 41l375 1022q9 26 -1 41.5t-38 15.5h-92q-43 0 -60 -39l-301 -702q-12 -31 -32.5 -31t-32.5 31l-301 702q-14 39 -58 39h-92q-28 0 -39 -15.5t-2 -41.5z" />
    <glyph glyph-name="w" unicode="w" 
d="M121 1065l180 -1022q6 -43 55 -43h162q42 0 57 37l142 319q9 21 21 28.5t24 0t20 -28.5l133 -317q14 -39 58 -39h172q46 0 55 43l178 1022q9 55 -43 55h-82q-49 0 -55 -43l-104 -655q-3 -21 -14.5 -29.5t-26 -2t-25.5 25.5l-149 260q-21 35 -60 35h-147q-43 0 -60 -35
l-139 -260q-15 -31 -37 -28.5t-28 34.5l-107 655q-6 43 -55 43h-82q-52 0 -43 -55z" />
    <glyph glyph-name="x" unicode="x" 
d="M1198 1120h-76q-38 0 -59 -30l-279 -379q-17 -23 -35.5 -22t-33.5 24l-252 374q-23 33 -62 33h-84q-31 0 -40 -17.5t8 -43.5l323 -488q25 -36 -4 -69l-387 -441q-21 -25 -11.5 -43t42.5 -18h198q40 0 62 31l217 288q35 45 70 -2l198 -284q21 -33 62 -33h198q33 0 41.5 18
t-12.5 43l-377 431q-29 29 -4 69l332 498q15 26 5.5 43.5t-40.5 17.5z" />
    <glyph glyph-name="y" unicode="y" 
d="M821 -104l451 1167q9 26 -2 41.5t-39 15.5h-92q-40 0 -58 -37l-256 -548q-14 -28 -33 -29.5t-36 24.5l-338 555q-20 35 -60 35h-90q-29 0 -40 -16.5t1 -42.5l437 -934q16 -34 0 -68l-50 -98q-14 -28 -32 -51q-3 -4 -23 -29.5t-28 -35t-28.5 -34t-32.5 -36t-32.5 -29.5
t-35.5 -26.5t-33.5 -15.5t-34.5 -7h-78q-49 0 -49 -49v-146q0 -49 49 -49h117q248 0 446 443z" />
    <glyph glyph-name="z" unicode="z" 
d="M342 1069v-37q0 -49 49 -49h531q34 0 41.5 -19t-17.5 -42l-645 -629q-25 -28 -25 -62v-182q0 -49 50 -49h850q49 0 49 49v148q0 51 -49 51h-539q-34 0 -42.5 18t13.5 41l574 619q22 25 22 61v82q0 51 -49 51h-764q-49 0 -49 -51z" />
    <glyph glyph-name="braceleft" unicode="{" 
d="M1026 -113h-16q-70 1 -112.5 11.5t-66 36.5t-32.5 57.5t-13 87.5l5 219q1 15 3.5 45.5t3.5 42.5t2 36.5t0 35t-3 29.5t-6 28t-10.5 22.5t-16 21.5t-22.5 16.5t-29 15.5q-22 9 -26 14.5t5 14.5q11 11 39.5 38t39.5 38.5t30.5 38t27 50t15 60.5t8.5 82l4 248q1 50 4 81.5
t13 58t24 40t42 24t61 14.5t87 7h19q25 -1 37 11t12 38l2 43q0 49 -31 49h-30q-131 -2 -207 -16.5t-127 -55.5t-69.5 -107.5t-20.5 -180.5l-4 -240q-2 -76 -14.5 -123.5t-44 -77.5t-77.5 -42.5t-120 -16.5h-13q-47 3 -53 -45l-4 -43q0 -53 29 -53h28q72 -2 114 -15.5t64 -48
t27 -81.5t0 -128l-4 -237q3 -115 20.5 -183t65.5 -113t124 -62t204 -19h10q51 -3 51 47v135q3 48 -49 51z" />
    <glyph glyph-name="bar" unicode="|" 
d="M840 526l39 1407q1 25 -12 38.5t-38 13.5h-69q-51 0 -51 -50l-86 -2537q-3 -51 49 -51h90q49 0 49 49z" />
    <glyph glyph-name="braceright" unicode="}" 
d="M385 -211v-102q0 -52 33 -52h31q102 0 172.5 12.5t121 41t77.5 78.5t37.5 119t6.5 169l-10 219q-6 152 42 209.5t187 57.5h13q51 0 51 51v43q0 49 -33 49h-31q-141 0 -195 57.5t-54 206.5v240q0 114 -17.5 182.5t-66.5 111.5t-126 58.5t-206 15.5h-12q-52 0 -52 -51v-43
q0 -49 35 -49h37q139 0 181 -43.5t42 -185.5v-248q0 -138 35.5 -209t120.5 -102q22 -7 22 -13t-22 -14q-83 -31 -112 -99.5t-23 -201.5l10 -227q6 -143 -38.5 -186.5t-186.5 -43.5h-21q-49 0 -49 -51z" />
    <glyph glyph-name="asciitilde" unicode="~" 
d="M1391 696v45q0 31 -18 39.5t-44 -10.5q-154 -113 -297 -113q-94 0 -248 62l-36 14q-151 60 -259 60q-89 0 -172 -29.5t-178 -95.5q-30 -24 -30 -62v-90q0 -32 18 -40.5t43 13.5q95 79 162.5 118.5t134.5 39.5q87 0 221 -67q37 -18 39 -19q8 -4 10 -4q25 -10 43 -20
q130 -74 230 -74q80 0 157 42.5t193 131.5q31 19 31 59z" />
    <glyph glyph-name="uni00A0" unicode="&#xa0;" 
 />
    <glyph glyph-name="exclamdown" unicode="&#xa1;" 
d="M836 1313l-21 174q-3 47 -51 47h-88q-47 0 -53 -47l-19 -174q-6 -53 47 -53h137q54 0 48 53zM864 659l-26 308q-6 47 -54 47l-104 -4q-49 0 -49 -52l-8 -307l12 -606q3 -47 51 -47l162 4q49 0 49 53z" />
    <glyph glyph-name="cent" unicode="&#xa2;" 
d="M1198 985v35q0 43 -37 57q-87 39 -190 51q-47 6 -47 54l2 188q3 51 -49 51h-3q-48 3 -51 -49l-2 -188q-3 -48 -49 -54q-220 -29 -342.5 -177.5t-126.5 -393.5q-3 -245 114 -398t335 -190q47 -6 47 -53l-4 -190q0 -49 49 -52h2q51 0 51 50l2 188q3 45 49 51q101 12 195 47
q39 14 39 58l4 143q0 27 -17 37.5t-43 -0.5q-84 -37 -168 -49q-53 -6 -53 49l15 708q0 54 53 48q89 -17 166 -56q26 -12 42 -3t17 38zM815 952l-10 -696q-2 -26 -16 -37.5t-39 -5.5q-121 32 -187.5 121.5t-64.5 220.5q4 184 72.5 297.5t193.5 144.5q24 7 38.5 -5.5
t12.5 -39.5z" />
    <glyph glyph-name="sterling" unicode="&#xa3;" 
d="M1253 1325l2 76q0 43 -41 57q-142 49 -247 49q-235 -6 -344 -121t-115 -374l-6 -189q0 -49 -51 -49l-101 2q-48 0 -51 -49v-22q0 -52 49 -52l98 -2q53 0 50 -51l-11 -334q0 -52 -51 -49l-135 2q-48 0 -51 -49l-4 -121q0 -49 49 -49l893 -16q51 0 51 49l4 121q0 48 -49 51
l-457 6q-52 3 -49 51l10 336q0 50 52 47l290 -4q49 0 52 49v23q3 51 -50 51l-290 4q-50 3 -50 51l7 166q4 143 31.5 219t83 107.5t159.5 36.5q91 0 213 -58q26 -12 41.5 -2.5t17.5 37.5z" />
    <glyph glyph-name="currency" unicode="&#xa4;" 
d="M1159 1165l-139 -141q-32 -27 -72 -8q-96 51 -198 51q-108 0 -197 -51q-42 -25 -70 8l-141 139q-34 34 -70 0l-45 -45q-35 -35 2 -69l140 -140q28 -33 8 -69q-53 -95 -53 -199q0 -96 53 -199q18 -41 -10 -69l-142 -142q-35 -35 0 -69l43 -43q36 -36 72 -2l139 141
q32 27 72 8q105 -51 199 -51q98 0 198 53q39 23 70 -8l139 -139q36 -33 72 0l43 43q34 34 0 69l-142 142q-29 29 -8 69q54 92 54 197q0 103 -52 201q-21 41 11 69l139 142q34 35 0 69l-43 43q-36 36 -72 0zM1020 643q0 -55 -20 -94t-58.5 -60.5t-85 -30.5t-106.5 -9
q-126 0 -198.5 44t-72.5 150q0 112 79 189t192 77q114 0 192 -77t78 -189z" />
    <glyph glyph-name="yen" unicode="&#xa5;" 
d="M1276 465v63q0 50 -51 50h-316q-49 0 -49 51l17 30l49 91q18 34 57 34h242q51 0 51 50v22q0 51 -51 51h-146q-31 0 -41 17t4 43l254 467q14 26 4.5 42.5t-38.5 16.5h-105q-41 0 -57 -37l-316 -598q-14 -28 -34 -28t-33 28l-316 598q-19 37 -59 37h-102q-29 0 -39.5 -16.5
t2.5 -42.5l246 -467q13 -26 2.5 -43t-39.5 -17h-148q-49 0 -49 -51v-22q0 -23 13 -36.5t36 -13.5h244q39 0 61 -32l64 -95q18 -30 18 -61q0 -18 -51 -18h-315q-49 0 -49 -50v-63q0 -49 49 -49h313q52 0 49 -54l-22 -311q-3 -51 49 -51h157q51 0 48 51l-15 314q-3 51 49 51
h312q51 0 51 49z" />
    <glyph glyph-name="brokenbar" unicode="&#xa6;" 
d="M729 829h70q51 0 51 50l57 1185q0 52 -49 52h-70q-51 0 -51 -50l-57 -1185q0 -52 49 -52zM782 -770l54 1245q0 51 -50 51h-69q-50 0 -53 -49l-70 -1245q-3 -51 47 -51h90q51 0 51 49z" />
    <glyph glyph-name="section" unicode="&#xa7;" 
d="M1067 1362v57q0 44 -41 58q-130 43 -262 43q-166 0 -266.5 -79t-100.5 -210q0 -113 76 -189q37 -37 -4 -65q-137 -96 -137 -254q0 -103 63 -178q65 -77 279 -197l24 -14q18 -10 50 -26t50.5 -26.5t39 -24.5t30 -28t9.5 -30q0 -72 -53 -100.5t-162 -28.5q-105 0 -234 53
q-29 9 -47 -1.5t-12 -37.5l43 -178q5 -25 13 -37.5t28 -18.5q145 -45 272 -45q173 0 276 84.5t103 225.5q0 106 -80 186q-33 39 6 70q139 100 139 252q0 101 -65 178q-63 74 -277 196l-41 23q-204 116 -204 205q0 72 53.5 111.5t150.5 39.5q101 0 224 -53q26 -11 41.5 -0.5
t15.5 39.5zM586 965q28 26 69 6q216 -121 281 -183q72 -69 72 -143q0 -78 -93 -156q-33 -26 -69 -6q-219 119 -283 183q-69 66 -69 143q0 79 92 156z" />
    <glyph glyph-name="dieresis" unicode="&#xa8;" 
d="M432 1518v-117q0 -51 49 -51h119q49 0 49 51v117q0 49 -49 49h-119q-49 0 -49 -49zM852 1518v-117q0 -51 49 -51h119q49 0 49 51v117q0 49 -49 49h-119q-49 0 -49 -49z" />
    <glyph glyph-name="copyright" unicode="&#xa9;" 
d="M750 1485q-306 0 -525 -219q-217 -220 -217 -525q0 -302 217 -522q219 -219 525 -219q305 0 524 219q217 217 217 522q0 308 -217 525q-219 219 -524 219zM750 1382q264 0 452 -188q187 -190 187 -453q0 -275 -187 -419q-203 -140 -452 -140q-248 0 -451 140
q-190 169 -190 419q0 263 190 453q188 188 451 188zM1049 1096q0 43 -39 57q-115 39 -236 39q-216 0 -341.5 -121t-125.5 -330q0 -207 126 -329.5t341 -122.5q129 0 236 41q39 14 39 57v82q0 29 -16 38.5t-42 -1.5q-90 -37 -194 -37q-147 0 -236.5 82.5t-89.5 189.5
q0 160 84.5 261.5t230.5 101.5q99 0 205 -39q26 -11 42 -3t16 34z" />
    <glyph glyph-name="ordfeminine" unicode="&#xaa;" 
d="M772 1219h133q49 0 49 4q0 182 -233 182q-97 0 -209 -41q-26 -11 -41.5 -1t-15.5 38v20q0 43 41 58q128 41 245 41q183 0 273 -87.5t90 -267.5v-397q0 -51 -49 -51h-49q-52 0 -52 33q0 64 -53 20q-91 -72 -227 -72q-128 0 -204.5 67t-76.5 181q0 135 96 204t283 69z
M711 883q101 0 164.5 67t68.5 176q-3 43 -49 43h-78q-154 0 -223 -32q-64 -39 -64 -113q0 -64 49.5 -102.5t131.5 -38.5zM469 592h588q49 0 49 -49v-25q0 -49 -49 -49h-588q-51 0 -51 49v25q0 49 51 49z" />
    <glyph glyph-name="guillemotleft" unicode="&#xab;" 
d="M729 987l-393 -328q-26 -21 -37 -51l-18 -51q-15 -41 16 -68l373 -356q22 -20 39.5 -14t25.5 35l25 122q9 36 -21 66l-225 213q-35 38 4 72l242 198q25 25 28 62l3 71q2 32 -17 41.5t-45 -12.5zM1163 973l-393 -328q-24 -19 -37 -51l-18 -51q-15 -39 14 -68l375 -356
q22 -21 39.5 -15.5t25.5 35.5l25 121q9 40 -20 66l-226 215q-39 36 2 69l244 201q26 23 29 61l2 72q2 32 -17.5 41.5t-44.5 -12.5z" />
    <glyph glyph-name="logicalnot" unicode="&#xac;" 
d="M94 811v-88q0 -52 51 -49l1010 16q26 1 38 -12.5t9 -38.5l-37 -299q-6 -53 47 -53h144q52 0 49 51l-25 475q-3 49 -53 49h-1182q-51 0 -51 -51z" />
    <glyph glyph-name="softhyphen" unicode="&#xad;" 
d="M475 532l12 76q6 45 54 45l438 9q26 1 38 -13t7 -41l-10 -73q-9 -48 -53 -48l-439 -8q-26 0 -38.5 14t-8.5 39z" />
    <glyph glyph-name="registered" unicode="&#xae;" 
d="M750 1485q-306 0 -525 -219q-217 -220 -217 -525q0 -302 217 -522q219 -219 525 -219q305 0 524 219q217 217 217 522q0 308 -217 525q-219 219 -524 219zM750 1382q263 0 452 -174q187 -175 187 -417q0 -244 -187 -416q-188 -176 -452 -176q-263 0 -451 176
q-190 175 -190 416q0 239 190 417q189 174 451 174zM729 1174h-233q-52 0 -52 -50v-737q0 -49 52 -49h104q49 0 49 49v256q0 51 51 51h7q11 0 51 -24q35 -27 94 -123l109 -176q20 -33 59 -33h61q31 0 40.5 17t-5.5 42l-100 164q-33 53 -78 113l-10 8q-14 14 -17.5 23.5
t3 16.5t24.5 13q141 51 141 199q0 121 -86.5 180.5t-263.5 59.5zM700 1120h72q109 0 154 -31.5t45 -107.5q0 -74 -44.5 -104.5t-154.5 -30.5h-72q-51 0 -51 49v176q0 49 51 49z" />
    <glyph glyph-name="macron" unicode="&#xaf;" 
d="M451 1477v-50q0 -49 51 -49h497q50 0 50 49v50q0 49 -50 49h-497q-51 0 -51 -49z" />
    <glyph glyph-name="degree" unicode="&#xb0;" 
d="M750 1520q-132 0 -225 -93.5t-93 -226.5q0 -135 90.5 -225t225.5 -90t227 91.5t92 223.5q0 136 -92 225q-89 95 -225 95zM750 1442q78 0 134 -51t56 -123t-55 -122t-135 -50t-135.5 50t-55.5 122t56 123t135 51z" />
    <glyph glyph-name="plusminus" unicode="&#xb1;" 
d="M784 1284h-67q-51 0 -51 -49v-289q0 -49 -50 -49h-407q-49 0 -49 -49v-72q0 -49 49 -49h407q50 0 50 -49v-289q0 -49 51 -49h67q50 0 50 49v289q0 49 51 49h405q51 0 51 49v72q0 49 -51 49h-405q-51 0 -51 49v289q0 23 -13.5 36t-36.5 13zM160 139v-90q0 -49 49 -49h1081
q51 0 51 49v90q0 51 -51 51h-1081q-49 0 -49 -51z" />
    <glyph glyph-name="twosuperior" unicode="&#xb2;" 
d="M999 834h-280q-34 0 -41.5 19t18.5 42l17 12q195 168 248 224q81 86 81 149q0 108 -86.5 174t-230.5 66q-96 0 -227 -41q-41 -14 -41 -58v-16q0 -59 59 -37q107 43 186 43q85 0 138 -40.5t53 -106.5q0 -18 -12 -39t-46 -55t-64.5 -61t-101 -88t-120.5 -106
q-16 -13 -39.5 -33.5t-32.5 -27.5q-26 -26 -26 -61v-74q0 -51 51 -51h497q50 0 50 51v63q0 52 -50 52z" />
    <glyph glyph-name="threesuperior" unicode="&#xb3;" 
d="M913 1108q-16 5 -20.5 9t0 8t20.5 10q60 23 91.5 67t31.5 101q0 100 -84 158.5t-227 58.5q-88 0 -213 -25q-43 -8 -43 -55v-13q0 -26 14.5 -37t40.5 -4q106 25 166 25q95 0 146 -31t51 -88q0 -60 -49.5 -91.5t-143.5 -31.5h-43q-51 0 -51 -51v-8q0 -49 43 -49h43
q219 0 219 -150q0 -28 -9.5 -47t-25 -30t-45 -17t-60.5 -8t-79 -2q-102 0 -182 29q-27 9 -43 -0.5t-17 -36.5l-2 -60q-3 -46 41 -57q119 -29 207 -29q178 0 273.5 66.5t95.5 191.5q0 68 -38 119.5t-108 77.5z" />
    <glyph glyph-name="acute" unicode="&#xb4;" 
d="M774 1708l-242 -328q-20 -25 -11 -42t40 -17h57q40 0 62 27l287 329q20 23 11.5 42.5t-40.5 19.5h-102q-37 0 -62 -31z" />
    <glyph glyph-name="mu" unicode="&#xb5;" 
d="M279 -555h83q53 0 50 51l-27 547q-3 67 45 16q85 -88 240 -88q162 0 262 115q15 20 25.5 18.5t19.5 -26.5q39 -107 151 -107q34 0 93 35q36 25 61 39q35 20 35 61v46q0 28 -6.5 42.5t-16.5 10.5q-8 -4 -20 -8q-4 -1 -10 -1.5t-22 -1.5t-23 1q-82 12 -82 63l8 811
q3 51 -49 51h-84q-48 0 -51 -49l-9 -393q0 -336 -297 -336q-266 0 -272 293l-14 469q-3 49 -54 49l-84 -4q-50 -3 -47 -53l43 -1600q3 -51 52 -51z" />
    <glyph glyph-name="paragraph" unicode="&#xb6;" 
d="M1053 1493h-391q-215 0 -345.5 -116.5t-130.5 -305.5q0 -79 27 -150t71 -122t95 -86.5t104 -53.5q44 -12 39 -57l-61 -747q-3 -52 49 -52h219q49 0 49 50v1468q0 49 51 49h91q49 0 49 -49l-11 -1468q0 -23 13.5 -36.5t38.5 -13.5h256q53 0 47 54l-207 1589q-6 47 -53 47z
" />
    <glyph glyph-name="periodcentered" unicode="&#xb7;" 
d="M645 788v-153q0 -51 49 -51h113q49 0 49 51v153q0 50 -49 50h-113q-49 0 -49 -50z" />
    <glyph glyph-name="cedilla" unicode="&#xb8;" 
d="M811 0h-23q-24 0 -28.5 -17.5t10.5 -43.5q47 -70 47 -117q0 -94 -119 -94q-54 0 -100 12q-55 13 -55 -39v-27q0 -45 43 -57q64 -12 133 -12q237 0 237 180q0 83 -84 186q-23 29 -61 29z" />
    <glyph glyph-name="onesuperior" unicode="&#xb9;" 
d="M483 803v-84q0 -51 49 -51h453q51 0 51 51v84q0 49 -51 49h-104q-23 0 -36.5 13t-13.5 36v551q0 51 -51 51h-55q-27 0 -61 -6l-154 -24q-45 -9 -45 -56v-14q0 -54 53 -45l115 20q53 9 53 -45v-432q0 -49 -49 -49h-105q-49 0 -49 -49z" />
    <glyph glyph-name="ordmasculine" unicode="&#xba;" 
d="M752 1520q-180 0 -283.5 -110t-103.5 -302q0 -191 103.5 -300.5t283.5 -109.5q179 0 282 110t103 300q0 192 -103 302t-282 110zM752 1442q106 0 167.5 -67.5t61.5 -182.5q0 -114 -62.5 -182t-166.5 -68q-105 0 -168.5 68t-63.5 182t63 182t169 68zM1096 469v123h-688
v-123h688z" />
    <glyph glyph-name="guillemotright" unicode="&#xbb;" 
d="M309 1001l-4 -71q0 -39 25 -64l223 -221q38 -35 -4 -70l-242 -192q-32 -25 -26 -66l16 -122q1 -31 19.5 -38.5t41.5 11.5l404 324q32 25 20 65l-14 51q-5 30 -31 56l-364 360q-23 24 -42.5 17t-21.5 -40zM743 979l-4 -74q-3 -36 25 -61l221 -221q19 -17 18 -36t-22 -34
l-242 -195q-30 -24 -24 -63l14 -123q3 -31 22 -38.5t42 11.5l401 324q35 25 23 66l-15 51q-9 33 -33 55l-364 360q-23 23 -42 16.5t-20 -38.5z" />
    <glyph glyph-name="onequarter" unicode="&#xbc;" 
d="M1176 1487l-877 -1456q-15 -25 -5 -42.5t40 -17.5h51q37 0 57 33l877 1456q15 25 5 42.5t-40 17.5h-49q-39 0 -59 -33zM-68 727v-8q0 -51 52 -51h452q49 0 49 51v8q0 51 -49 51h-104q-51 0 -51 49v625q0 51 -50 51h-57q-29 0 -59 -6l-156 -24q-45 -9 -45 -56v-14
q0 -26 14 -38t39 -7l117 20q25 5 39 -7t14 -38v-506q0 -49 -51 -49h-102q-52 0 -52 -51zM1262 807l-349 -469q-20 -29 -20 -64v-36q0 -50 49 -50h315q50 0 50 -51v-86q0 -49 51 -49h43q49 0 49 49v86q0 51 51 51h35q49 0 49 50v10q0 49 -43 49h-41q-51 0 -51 49v440
q0 52 -49 52h-78q-36 0 -61 -31zM1307 612v-266q0 -49 -50 -49h-184q-31 0 -40 17.5t9 43.5l203 275q22 29 42 22.5t20 -43.5z" />
    <glyph glyph-name="onehalf" unicode="&#xbd;" 
d="M1120 1487l-874 -1456q-17 -25 -7 -42.5t40 -17.5h51q39 0 59 33l877 1456q15 25 5 42.5t-40 17.5h-51q-40 0 -60 -33zM-72 727v-8q0 -51 49 -51h455q49 0 49 51v8q0 51 -49 51h-104q-52 0 -52 49v625q0 51 -51 51h-55q-26 0 -61 -6l-154 -24q-45 -9 -45 -56v-14
q0 -54 53 -45l115 20q53 9 53 -45v-506q0 -49 -49 -49h-105q-49 0 -49 -51zM1540 117h-278q-35 0 -43 19t18 42l16 12q332 285 332 424q0 108 -87.5 174t-231.5 66q-98 0 -226 -43q-41 -11 -41 -55v-17q0 -29 16 -39t44 2q104 43 186 43q85 0 137 -40.5t52 -106.5
q0 -94 -344 -399q-12 -11 -25 -22.5l-26 -23t-19 -16.5q-27 -27 -27 -61v-25q0 -49 49 -49h498q51 0 51 49v15q0 51 -51 51z" />
    <glyph glyph-name="threequarters" unicode="&#xbe;" 
d="M395 1108q-16 5 -20.5 9t0 8t20.5 10q59 23 91 67t32 101q0 100 -84 158.5t-229 58.5q-89 0 -211 -25q-45 -9 -45 -55v-13q0 -26 15.5 -37t41.5 -4q106 25 166 25q95 0 145 -31t50 -88q0 -60 -48.5 -91.5t-142.5 -31.5h-45q-49 0 -49 -51v-8q0 -49 43 -49h43
q107 0 163 -38.5t56 -111.5q0 -71 -60 -110t-169 -39q-101 0 -181 29q-26 9 -41.5 0t-15.5 -35v-19q0 -43 43 -55q122 -29 209 -29q177 0 272 67t95 191q0 69 -37.5 120t-106.5 77zM1208 1487l-874 -1456q-17 -25 -7 -42.5t40 -17.5h51q39 0 59 33l877 1456q15 25 5 42.5
t-40 17.5h-51q-40 0 -60 -33zM1255 807l-348 -469q-20 -29 -20 -64v-36q0 -50 51 -50h313q49 0 49 -51v-86q0 -49 52 -49h43q51 0 51 49v86q0 51 49 51h35q49 0 49 50v10q0 49 -43 49h-41q-49 0 -49 49v440q0 52 -51 52h-78q-37 0 -62 -31zM1300 612v-266q0 -49 -49 -49
h-184q-31 0 -40 17.5t9 43.5l203 275q22 29 41.5 22.5t19.5 -43.5z" />
    <glyph glyph-name="questiondown" unicode="&#xbf;" 
d="M905 1288v156q0 49 -51 49h-100q-52 0 -52 -49v-156q0 -49 52 -49h100q51 0 51 49zM709 1042v-73q0 -88 -13 -135q-18 -49 -94 -125l-88 -86q-89 -86 -125.5 -154t-36.5 -145q0 -159 112 -256t296 -97t354 92q35 20 35 62v135q0 31 -17 39.5t-45 -6.5q-162 -98 -292 -98
q-109 0 -174.5 54.5t-65.5 143.5q0 94 109 197l90 88q76 82 95 122t19 136v106q0 50 -49 50h-59q-51 0 -51 -50z" />
    <glyph glyph-name="Agrave" unicode="&#xc0;" 
d="M590 2298h-90q-30 0 -40 -17t5 -43l153 -280q18 -35 60 -35h156q32 0 40.5 18t-10.5 44l-213 282q-25 31 -61 31zM641 1454l-553 -1397q-9 -27 1.5 -42t39.5 -15h168q41 0 55 41l49 162q15 41 58 41h583q47 0 56 -45l37 -156q9 -43 55 -43h182q28 0 38.5 15.5t0.5 41.5
l-551 1397q-14 39 -57 39h-105q-43 0 -57 -39zM782 1212l224 -673q9 -26 -2 -42t-39 -16h-428q-28 0 -39 16t-2 42l223 673q7 22 19 30t24.5 0t19.5 -30z" />
    <glyph glyph-name="Aacute" unicode="&#xc1;" 
d="M969 2292l-242 -328q-20 -25 -11 -42t40 -17h57q40 0 61 26l287 330q21 23 12.5 42t-40.5 19h-103q-37 0 -61 -30zM641 1454l-553 -1397q-9 -27 1.5 -42t39.5 -15h168q41 0 55 41l49 162q15 41 58 41h583q47 0 56 -45l37 -156q9 -43 55 -43h182q28 0 38.5 15.5t0.5 41.5
l-551 1397q-14 39 -57 39h-105q-43 0 -57 -39zM782 1212l224 -673q9 -26 -2 -42t-39 -16h-428q-28 0 -39 16t-2 42l223 673q7 22 19 30t24.5 0t19.5 -30z" />
    <glyph glyph-name="Acircumflex" unicode="&#xc2;" 
d="M582 1501l145 197q15 23 35 23t35 -23l145 -197h139l-245 377h-148l-246 -377h140zM641 1454l-553 -1397q-9 -27 1.5 -42t39.5 -15h168q41 0 55 41l49 162q15 41 58 41h583q47 0 56 -45l37 -156q9 -43 55 -43h182q28 0 38.5 15.5t0.5 41.5l-551 1397q-14 39 -57 39h-105
q-43 0 -57 -39zM782 1212l224 -673q9 -26 -2 -42t-39 -16h-428q-28 0 -39 16t-2 42l223 673q7 22 19 30t24.5 0t19.5 -30z" />
    <glyph glyph-name="Atilde" unicode="&#xc3;" 
d="M700 2001l58 -55q68 -62 139 -62q82 0 132.5 60t60.5 170q3 53 -50 53h-24q-45 0 -51 -49q-5 -38 -17 -70q-18 -37 -57 -37q-26 0 -68 39l-57 55q-68 62 -139 62q-82 0 -131 -60t-60 -170q-6 -53 47 -53h25q47 0 53 49q3 41 17 70q18 37 55 37q25 0 67 -39zM641 1454
l-553 -1397q-9 -27 1.5 -42t39.5 -15h168q41 0 55 41l49 162q15 41 58 41h583q47 0 56 -45l37 -156q9 -43 55 -43h182q28 0 38.5 15.5t0.5 41.5l-551 1397q-14 39 -57 39h-105q-43 0 -57 -39zM782 1212l224 -673q9 -26 -2 -42t-39 -16h-428q-28 0 -39 16t-2 42l223 673
q7 22 19 30t24.5 0t19.5 -30z" />
    <glyph glyph-name="Adieresis" unicode="&#xc4;" 
d="M442 1792v-117q0 -51 50 -51h118q49 0 49 51v117q0 49 -49 49h-118q-50 0 -50 -49zM862 1792v-117q0 -51 49 -51h119q49 0 49 51v117q0 49 -49 49h-119q-49 0 -49 -49zM641 1454l-553 -1397q-9 -27 1.5 -42t39.5 -15h168q41 0 55 41l49 162q15 41 58 41h583q47 0 56 -45
l37 -156q9 -43 55 -43h182q28 0 38.5 15.5t0.5 41.5l-551 1397q-14 39 -57 39h-105q-43 0 -57 -39zM782 1212l224 -673q9 -26 -2 -42t-39 -16h-428q-28 0 -39 16t-2 42l223 673q7 22 19 30t24.5 0t19.5 -30z" />
    <glyph glyph-name="Aring" unicode="&#xc5;" 
d="M1036 1798q0 116 -79.5 195.5t-194.5 79.5q-114 0 -194.5 -80t-80.5 -195t80.5 -194.5t194.5 -79.5q116 0 195 79t79 195zM913 1798q0 -63 -43.5 -107t-107.5 -44q-65 0 -108.5 43.5t-43.5 107.5t44 108t108 44t107.5 -44.5t43.5 -107.5zM641 1454l-553 -1397
q-9 -27 1.5 -42t39.5 -15h168q41 0 55 41l49 162q15 41 58 41h583q47 0 56 -45l37 -156q9 -43 55 -43h182q28 0 38.5 15.5t0.5 41.5l-551 1397q-14 39 -57 39h-105q-43 0 -57 -39zM782 1212l224 -673q9 -26 -2 -42t-39 -16h-428q-28 0 -39 16t-2 42l223 673q7 22 19 30
t24.5 0t19.5 -30z" />
    <glyph glyph-name="AE" unicode="&#xc6;" 
d="M1350 1493h-861q-47 0 -59 -39l-344 -1397q-13 -57 39 -57h231q50 0 50 51l-7 162q-3 49 50 49h217q49 0 49 -49v-164q0 -49 51 -49h602q49 0 49 49v162q0 49 -49 49h-410q-51 0 -51 49v183q0 49 51 49h361q49 0 49 51v70q0 49 -49 49h-361q-51 0 -51 51v512q0 49 51 49
h392q49 0 49 49v72q0 49 -49 49zM629 1335h37q49 0 49 -51v-803q0 -51 -49 -51h-199q-48 0 -41 57l145 807q6 41 58 41z" />
    <glyph glyph-name="Ccedilla" unicode="&#xc7;" 
d="M889 1354q-256 0 -392.5 -156.5t-136.5 -452.5q4 -254 134 -361.5t395 -107.5q223 0 403 140q25 19 42.5 11t17.5 -40v-233q0 -40 -33 -60q-188 -117 -416 -123q84 -103 84 -186q0 -180 -237 -180q-70 0 -134 12q-43 12 -43 57v27q0 52 56 39q47 -12 100 -12
q119 0 119 94q0 47 -47 117q-13 23 -13 36q-299 28 -470 232.5t-171 537.5q0 359 196 567t534 208q252 0 442 -121q33 -18 33 -60v-96q0 -32 -17.5 -39.5t-42.5 13.5q-180 137 -403 137z" />
    <glyph glyph-name="Egrave" unicode="&#xc8;" 
d="M547 2347h-90q-30 0 -40 -16.5t5 -42.5l153 -281q18 -35 60 -35h156q32 0 40.5 18t-10.5 44l-213 282q-25 31 -61 31zM268 1444v-1395q0 -49 51 -49h863q49 0 49 49v211q0 49 -49 49h-662q-49 0 -49 51v302q0 49 49 49h613q49 0 49 51v69q0 50 -49 50h-613q-49 0 -49 51
v342q0 49 49 49h643q49 0 49 49v72q0 49 -49 49h-844q-51 0 -51 -49z" />
    <glyph glyph-name="Eacute" unicode="&#xc9;" 
d="M926 2341l-242 -328q-20 -25 -11 -42t40 -17h57q40 0 61 26l287 330q21 23 12.5 42.5t-40.5 19.5h-103q-36 0 -61 -31zM268 1444v-1395q0 -49 51 -49h863q49 0 49 49v211q0 49 -49 49h-662q-49 0 -49 51v302q0 49 49 49h613q49 0 49 51v69q0 50 -49 50h-613q-49 0 -49 51
v342q0 49 49 49h643q49 0 49 49v72q0 49 -49 49h-844q-51 0 -51 -49z" />
    <glyph glyph-name="Ecircumflex" unicode="&#xca;" 
d="M539 1550l145 197q15 23 35 23t35 -23l145 -197h139l-245 377h-148l-246 -377h140zM268 1444v-1395q0 -49 51 -49h863q49 0 49 49v211q0 49 -49 49h-662q-49 0 -49 51v302q0 49 49 49h613q49 0 49 51v69q0 50 -49 50h-613q-49 0 -49 51v342q0 49 49 49h643q49 0 49 49v72
q0 49 -49 49h-844q-51 0 -51 -49z" />
    <glyph glyph-name="Edieresis" unicode="&#xcb;" 
d="M399 1841v-117q0 -51 50 -51h118q49 0 49 51v117q0 49 -49 49h-118q-50 0 -50 -49zM819 1841v-117q0 -51 49 -51h119q49 0 49 51v117q0 49 -49 49h-119q-49 0 -49 -49zM268 1444v-1395q0 -49 51 -49h863q49 0 49 49v211q0 49 -49 49h-662q-49 0 -49 51v302q0 49 49 49
h613q49 0 49 51v69q0 50 -49 50h-613q-49 0 -49 51v342q0 49 49 49h643q49 0 49 49v72q0 49 -49 49h-844q-51 0 -51 -49z" />
    <glyph glyph-name="Igrave" unicode="&#xcc;" 
d="M588 2396h-90q-30 0 -40 -16.5t5 -42.5l153 -281q18 -35 60 -35h155q32 0 41 18t-10 44l-213 282q-25 31 -61 31zM633 51q-3 -51 49 -51h137q52 0 49 51q-10 209 -15 422t-7.5 547t-3.5 424q0 49 -51 49h-72q-48 0 -51 -49q-1 -85 -5 -335.5t-6.5 -374t-8.5 -321.5
t-15 -362z" />
    <glyph glyph-name="Iacute" unicode="&#xcd;" 
d="M967 2390l-242 -328q-20 -25 -11 -42t40 -17h57q39 0 61 27l287 329q21 23 12 42.5t-41 19.5h-102q-36 0 -61 -31zM633 51q-3 -51 49 -51h137q52 0 49 51q-10 209 -15 422t-7.5 547t-3.5 424q0 49 -51 49h-72q-48 0 -51 -49q-1 -85 -5 -335.5t-6.5 -374t-8.5 -321.5
t-15 -362z" />
    <glyph glyph-name="Icircumflex" unicode="&#xce;" 
d="M580 1599l145 197q15 23 35 23t35 -23l145 -197h139l-245 377h-148l-246 -377h140zM633 51q-3 -51 49 -51h137q52 0 49 51q-10 209 -15 422t-7.5 547t-3.5 424q0 49 -51 49h-72q-48 0 -51 -49q-1 -85 -5 -335.5t-6.5 -374t-8.5 -321.5t-15 -362z" />
    <glyph glyph-name="Idieresis" unicode="&#xcf;" 
d="M440 1890v-116q0 -52 49 -52h119q49 0 49 52v116q0 49 -49 49h-119q-49 0 -49 -49zM860 1890v-116q0 -52 49 -52h119q49 0 49 52v116q0 49 -49 49h-119q-49 0 -49 -49zM633 51q-3 -51 49 -51h137q52 0 49 51q-10 209 -15 422t-7.5 547t-3.5 424q0 49 -51 49h-72
q-48 0 -51 -49q-1 -85 -5 -335.5t-6.5 -374t-8.5 -321.5t-15 -362z" />
    <glyph glyph-name="Eth" unicode="&#xd0;" 
d="M301 1444v-549q0 -51 -49 -51h-100q-52 0 -52 -49v-45q0 -50 52 -50h100q49 0 49 -51v-600q0 -49 51 -49h336q344 0 527.5 185t183.5 563q0 376 -183.5 560.5t-527.5 184.5h-336q-51 0 -51 -49zM555 1327h164q220 0 343.5 -143.5t123.5 -435.5q0 -75 -8 -135
t-25.5 -104.5t-39.5 -78t-55 -55.5t-66.5 -36t-80.5 -21.5t-90 -10t-102 -2.5h-164q-49 0 -49 51v293q0 51 49 51h207q23 0 36 13.5t13 36.5v45q0 49 -49 49h-207q-49 0 -49 51v383q0 49 49 49z" />
    <glyph glyph-name="Ntilde" unicode="&#xd1;" 
d="M700 2099l58 -55q68 -62 139 -62q82 0 132.5 60t60.5 170q3 53 -50 53h-24q-45 0 -51 -49q-5 -38 -17 -70q-18 -37 -57 -37q-26 0 -68 39l-57 56q-66 61 -139 61q-82 0 -131 -59.5t-60 -169.5q-6 -54 47 -54h25q47 0 53 50q3 40 17 69q18 37 55 37q25 0 67 -39zM213 1413
l-37 -1362q-3 -51 49 -51h156q50 0 47 51l-49 1059q-3 38 17.5 44t39.5 -28l578 -1089q16 -37 59 -37h203q49 0 49 49v1395q0 49 -49 49h-88q-49 0 -49 -49l-27 -1041q-2 -37 -22 -41.5t-39 27.5l-566 1038q-17 35 -59 35h-162q-48 0 -51 -49z" />
    <glyph glyph-name="Ograve" unicode="&#xd2;" 
d="M578 2396h-91q-29 0 -39 -16.5t5 -42.5l153 -281q18 -35 60 -35h155q32 0 41 18t-10 44l-213 282q-25 31 -61 31zM752 1520q-288 0 -465.5 -212t-177.5 -563q0 -352 177.5 -563t465.5 -211q286 0 462.5 211.5t176.5 562.5t-176.5 563t-462.5 212zM752 1356
q191 0 308.5 -165.5t117.5 -445.5q0 -91 -20.5 -159.5t-56.5 -112t-90.5 -70.5t-117 -38t-141.5 -11q-101 0 -175.5 18t-134 61t-90 121t-30.5 191q0 280 118.5 445.5t311.5 165.5z" />
    <glyph glyph-name="Oacute" unicode="&#xd3;" 
d="M956 2390l-241 -328q-20 -25 -11.5 -42t39.5 -17h58q39 0 61 27l287 329q21 23 12 42.5t-41 19.5h-102q-37 0 -62 -31zM752 1520q-288 0 -465.5 -212t-177.5 -563q0 -352 177.5 -563t465.5 -211q286 0 462.5 211.5t176.5 562.5t-176.5 563t-462.5 212zM752 1356
q191 0 308.5 -165.5t117.5 -445.5q0 -91 -20.5 -159.5t-56.5 -112t-90.5 -70.5t-117 -38t-141.5 -11q-101 0 -175.5 18t-134 61t-90 121t-30.5 191q0 280 118.5 445.5t311.5 165.5z" />
    <glyph glyph-name="Ocircumflex" unicode="&#xd4;" 
d="M569 1599l146 197q15 23 34.5 23t34.5 -23l146 -197h139l-246 377h-147l-246 -377h139zM752 1520q-288 0 -465.5 -212t-177.5 -563q0 -352 177.5 -563t465.5 -211q286 0 462.5 211.5t176.5 562.5t-176.5 563t-462.5 212zM752 1356q191 0 308.5 -165.5t117.5 -445.5
q0 -91 -20.5 -159.5t-56.5 -112t-90.5 -70.5t-117 -38t-141.5 -11q-101 0 -175.5 18t-134 61t-90 121t-30.5 191q0 280 118.5 445.5t311.5 165.5z" />
    <glyph glyph-name="Otilde" unicode="&#xd5;" 
d="M688 2099l57 -55q68 -62 140 -62q82 0 131.5 60t60.5 170q3 53 -49 53h-24q-46 0 -52 -49q-5 -42 -16 -70q-18 -37 -57 -37q-26 0 -68 39l-57 56q-66 61 -140 61q-82 0 -130.5 -59t-59.5 -170q-6 -54 47 -54h25q47 0 53 50q3 42 16 69q18 37 56 37q25 0 67 -39zM752 1520
q-288 0 -465.5 -212t-177.5 -563q0 -352 177.5 -563t465.5 -211q286 0 462.5 211.5t176.5 562.5t-176.5 563t-462.5 212zM752 1356q191 0 308.5 -165.5t117.5 -445.5q0 -91 -20.5 -159.5t-56.5 -112t-90.5 -70.5t-117 -38t-141.5 -11q-101 0 -175.5 18t-134 61t-90 121
t-30.5 191q0 280 118.5 445.5t311.5 165.5z" />
    <glyph glyph-name="Odieresis" unicode="&#xd6;" 
d="M430 1890v-116q0 -52 49 -52h119q49 0 49 52v116q0 49 -49 49h-119q-49 0 -49 -49zM850 1890v-116q0 -52 49 -52h119q49 0 49 52v116q0 49 -49 49h-119q-49 0 -49 -49zM752 1520q-288 0 -465.5 -212t-177.5 -563q0 -352 177.5 -563t465.5 -211q286 0 462.5 211.5
t176.5 562.5t-176.5 563t-462.5 212zM752 1356q191 0 308.5 -165.5t117.5 -445.5q0 -91 -20.5 -159.5t-56.5 -112t-90.5 -70.5t-117 -38t-141.5 -11q-101 0 -175.5 18t-134 61t-90 121t-30.5 191q0 280 118.5 445.5t311.5 165.5z" />
    <glyph glyph-name="multiply" unicode="&#xd7;" 
d="M1278 1085l-98 101q-36 34 -70 0l-319 -320q-35 -35 -70 0l-289 289q-34 35 -72 0l-98 -100q-35 -35 0 -70l287 -289q35 -34 0 -69l-328 -338q-32 -36 2 -70l99 -100q36 -36 69 0l309 307q35 38 70 0l309 -307q34 -36 70 0l100 100q33 33 2 72l-290 336q-31 38 0 69
l317 320q34 34 0 69z" />
    <glyph glyph-name="Oslash" unicode="&#xd8;" 
d="M1049 1573l-33 -111q174 -83 274.5 -270.5t100.5 -446.5q0 -351 -176.5 -562.5t-462.5 -211.5q-87 0 -177 23q-15 -31 -53 -31l-127 4q-27 1 -38 17t-3 43l23 67q-128 98 -198 265.5t-70 385.5q0 351 177.5 563t465.5 212q46 0 118 -11l29 84q16 42 57 39l50 -2
q28 0 39.5 -15.5t3.5 -41.5zM322 745q0 -254 163 -339l330 946q-40 4 -63 4q-193 0 -311.5 -165.5t-118.5 -445.5zM752 354q79 0 141.5 11t117 38t90.5 70.5t56.5 112t20.5 159.5q0 191 -57 331t-158 212l-279 -932q23 -2 68 -2z" />
    <glyph glyph-name="Ugrave" unicode="&#xd9;" 
d="M578 2396h-91q-29 0 -39 -16.5t5 -42.5l153 -281q18 -35 60 -35h155q32 0 41 18t-10 44l-213 282q-25 31 -61 31zM168 1444l10 -883q3 -292 147.5 -441t426.5 -149q281 0 424.5 149t146.5 441l8 883q0 49 -49 49h-113q-49 0 -49 -51l8 -717q3 -237 -88.5 -344
t-287.5 -107q-197 0 -289.5 107t-89.5 344l8 717q0 51 -49 51h-115q-49 0 -49 -49z" />
    <glyph glyph-name="Uacute" unicode="&#xda;" 
d="M956 2390l-241 -328q-20 -25 -11.5 -42t39.5 -17h58q39 0 61 27l287 329q21 23 12 42.5t-41 19.5h-102q-37 0 -62 -31zM168 1444l10 -883q3 -292 147.5 -441t426.5 -149q281 0 424.5 149t146.5 441l8 883q0 49 -49 49h-113q-49 0 -49 -51l8 -717q3 -237 -88.5 -344
t-287.5 -107q-197 0 -289.5 107t-89.5 344l8 717q0 51 -49 51h-115q-49 0 -49 -49z" />
    <glyph glyph-name="Ucircumflex" unicode="&#xdb;" 
d="M569 1599l146 197q15 23 34.5 23t34.5 -23l146 -197h139l-246 377h-147l-246 -377h139zM168 1444l10 -883q3 -292 147.5 -441t426.5 -149q281 0 424.5 149t146.5 441l8 883q0 49 -49 49h-113q-49 0 -49 -51l8 -717q3 -237 -88.5 -344t-287.5 -107q-197 0 -289.5 107
t-89.5 344l8 717q0 51 -49 51h-115q-49 0 -49 -49z" />
    <glyph glyph-name="Udieresis" unicode="&#xdc;" 
d="M430 1890v-116q0 -52 49 -52h119q49 0 49 52v116q0 49 -49 49h-119q-49 0 -49 -49zM850 1890v-116q0 -52 49 -52h119q49 0 49 52v116q0 49 -49 49h-119q-49 0 -49 -49zM168 1444l10 -883q3 -292 147.5 -441t426.5 -149q281 0 424.5 149t146.5 441l8 883q0 49 -49 49h-113
q-49 0 -49 -51l8 -717q3 -237 -88.5 -344t-287.5 -107q-197 0 -289.5 107t-89.5 344l8 717q0 51 -49 51h-115q-49 0 -49 -49z" />
    <glyph glyph-name="Yacute" unicode="&#xdd;" 
d="M956 2390l-241 -328q-20 -25 -11.5 -42t39.5 -17h58q39 0 61 27l287 329q21 23 12 42.5t-41 19.5h-102q-37 0 -62 -31zM150 1434l444 -893q14 -32 14 -64v-428q0 -49 51 -49h172q52 0 52 49v428q0 32 14 64l453 893q14 26 4 42.5t-39 16.5h-113q-40 0 -57 -35l-359 -665
q-14 -26 -33.5 -26t-33.5 26l-363 665q-17 35 -57 35h-113q-29 0 -38.5 -16.5t2.5 -42.5z" />
    <glyph glyph-name="Thorn" unicode="&#xde;" 
d="M469 0v289q0 49 51 49h205q250 0 379 113t129 333t-128.5 332.5t-379.5 112.5h-205q-51 0 -51 51v213h-201v-1493h201zM520 1063h205q141 0 218 -73t77 -206q0 -134 -77.5 -207t-217.5 -73h-205q-51 0 -51 51v459q0 49 51 49z" />
    <glyph glyph-name="germandbls" unicode="&#xdf;" 
d="M492 0l-50 1104q0 36 4 59q23 152 89.5 216.5t191.5 64.5q48 0 76.5 -2.5t62 -13.5t57 -32.5t49.5 -58.5t52 -94q24 -53 -33 -65q-154 -33 -211 -111t-57 -207q0 -53 20 -105t42 -85.5t57 -79.5l12 -15l84 -55q105 -65 129 -104q31 -45 31 -84q0 -62 -60.5 -94.5
t-177.5 -32.5q-132 0 -285 59v-244q146 -49 275 -49q211 0 322.5 91.5t111.5 263.5q0 104 -50.5 175t-209.5 173l-57 37q-66 42 -94.5 82t-28.5 88q0 97 83 154t234 65q-3 224 -112 340t-318 116q-218 0 -337.5 -109t-119.5 -310l-59 -1137h277z" />
    <glyph glyph-name="agrave" unicode="&#xe0;" 
d="M635 1683l-154 281q-15 26 -5 42.5t40 16.5h90q38 0 62 -30l213 -283q19 -26 10 -43.5t-41 -17.5h-156q-41 0 -59 34zM739 1147q244 0 364 -125.5t120 -382.5v-590q0 -49 -49 -49h-84q-52 0 -52 49v23q0 34 -15 39.5t-40 -19.5q-121 -121 -332 -121q-170 0 -272.5 97
t-102.5 258q0 189 127 285t377 96h209q49 0 49 18q0 130 -79 203.5t-238 83.5q-156 0 -303 -64q-26 -12 -43 -2.5t-17 37.5v43q0 42 41 57q177 64 340 64zM680 252q73 0 117 9.5t77.5 39t47 83t14.5 140.5q0 47 -49 47h-117q-184 0 -257 -37.5t-81 -127.5q-3 -33 6 -60
q21 -59 78 -76.5t164 -17.5z" />
    <glyph glyph-name="aacute" unicode="&#xe1;" 
d="M829 1630h-57q-31 0 -40 17.5t11 42.5l242 327q25 31 62 31h102q32 0 40.5 -19t-11.5 -42l-287 -330q-22 -27 -62 -27zM739 1147q244 0 364 -125.5t120 -382.5v-590q0 -49 -49 -49h-84q-52 0 -52 49v23q0 34 -15 39.5t-40 -19.5q-121 -121 -332 -121q-170 0 -272.5 97
t-102.5 258q0 189 127 285t377 96h209q49 0 49 18q0 130 -79 203.5t-238 83.5q-156 0 -303 -64q-26 -12 -43 -2.5t-17 37.5v43q0 42 41 57q177 64 340 64zM680 252q73 0 117 9.5t77.5 39t47 83t14.5 140.5q0 47 -49 47h-117q-184 0 -257 -37.5t-81 -127.5q-3 -33 6 -60
q21 -59 78 -76.5t164 -17.5z" />
    <glyph glyph-name="acircumflex" unicode="&#xe2;" 
d="M598 1227h-139l246 377h147l246 -377h-140l-145 196q-15 23 -35 23t-35 -23zM739 1147q244 0 364 -125.5t120 -382.5v-590q0 -49 -49 -49h-84q-52 0 -52 49v23q0 34 -15 39.5t-40 -19.5q-121 -121 -332 -121q-170 0 -272.5 97t-102.5 258q0 189 127 285t377 96h209
q49 0 49 18q0 130 -79 203.5t-238 83.5q-156 0 -303 -64q-26 -12 -43 -2.5t-17 37.5v43q0 42 41 57q177 64 340 64zM680 252q73 0 117 9.5t77.5 39t47 83t14.5 140.5q0 47 -49 47h-117q-184 0 -257 -37.5t-81 -127.5q-3 -33 6 -60q21 -59 78 -76.5t164 -17.5z" />
    <glyph glyph-name="atilde" unicode="&#xe3;" 
d="M524 1610h-24q-53 0 -47 53q11 111 59.5 170t130.5 59q73 0 139 -61l58 -55q42 -39 67 -39q40 0 58 37q11 29 16 69q6 49 51 49h25q52 0 49 -53q-10 -110 -60.5 -169.5t-132.5 -59.5q-73 0 -139 61l-57 55q-42 39 -68 39q-38 0 -55 -36q-13 -26 -16 -70q-6 -49 -54 -49z
M739 1147q244 0 364 -125.5t120 -382.5v-590q0 -49 -49 -49h-84q-52 0 -52 49v23q0 34 -15 39.5t-40 -19.5q-121 -121 -332 -121q-170 0 -272.5 97t-102.5 258q0 189 127 285t377 96h209q49 0 49 18q0 130 -79 203.5t-238 83.5q-156 0 -303 -64q-26 -12 -43 -2.5t-17 37.5
v43q0 42 41 57q177 64 340 64zM680 252q73 0 117 9.5t77.5 39t47 83t14.5 140.5q0 47 -49 47h-117q-184 0 -257 -37.5t-81 -127.5q-3 -33 6 -60q21 -59 78 -76.5t164 -17.5z" />
    <glyph glyph-name="adieresis" unicode="&#xe4;" 
d="M627 1350h-119q-49 0 -49 51v117q0 49 49 49h119q49 0 49 -49v-117q0 -51 -49 -51zM1047 1350h-119q-49 0 -49 51v117q0 49 49 49h119q49 0 49 -49v-117q0 -51 -49 -51zM739 1147q244 0 364 -125.5t120 -382.5v-590q0 -49 -49 -49h-84q-52 0 -52 49v23q0 34 -15 39.5
t-40 -19.5q-121 -121 -332 -121q-170 0 -272.5 97t-102.5 258q0 189 127 285t377 96h209q49 0 49 18q0 130 -79 203.5t-238 83.5q-156 0 -303 -64q-26 -12 -43 -2.5t-17 37.5v43q0 42 41 57q177 64 340 64zM680 252q73 0 117 9.5t77.5 39t47 83t14.5 140.5q0 47 -49 47h-117
q-184 0 -257 -37.5t-81 -127.5q-3 -33 6 -60q21 -59 78 -76.5t164 -17.5z" />
    <glyph glyph-name="aring" unicode="&#xe5;" 
d="M778 1249q-114 0 -194 80t-80 195t80 194.5t194 79.5q116 0 195.5 -79.5t79.5 -194.5q0 -116 -79.5 -195.5t-195.5 -79.5zM778 1675q-64 0 -107.5 -43.5t-43.5 -107.5q0 -65 43.5 -108.5t107.5 -43.5t108 44.5t44 107.5t-44 107t-108 44zM739 1147q244 0 364 -125.5
t120 -382.5v-590q0 -49 -49 -49h-84q-52 0 -52 49v23q0 34 -15 39.5t-40 -19.5q-121 -121 -332 -121q-170 0 -272.5 97t-102.5 258q0 189 127 285t377 96h209q49 0 49 18q0 130 -79 203.5t-238 83.5q-156 0 -303 -64q-26 -12 -43 -2.5t-17 37.5v43q0 42 41 57q177 64 340 64
zM680 252q73 0 117 9.5t77.5 39t47 83t14.5 140.5q0 47 -49 47h-117q-184 0 -257 -37.5t-81 -127.5q-3 -33 6 -60q21 -59 78 -76.5t164 -17.5z" />
    <glyph glyph-name="ae" unicode="&#xe6;" 
d="M1640 575h-790q-28 0 -40.5 -14t-6.5 -39q29 -121 131.5 -198.5t259.5 -77.5q205 0 403 104v-264q-94 -39 -141 -57t-127 -38t-145 -20q-301 0 -459 193q-34 43 -68 0q-141 -193 -399 -193q-189 0 -293 93.5t-104 261.5q0 242 121.5 342t382.5 100h206q52 0 52 16
q0 35 -22 76.5t-61 80t-102 64t-135 25.5q-193 0 -360 -92v131q206 78 381 78q122 0 219 -36.5t157 -104.5q34 -37 68 -5q146 146 383 146q145 0 258 -67.5t172 -176.5t59 -237v-91zM811 772q-6 -25 6.5 -39t38.5 -14l547 2q25 0 38 13.5t9 37.5q-20 108 -101 190t-196 82
q-128 0 -219 -79.5t-123 -192.5zM285 225q156 0 245.5 87t92.5 266q-3 45 -52 45h-133q-95 0 -156 -5t-110.5 -19t-75.5 -40t-39.5 -65.5t-13.5 -98.5q0 -78 65 -124t177 -46z" />
    <glyph glyph-name="ccedilla" unicode="&#xe7;" 
d="M879 1001q-177 0 -272 -117.5t-95 -324.5q13 -143 94 -202t264 -68q18 0 64 -1t70.5 -1t61.5 5t67 15q27 9 42 -0.5t15 -36.5l2 -184q3 -44 -37 -59q-118 -48 -242 -54l2 -2q84 -103 84 -186q0 -180 -237 -180q-68 0 -133 12q-43 12 -43 57v27q0 52 55 39q47 -12 100 -12
q119 0 119 94q0 47 -47 117q-12 18 -12 34q-229 19 -361.5 175.5t-132.5 410.5q0 274 150.5 431t412.5 157q154 0 285 -51q39 -14 39 -58v-57q0 -28 -16.5 -37.5t-42.5 2.5q-125 55 -256 55z" />
    <glyph glyph-name="egrave" unicode="&#xe8;" 
d="M580 2023h-91q-29 0 -39 -16.5t5 -42.5l153 -281q18 -34 60 -34h155q32 0 41 17.5t-10 43.5l-213 283q-24 30 -61 30zM1264 635v18q-19 242 -136.5 363.5t-341.5 130.5q-249 0 -394 -169.5t-156 -451.5q0 -262 151 -404t422 -151q174 0 377 62q40 12 37 57l-2 150
q0 53 -58 36q-53 -15 -118.5 -22.5t-105.5 -8.5t-124 -1q-56 3 -92.5 6.5t-79 11.5t-69.5 20.5t-55 33.5t-44.5 50t-28.5 70.5t-16 95.5q-3 52 49 52h735q50 0 50 51zM1047 735l-545 -2q-27 0 -40 14.5t-7 38.5q24 100 115.5 182.5t215.5 82.5q56 0 107 -24.5t88.5 -64.5
t64.5 -83t44 -88q9 -24 -3.5 -40t-39.5 -16z" />
    <glyph glyph-name="eacute" unicode="&#xe9;" 
d="M958 2017l-241 -327q-20 -25 -11.5 -42.5t39.5 -17.5h58q39 0 61 27l287 330q20 23 11.5 42t-40.5 19h-102q-37 0 -62 -31zM1264 635v18q-19 242 -136.5 363.5t-341.5 130.5q-249 0 -394 -169.5t-156 -451.5q0 -262 151 -404t422 -151q174 0 377 62q40 12 37 57l-2 150
q0 53 -58 36q-53 -15 -118.5 -22.5t-105.5 -8.5t-124 -1q-56 3 -92.5 6.5t-79 11.5t-69.5 20.5t-55 33.5t-44.5 50t-28.5 70.5t-16 95.5q-3 52 49 52h735q50 0 50 51zM1047 735l-545 -2q-27 0 -40 14.5t-7 38.5q24 100 115.5 182.5t215.5 82.5q56 0 107 -24.5t88.5 -64.5
t64.5 -83t44 -88q9 -24 -3.5 -40t-39.5 -16z" />
    <glyph glyph-name="ecircumflex" unicode="&#xea;" 
d="M571 1227l146 196q15 23 34.5 23t34.5 -23l146 -196h139l-246 377h-147l-246 -377h139zM1264 635v18q-19 242 -136.5 363.5t-341.5 130.5q-249 0 -394 -169.5t-156 -451.5q0 -262 151 -404t422 -151q174 0 377 62q40 12 37 57l-2 150q0 53 -58 36q-53 -15 -118.5 -22.5
t-105.5 -8.5t-124 -1q-56 3 -92.5 6.5t-79 11.5t-69.5 20.5t-55 33.5t-44.5 50t-28.5 70.5t-16 95.5q-3 52 49 52h735q50 0 50 51zM1047 735l-545 -2q-27 0 -40 14.5t-7 38.5q24 100 115.5 182.5t215.5 82.5q56 0 107 -24.5t88.5 -64.5t64.5 -83t44 -88q9 -24 -3.5 -40
t-39.5 -16z" />
    <glyph glyph-name="edieresis" unicode="&#xeb;" 
d="M432 1518v-117q0 -51 49 -51h119q49 0 49 51v117q0 49 -49 49h-119q-49 0 -49 -49zM852 1518v-117q0 -51 49 -51h119q49 0 49 51v117q0 49 -49 49h-119q-49 0 -49 -49zM1264 635v18q-19 242 -136.5 363.5t-341.5 130.5q-249 0 -394 -169.5t-156 -451.5q0 -262 151 -404
t422 -151q174 0 377 62q40 12 37 57l-2 150q0 53 -58 36q-53 -15 -118.5 -22.5t-105.5 -8.5t-124 -1q-56 3 -92.5 6.5t-79 11.5t-69.5 20.5t-55 33.5t-44.5 50t-28.5 70.5t-16 95.5q-3 52 49 52h735q50 0 50 51zM1047 735l-545 -2q-27 0 -40 14.5t-7 38.5
q24 100 115.5 182.5t215.5 82.5q56 0 107 -24.5t88.5 -64.5t64.5 -83t44 -88q9 -24 -3.5 -40t-39.5 -16z" />
    <glyph glyph-name="igrave" unicode="&#xec;" 
d="M653 1638h-90q-29 0 -39 -16.5t4 -42.5l154 -281q18 -34 59 -34h156q32 0 41 17.5t-10 43.5l-213 283q-24 30 -62 30zM797 1069l-74 -1020q-1 -23 12 -36t37 -13h158q51 0 51 49v1020q0 51 -51 51h-84q-46 0 -49 -51z" />
    <glyph glyph-name="iacute" unicode="&#xed;" 
d="M774 1608l-242 -328q-20 -25 -11 -42t40 -17h57q39 0 62 26l287 330q20 25 11.5 43t-40.5 18h-102q-38 0 -62 -30zM596 1069v-1020q0 -49 49 -49h152q25 0 38.5 13t12.5 36l-70 1020q-3 51 -49 51h-84q-49 0 -49 -51z" />
    <glyph glyph-name="icircumflex" unicode="&#xee;" 
d="M655 1606l-186 -283q-15 -26 -6 -43.5t39 -17.5h30q38 0 62 30l121 166q15 23 34.5 23t34.5 -23l123 -166q24 -30 62 -30h28q31 0 40.5 17.5t-7.5 43.5l-184 283q-22 32 -62 32h-69q-41 0 -60 -32zM682 1069l-18 -1020q-1 -23 12 -36t37 -13h125q52 0 49 49l-21 1020
q0 51 -49 51h-84q-48 0 -51 -51z" />
    <glyph glyph-name="idieresis" unicode="&#xef;" 
d="M432 1518v-117q0 -51 49 -51h119q49 0 49 51v117q0 49 -49 49h-119q-49 0 -49 -49zM852 1518v-117q0 -51 49 -51h119q49 0 49 51v117q0 49 -49 49h-119q-49 0 -49 -49zM657 1069l-20 -1020q0 -49 49 -49h105q51 0 51 49v1020q0 51 -51 51h-84q-50 0 -50 -51z" />
    <glyph glyph-name="eth" unicode="&#xf0;" 
d="M1024 1141l-123 139q-18 22 -13 40.5t32 27.5l188 61q47 15 31 64v2q-15 46 -64 30l-246 -82q-40 -11 -67 19l-76 86q-22 28 -61 28h-109q-32 0 -40.5 -18t13.5 -43l84 -94q19 -23 14.5 -42t-32.5 -28l-172 -55q-49 -15 -33 -64v-4q15 -47 64 -30l231 77q41 11 70 -18
l71 -82q33 -40 19 -55q-5 -6 -17 -4q-25 2 -55 2q-221 0 -359 -155.5t-138 -405.5q0 -255 141.5 -410.5t372.5 -155.5t372.5 155.5t141.5 410.5q0 174 -57 318t-183 286zM928 926q32 -10 53 -37q88 -131 88 -352q0 -53 -8 -93.5t-21 -68t-36.5 -47t-46.5 -30t-60 -16t-68 -7
t-79 -1.5q-49 0 -80 1.5t-68.5 7t-60 16t-46.5 30t-36.5 47t-20.5 68t-8 93.5q0 195 92.5 303t259.5 108q63 0 146 -22z" />
    <glyph glyph-name="ntilde" unicode="&#xf1;" 
d="M670 1726l57 -55q66 -61 139 -61q82 0 132.5 59.5t60.5 169.5q3 53 -49 53h-25q-45 0 -51 -49q-5 -40 -16 -69q-18 -37 -58 -37q-25 0 -67 39l-58 55q-66 61 -139 61q-82 0 -130.5 -59t-59.5 -170q-6 -53 47 -53h24q47 0 53 49q3 41 17 70q17 36 55 36q26 0 68 -39z
M1251 51l-26 625q-21 471 -402 471q-147 0 -303 -107q-25 -19 -42 -10t-17 41v8q0 51 -49 51h-86q-49 0 -52 -49l-26 -1030q-3 -51 49 -51h154q49 0 49 51l-29 592q0 168 83.5 261t248.5 93q121 0 174 -77t53 -240l-37 -629q-3 -51 49 -51h160q52 0 49 51z" />
    <glyph glyph-name="ograve" unicode="&#xf2;" 
d="M518 2023h-90q-30 0 -40 -16.5t5 -42.5l154 -281q18 -34 59 -34h156q32 0 41 17.5t-10 43.5l-213 283q-24 30 -62 30zM750 1147q-242 0 -378 -155.5t-136 -432.5q0 -275 136.5 -431.5t377.5 -156.5q240 0 377 156.5t137 431.5q0 276 -137 432t-377 156zM750 1012
q147 0 233 -113.5t86 -306.5q0 -95 -21 -156.5t-66 -93t-98 -42.5t-134 -11q-65 0 -110.5 6.5t-87.5 25t-67 51.5t-40 88t-15 132q0 195 86 307.5t234 112.5z" />
    <glyph glyph-name="oacute" unicode="&#xf3;" 
d="M897 2017l-242 -327q-20 -25 -11 -42.5t40 -17.5h57q40 0 62 27l287 330q20 23 11.5 42t-40.5 19h-103q-36 0 -61 -31zM750 1147q-242 0 -378 -155.5t-136 -432.5q0 -275 136.5 -431.5t377.5 -156.5q240 0 377 156.5t137 431.5q0 276 -137 432t-377 156zM750 1012
q147 0 233 -113.5t86 -306.5q0 -95 -21 -156.5t-66 -93t-98 -42.5t-134 -11q-65 0 -110.5 6.5t-87.5 25t-67 51.5t-40 88t-15 132q0 195 86 307.5t234 112.5z" />
    <glyph glyph-name="ocircumflex" unicode="&#xf4;" 
d="M510 1227l145 196q15 23 35 23t35 -23l145 -196h140l-246 377h-148l-245 -377h139zM750 1147q-242 0 -378 -155.5t-136 -432.5q0 -275 136.5 -431.5t377.5 -156.5q240 0 377 156.5t137 431.5q0 276 -137 432t-377 156zM750 1012q147 0 233 -113.5t86 -306.5
q0 -95 -21 -156.5t-66 -93t-98 -42.5t-134 -11q-65 0 -110.5 6.5t-87.5 25t-67 51.5t-40 88t-15 132q0 195 86 307.5t234 112.5z" />
    <glyph glyph-name="otilde" unicode="&#xf5;" 
d="M629 1726l57 -55q66 -61 139 -61q82 0 132.5 59.5t60.5 169.5q3 53 -49 53h-25q-45 0 -51 -49q-5 -40 -16 -69q-18 -37 -58 -37q-25 0 -67 39l-58 55q-66 61 -139 61q-82 0 -130.5 -59t-59.5 -170q-6 -53 47 -53h24q47 0 53 49q3 41 17 70q17 36 55 36q26 0 68 -39z
M750 1147q-242 0 -378 -155.5t-136 -432.5q0 -275 136.5 -431.5t377.5 -156.5q240 0 377 156.5t137 431.5q0 276 -137 432t-377 156zM750 1012q147 0 233 -113.5t86 -306.5q0 -95 -21 -156.5t-66 -93t-98 -42.5t-134 -11q-65 0 -110.5 6.5t-87.5 25t-67 51.5t-40 88t-15 132
q0 195 86 307.5t234 112.5z" />
    <glyph glyph-name="odieresis" unicode="&#xf6;" 
d="M371 1518v-117q0 -51 49 -51h119q49 0 49 51v117q0 49 -49 49h-119q-49 0 -49 -49zM791 1518v-117q0 -51 49 -51h118q50 0 50 51v117q0 49 -50 49h-118q-49 0 -49 -49zM750 1147q-242 0 -378 -155.5t-136 -432.5q0 -275 136.5 -431.5t377.5 -156.5q240 0 377 156.5
t137 431.5q0 276 -137 432t-377 156zM750 1012q147 0 233 -113.5t86 -306.5q0 -95 -21 -156.5t-66 -93t-98 -42.5t-134 -11q-65 0 -110.5 6.5t-87.5 25t-67 51.5t-40 88t-15 132q0 195 86 307.5t234 112.5z" />
    <glyph glyph-name="divide" unicode="&#xf7;" 
d="M602 1145v-197q0 -49 49 -49h197q49 0 49 49v197q0 24 -11.5 32.5t-37.5 8.5h-197q-26 0 -37.5 -8.5t-11.5 -32.5zM84 686v-119q0 -51 49 -51h1233q49 0 49 51v119q0 51 -49 51h-1233q-49 0 -49 -51zM602 295v-195q0 -51 49 -51h197q49 0 49 51v195q0 49 -49 49h-197
q-49 0 -49 -49z" />
    <glyph glyph-name="oslash" unicode="&#xf8;" 
d="M1098 1413l-97 -323q126 -67 194.5 -203t68.5 -328q0 -275 -137 -431.5t-377 -156.5q-28 0 -82 4l-39 -131q-14 -41 -58 -41l-127 4q-27 1 -38 17t-3 43l64 180q-113 71 -172 201.5t-59 310.5q0 277 136 432.5t378 155.5q55 0 96 -8l102 295q16 42 58 39l49 -3
q28 0 39.5 -15.5t3.5 -41.5zM430 592q0 -118 32.5 -183t96.5 -94l242 693q-32 4 -51 4q-148 0 -234 -112.5t-86 -307.5zM954 932l-192 -643q61 1 105 8t84.5 26.5t65 52.5t38.5 87t14 129q0 225 -115 340z" />
    <glyph glyph-name="ugrave" unicode="&#xf9;" 
d="M586 2023h-90q-30 0 -40 -16.5t5 -42.5l153 -281q18 -34 60 -34h155q32 0 41 17.5t-10 43.5l-213 283q-24 30 -61 30zM276 1069v-627q0 -232 100 -351.5t294 -119.5q182 0 301 125q25 26 40 21t13 -39v-27q-3 -51 47 -51l76 2q48 3 51 51l19 1020q0 25 -13.5 38t-36.5 11
l-98 -2q-48 -3 -51 -49l-19 -426q-9 -167 -91.5 -260.5t-229.5 -93.5q-122 0 -180.5 77.5t-67.5 239.5v461q0 51 -49 51h-55q-50 0 -50 -51z" />
    <glyph glyph-name="uacute" unicode="&#xfa;" 
d="M965 2017l-242 -327q-20 -25 -11 -42.5t40 -17.5h57q39 0 61 27l287 330q20 23 11.5 42t-40.5 19h-102q-36 0 -61 -31zM276 1069v-627q0 -232 100 -351.5t294 -119.5q182 0 301 125q25 26 40 21t13 -39v-27q-3 -51 47 -51l76 2q48 3 51 51l19 1020q0 25 -13.5 38
t-36.5 11l-98 -2q-48 -3 -51 -49l-19 -426q-9 -167 -91.5 -260.5t-229.5 -93.5q-122 0 -180.5 77.5t-67.5 239.5v461q0 51 -49 51h-55q-50 0 -50 -51z" />
    <glyph glyph-name="ucircumflex" unicode="&#xfb;" 
d="M578 1227l145 196q15 23 35 23t35 -23l145 -196h139l-246 377h-147l-246 -377h140zM276 1069v-627q0 -232 100 -351.5t294 -119.5q182 0 301 125q25 26 40 21t13 -39v-27q-3 -51 47 -51l76 2q48 3 51 51l19 1020q0 25 -13.5 38t-36.5 11l-98 -2q-48 -3 -51 -49l-19 -426
q-9 -167 -91.5 -260.5t-229.5 -93.5q-122 0 -180.5 77.5t-67.5 239.5v461q0 51 -49 51h-55q-50 0 -50 -51z" />
    <glyph glyph-name="udieresis" unicode="&#xfc;" 
d="M438 1518v-117q0 -51 49 -51h119q49 0 49 51v117q0 49 -49 49h-119q-49 0 -49 -49zM858 1518v-117q0 -51 49 -51h119q49 0 49 51v117q0 49 -49 49h-119q-49 0 -49 -49zM276 1069v-627q0 -232 100 -351.5t294 -119.5q182 0 301 125q25 26 40 21t13 -39v-27q-3 -51 47 -51
l76 2q48 3 51 51l19 1020q0 25 -13.5 38t-36.5 11l-98 -2q-48 -3 -51 -49l-19 -426q-9 -167 -91.5 -260.5t-229.5 -93.5q-122 0 -180.5 77.5t-67.5 239.5v461q0 51 -49 51h-55q-50 0 -50 -51z" />
    <glyph glyph-name="yacute" unicode="&#xfd;" 
d="M866 2017l-241 -327q-20 -25 -11.5 -42.5t39.5 -17.5h58q39 0 61 27l287 330q20 23 11.5 42t-40.5 19h-102q-37 0 -62 -31zM821 -104l451 1167q9 26 -2 41.5t-39 15.5h-92q-40 0 -58 -37l-256 -548q-14 -28 -33 -29.5t-36 24.5l-338 555q-20 35 -60 35h-90
q-29 0 -40 -16.5t1 -42.5l437 -934q16 -34 0 -68l-50 -98q-14 -28 -32 -51q-3 -4 -23 -29.5t-28 -35t-28.5 -34t-32.5 -36t-32.5 -29.5t-35.5 -26.5t-33.5 -15.5t-34.5 -7h-78q-49 0 -49 -49v-146q0 -49 49 -49h117q248 0 446 443z" />
    <glyph glyph-name="thorn" unicode="&#xfe;" 
d="M444 -467l-10 545q-1 34 14.5 38t38.5 -22q108 -123 306 -123q204 0 331 162t127 426t-127 426t-331 162q-198 0 -306 -123q-23 -26 -38 -22t-15 38v465q0 51 -49 51h-86q-49 0 -49 -51l8 -1972q0 -49 51 -49h84q51 0 51 49zM1061 559q0 -80 -14.5 -137t-39 -92
t-65.5 -55.5t-86 -27.5t-108 -7t-108 7t-86 27.5t-66 55.5t-39.5 92t-14.5 137q0 202 84 318t230 116t229.5 -115.5t83.5 -318.5z" />
    <glyph glyph-name="ydieresis" unicode="&#xff;" 
d="M340 1518v-117q0 -51 49 -51h119q49 0 49 51v117q0 49 -49 49h-119q-49 0 -49 -49zM760 1518v-117q0 -51 49 -51h119q49 0 49 51v117q0 49 -49 49h-119q-49 0 -49 -49zM821 -104l451 1167q9 26 -2 41.5t-39 15.5h-92q-40 0 -58 -37l-256 -548q-14 -28 -33 -29.5t-36 24.5
l-338 555q-20 35 -60 35h-90q-29 0 -40 -16.5t1 -42.5l437 -934q16 -34 0 -68l-50 -98q-14 -28 -32 -51q-3 -4 -23 -29.5t-28 -35t-28.5 -34t-32.5 -36t-32.5 -29.5t-35.5 -26.5t-33.5 -15.5t-34.5 -7h-78q-49 0 -49 -49v-146q0 -49 49 -49h117q248 0 446 443z" />
    <glyph glyph-name="Amacron" unicode="&#x100;" 
d="M463 2040v-49q0 -49 51 -49h498q49 0 49 49v49q0 49 -49 49h-498q-51 0 -51 -49zM641 1454l-553 -1397q-9 -27 1.5 -42t39.5 -15h168q41 0 55 41l49 162q15 41 58 41h583q47 0 56 -45l37 -156q9 -43 55 -43h182q28 0 38.5 15.5t0.5 41.5l-551 1397q-14 39 -57 39h-105
q-43 0 -57 -39zM782 1212l224 -673q9 -26 -2 -42t-39 -16h-428q-28 0 -39 16t-2 42l223 673q7 22 19 30t24.5 0t19.5 -30z" />
    <glyph glyph-name="amacron" unicode="&#x101;" 
d="M1028 1667h-498q-51 0 -51 49v49q0 50 51 50h498q49 0 49 -50v-49q0 -49 -49 -49zM739 1147q244 0 364 -125.5t120 -382.5v-590q0 -49 -49 -49h-84q-52 0 -52 49v23q0 34 -15 39.5t-40 -19.5q-121 -121 -332 -121q-170 0 -272.5 97t-102.5 258q0 189 127 285t377 96h209
q49 0 49 18q0 130 -79 203.5t-238 83.5q-156 0 -303 -64q-26 -12 -43 -2.5t-17 37.5v43q0 42 41 57q177 64 340 64zM680 252q73 0 117 9.5t77.5 39t47 83t14.5 140.5q0 47 -49 47h-117q-184 0 -257 -37.5t-81 -127.5q-3 -33 6 -60q21 -59 78 -76.5t164 -17.5z" />
    <glyph glyph-name="Abreve" unicode="&#x102;" 
d="M522 1827h-20q-25 0 -38 -14.5t-7 -38.5q41 -234 305 -234t307 234q4 25 -8.5 39t-38.5 14h-21q-40 0 -55 -43q-40 -107 -184 -107t-184 107q-15 43 -56 43zM641 1454l-553 -1397q-9 -27 1.5 -42t39.5 -15h168q41 0 55 41l49 162q15 41 58 41h583q47 0 56 -45l37 -156
q9 -43 55 -43h182q28 0 38.5 15.5t0.5 41.5l-551 1397q-14 39 -57 39h-105q-43 0 -57 -39zM782 1212l224 -673q9 -26 -2 -42t-39 -16h-428q-28 0 -39 16t-2 42l223 673q7 22 19 30t24.5 0t19.5 -30z" />
    <glyph glyph-name="abreve" unicode="&#x103;" 
d="M778 1266q-265 0 -305 233q-6 24 7 38.5t38 14.5h21q40 0 55 -43q40 -106 184 -106q145 0 185 106q15 43 55 43h20q26 0 38.5 -14t8.5 -39q-43 -233 -307 -233zM739 1147q244 0 364 -125.5t120 -382.5v-590q0 -49 -49 -49h-84q-52 0 -52 49v23q0 34 -15 39.5t-40 -19.5
q-121 -121 -332 -121q-170 0 -272.5 97t-102.5 258q0 189 127 285t377 96h209q49 0 49 18q0 130 -79 203.5t-238 83.5q-156 0 -303 -64q-26 -12 -43 -2.5t-17 37.5v43q0 42 41 57q177 64 340 64zM680 252q73 0 117 9.5t77.5 39t47 83t14.5 140.5q0 47 -49 47h-117
q-184 0 -257 -37.5t-81 -127.5q-3 -33 6 -60q21 -59 78 -76.5t164 -17.5z" />
    <glyph glyph-name="Aogonek" unicode="&#x104;" 
d="M1374 -262q58 13 58 -39v-29q0 -46 -46 -55q-55 -10 -92 -10q-122 0 -179.5 43.5t-57.5 136.5q0 79 84 186q23 29 61 29h-12q-46 0 -55 43l-37 156q-9 45 -56 45h-583q-43 0 -58 -41l-49 -162q-14 -41 -55 -41h-168q-29 0 -39.5 15t-1.5 42l553 1397q14 39 57 39h105
q43 0 57 -39l551 -1397q10 -26 -0.5 -41.5t-38.5 -15.5h-160q30 0 38.5 -17.5t-7.5 -43.5q-47 -74 -47 -119q0 -92 109 -92q31 0 69 10zM537 481h428q28 0 39 16t2 42l-224 673q-7 22 -19.5 30t-24.5 0t-19 -30l-223 -673q-9 -26 2 -42t39 -16z" />
    <glyph glyph-name="aogonek" unicode="&#x105;" 
d="M739 1147q244 0 364 -125.5t120 -382.5v-590q0 -49 -49 -49h-84q-52 0 -52 49v23q0 34 -15 39.5t-40 -19.5q-104 -104 -276 -119q0 -17 -11 -34q-47 -74 -47 -119q0 -92 109 -92q31 0 69 10q58 13 58 -39v-29q0 -46 -45 -55q-55 -10 -92 -10q-122 0 -180 43.5t-58 136.5
q0 79 84 186l2 2q-147 17 -233.5 111.5t-86.5 241.5q0 189 127 285t377 96h209q49 0 49 18q0 130 -79 203.5t-238 83.5q-156 0 -303 -64q-26 -12 -43 -2.5t-17 37.5v43q0 42 41 57q177 64 340 64zM680 252q73 0 117 9.5t77.5 39t47 83t14.5 140.5q0 47 -49 47h-117
q-184 0 -257 -37.5t-81 -127.5q-3 -33 6 -60q21 -59 78 -76.5t164 -17.5z" />
    <glyph glyph-name="Cacute" unicode="&#x106;" 
d="M987 2390l-242 -328q-20 -25 -11 -42t40 -17h57q40 0 62 27l287 329q20 23 11.5 42.5t-40.5 19.5h-102q-37 0 -62 -31zM1352 1243v96q0 42 -33 60q-190 121 -442 121q-338 0 -534 -208t-196 -567t196 -566.5t534 -207.5q245 0 442 123q33 20 33 60v233q0 32 -17.5 40
t-42.5 -11q-180 -140 -403 -140q-265 0 -395 107.5t-134 361.5q0 296 136.5 452.5t392.5 156.5q223 0 403 -137q25 -21 42.5 -13.5t17.5 39.5z" />
    <glyph glyph-name="cacute" unicode="&#x107;" 
d="M999 2017l-241 -327q-20 -25 -11.5 -42.5t39.5 -17.5h58q39 0 61 27l287 330q20 23 11.5 42t-40.5 19h-102q-37 0 -62 -31zM1194 981v57q0 44 -39 58q-131 51 -285 51q-262 0 -412.5 -157t-150.5 -431q0 -270 149 -429t402 -159q158 0 297 56q40 15 37 59l-2 184
q0 27 -15 36.5t-42 0.5q-30 -10 -67 -15t-61.5 -5t-70.5 1t-64 1q-183 9 -264 68t-94 202q0 207 95 324.5t272 117.5q131 0 256 -55q26 -12 42.5 -2.5t16.5 37.5z" />
    <glyph glyph-name="Cdotaccent" unicode="&#x10a;" 
d="M678 1874v-102q0 -52 51 -52h105q49 0 49 52v102q0 51 -49 51h-105q-51 0 -51 -51zM1352 1243v96q0 42 -33 60q-190 121 -442 121q-338 0 -534 -208t-196 -567t196 -566.5t534 -207.5q245 0 442 123q33 20 33 60v233q0 32 -17.5 40t-42.5 -11q-180 -140 -403 -140
q-265 0 -395 107.5t-134 361.5q0 296 136.5 452.5t392.5 156.5q223 0 403 -137q25 -21 42.5 -13.5t17.5 39.5z" />
    <glyph glyph-name="cdotaccent" unicode="&#x10b;" 
d="M690 1501v-102q0 -51 51 -51h105q49 0 49 51v102q0 51 -49 51h-105q-51 0 -51 -51zM1194 981v57q0 44 -39 58q-131 51 -285 51q-262 0 -412.5 -157t-150.5 -431q0 -270 149 -429t402 -159q158 0 297 56q40 15 37 59l-2 184q0 27 -15 36.5t-42 0.5q-30 -10 -67 -15
t-61.5 -5t-70.5 1t-64 1q-183 9 -264 68t-94 202q0 207 95 324.5t272 117.5q131 0 256 -55q26 -12 42.5 -2.5t16.5 37.5z" />
    <glyph glyph-name="Ccaron" unicode="&#x10c;" 
d="M745 1634h70q39 0 62 33l184 285q17 25 7.5 42t-38.5 17h-31q-36 0 -61 -31l-123 -165q-15 -23 -35 -23t-35 23l-120 165q-25 31 -62 31h-28q-31 0 -40.5 -17t5.5 -42l186 -285q20 -33 59 -33zM1352 1243v96q0 42 -33 60q-190 121 -442 121q-338 0 -534 -208t-196 -567
t196 -566.5t534 -207.5q245 0 442 123q33 20 33 60v233q0 32 -17.5 40t-42.5 -11q-180 -140 -403 -140q-265 0 -395 107.5t-134 361.5q0 296 136.5 452.5t392.5 156.5q223 0 403 -137q25 -21 42.5 -13.5t17.5 39.5z" />
    <glyph glyph-name="ccaron" unicode="&#x10d;" 
d="M758 1262h69q40 0 62 32l184 285q17 25 7.5 42t-38.5 17h-30q-38 0 -62 -30l-123 -166q-15 -23 -34.5 -23t-34.5 23l-121 166q-24 30 -62 30h-28q-31 0 -40.5 -17t5.5 -42l186 -285q19 -32 60 -32zM1194 981v57q0 44 -39 58q-131 51 -285 51q-262 0 -412.5 -157
t-150.5 -431q0 -270 149 -429t402 -159q158 0 297 56q40 15 37 59l-2 184q0 27 -15 36.5t-42 0.5q-30 -10 -67 -15t-61.5 -5t-70.5 1t-64 1q-183 9 -264 68t-94 202q0 207 95 324.5t272 117.5q131 0 256 -55q26 -12 42.5 -2.5t16.5 37.5z" />
    <glyph glyph-name="Dcaron" unicode="&#x10e;" 
d="M715 1634h69q39 0 62 33l184 285q17 25 7.5 42t-38.5 17h-30q-37 0 -62 -31l-123 -165q-15 -23 -34.5 -23t-34.5 23l-121 165q-25 31 -62 31h-28q-31 0 -40.5 -17t5.5 -42l186 -285q20 -33 60 -33zM174 1444v-1395q0 -49 49 -49h367q737 0 737 748q0 745 -737 745h-367
q-49 0 -49 -49zM436 1327h195q228 0 357 -134t136 -394q0 -31 -8 -62q-50 -208 -155.5 -284t-329.5 -76h-195q-49 0 -49 49v852q0 49 49 49z" />
    <glyph glyph-name="dcaron" unicode="&#x10f;" 
d="M1571 1837v-104q0 -31 -8 -62l-76 -299q-7 -26 4.5 -41.5t38.5 -15.5h57q42 0 60 37l165 321q15 30 15 62v102q0 49 -49 49h-156q-51 0 -51 -49zM1126 1556h84q53 0 50 -51l-19 -1456q0 -49 -49 -49h-84q-51 0 -51 49v29q0 34 -15 38t-38 -22q-108 -123 -306 -123
q-204 0 -331 162t-127 426t127 426t331 162q197 0 308 -123q22 -28 38 -24t17 38l14 469q0 49 51 49zM684 1014q-139 0 -222 -107.5t-89 -296.5q0 -38 4 -61q26 -130 96 -187t207 -57q79 0 128.5 10.5t89 41t57.5 88t20 149.5q-9 420 -291 420z" />
    <glyph glyph-name="Dcroat" unicode="&#x110;" 
d="M451 2138v-49q0 -49 51 -49h497q50 0 50 49v49q0 49 -50 49h-497q-51 0 -51 -49zM174 1444v-1395q0 -49 49 -49h367q737 0 737 748q0 745 -737 745h-367q-49 0 -49 -49zM436 1327h195q228 0 357 -134t136 -394q0 -31 -8 -62q-50 -208 -155.5 -284t-329.5 -76h-195
q-49 0 -49 49v852q0 49 49 49z" />
    <glyph glyph-name="dcroat" unicode="&#x111;" 
d="M1126 1556h84q53 0 50 -51l-19 -1456q0 -49 -49 -49h-84q-51 0 -51 49v29q0 34 -15 38t-38 -22q-108 -123 -306 -123q-204 0 -331 162t-127 426t127 426t331 162q197 0 308 -123q22 -28 38 -24t17 38l14 469q0 49 51 49zM680 305q86 0 141 14t88 50l-397 -9
q-26 0 -39 14.5t-8 39.5l12 75q6 46 53 46l439 8h4q0 8 1 25t1 26q-9 420 -291 420q-139 0 -222 -107.5t-89 -296.5q0 -38 4 -61q26 -130 96 -187t207 -57z" />
    <glyph glyph-name="Emacron" unicode="&#x112;" 
d="M420 2089v-49q0 -49 51 -49h498q49 0 49 49v49q0 49 -49 49h-498q-51 0 -51 -49zM268 1444v-1395q0 -49 51 -49h863q49 0 49 49v211q0 49 -49 49h-662q-49 0 -49 51v302q0 49 49 49h613q49 0 49 51v69q0 50 -49 50h-613q-49 0 -49 51v342q0 49 49 49h643q49 0 49 49v72
q0 49 -49 49h-844q-51 0 -51 -49z" />
    <glyph glyph-name="emacron" unicode="&#x113;" 
d="M453 1765v-49q0 -49 51 -49h497q50 0 50 49v49q0 50 -50 50h-497q-51 0 -51 -50zM1264 635v18q-19 242 -136.5 363.5t-341.5 130.5q-249 0 -394 -169.5t-156 -451.5q0 -262 151 -404t422 -151q174 0 377 62q40 12 37 57l-2 150q0 53 -58 36q-53 -15 -118.5 -22.5
t-105.5 -8.5t-124 -1q-56 3 -92.5 6.5t-79 11.5t-69.5 20.5t-55 33.5t-44.5 50t-28.5 70.5t-16 95.5q-3 52 49 52h735q50 0 50 51zM1047 735l-545 -2q-27 0 -40 14.5t-7 38.5q24 100 115.5 182.5t215.5 82.5q56 0 107 -24.5t88.5 -64.5t64.5 -83t44 -88q9 -24 -3.5 -40
t-39.5 -16z" />
    <glyph glyph-name="Edotaccent" unicode="&#x116;" 
d="M616 1825v-103q0 -51 52 -51h104q49 0 49 51v103q0 51 -49 51h-104q-52 0 -52 -51zM268 1444v-1395q0 -49 51 -49h863q49 0 49 49v211q0 49 -49 49h-662q-49 0 -49 51v302q0 49 49 49h613q49 0 49 51v69q0 50 -49 50h-613q-49 0 -49 51v342q0 49 49 49h643q49 0 49 49v72
q0 49 -49 49h-844q-51 0 -51 -49z" />
    <glyph glyph-name="edotaccent" unicode="&#x117;" 
d="M649 1501v-102q0 -51 51 -51h105q49 0 49 51v102q0 51 -49 51h-105q-51 0 -51 -51zM1264 635v18q-19 242 -136.5 363.5t-341.5 130.5q-249 0 -394 -169.5t-156 -451.5q0 -262 151 -404t422 -151q174 0 377 62q40 12 37 57l-2 150q0 53 -58 36q-53 -15 -118.5 -22.5
t-105.5 -8.5t-124 -1q-56 3 -92.5 6.5t-79 11.5t-69.5 20.5t-55 33.5t-44.5 50t-28.5 70.5t-16 95.5q-3 52 49 52h735q50 0 50 51zM1047 735l-545 -2q-27 0 -40 14.5t-7 38.5q24 100 115.5 182.5t215.5 82.5q56 0 107 -24.5t88.5 -64.5t64.5 -83t44 -88q9 -24 -3.5 -40
t-39.5 -16z" />
    <glyph glyph-name="Eogonek" unicode="&#x118;" 
d="M520 309h662q49 0 49 -49v-211q0 -49 -49 -49h-391q30 0 38 -17.5t-8 -43.5q-47 -74 -47 -119q0 -92 109 -92q31 0 69 10q58 13 58 -39v-29q0 -46 -45 -55q-55 -10 -93 -10q-122 0 -179.5 43.5t-57.5 136.5q0 79 84 186q23 29 61 29h-461q-51 0 -51 49v1395q0 49 51 49
h844q49 0 49 -49v-72q0 -49 -49 -49h-643q-49 0 -49 -49v-342q0 -51 49 -51h613q49 0 49 -50v-69q0 -51 -49 -51h-613q-49 0 -49 -49v-302q0 -51 49 -51z" />
    <glyph glyph-name="eogonek" unicode="&#x119;" 
d="M786 1147q224 -9 341.5 -130.5t136.5 -363.5v-18q0 -51 -50 -51h-735q-52 0 -49 -52q4 -54 16 -95.5t28.5 -70.5t44.5 -50t55 -33.5t69.5 -20.5t79 -11.5t92.5 -6.5q84 0 124 1t105.5 8.5t118.5 22.5q58 17 58 -36l2 -150q3 -45 -37 -57q-182 -56 -352 -62
q-48 -76 -48 -118q0 -93 109 -93q28 0 70 11q57 13 57 -39v-29q0 -46 -45 -55q-55 -10 -92 -10q-122 0 -180 43.5t-58 136.5q0 71 66 162q-228 31 -352.5 169.5t-124.5 376.5q11 282 156 451.5t394 169.5zM502 733l545 2q27 0 39.5 16t3.5 40q-17 45 -44 88t-64.5 83
t-88.5 64.5t-107 24.5q-124 0 -215.5 -82.5t-115.5 -182.5q-6 -24 7 -38.5t40 -14.5z" />
    <glyph glyph-name="Ecaron" unicode="&#x11a;" 
d="M684 1585h70q38 0 61 33l184 285q17 25 8 42t-38 17h-31q-36 0 -61 -31l-123 -166q-15 -23 -35 -23t-35 23l-121 166q-25 31 -61 31h-29q-31 0 -40.5 -17t5.5 -42l187 -285q20 -33 59 -33zM268 1444v-1395q0 -49 51 -49h863q49 0 49 49v211q0 49 -49 49h-662
q-49 0 -49 51v302q0 49 49 49h613q49 0 49 51v69q0 50 -49 50h-613q-49 0 -49 51v342q0 49 49 49h643q49 0 49 49v72q0 49 -49 49h-844q-51 0 -51 -49z" />
    <glyph glyph-name="ecaron" unicode="&#x11b;" 
d="M717 1262h69q40 0 62 32l184 285q17 25 7.5 42t-38.5 17h-30q-38 0 -62 -30l-123 -166q-15 -23 -34.5 -23t-34.5 23l-121 166q-24 30 -61 30h-29q-31 0 -40.5 -17t5.5 -42l186 -285q19 -32 60 -32zM1264 635v18q-19 242 -136.5 363.5t-341.5 130.5q-249 0 -394 -169.5
t-156 -451.5q0 -262 151 -404t422 -151q174 0 377 62q40 12 37 57l-2 150q0 53 -58 36q-53 -15 -118.5 -22.5t-105.5 -8.5t-124 -1q-56 3 -92.5 6.5t-79 11.5t-69.5 20.5t-55 33.5t-44.5 50t-28.5 70.5t-16 95.5q-3 52 49 52h735q50 0 50 51zM1047 735l-545 -2
q-27 0 -40 14.5t-7 38.5q24 100 115.5 182.5t215.5 82.5q56 0 107 -24.5t88.5 -64.5t64.5 -83t44 -88q9 -24 -3.5 -40t-39.5 -16z" />
    <glyph glyph-name="Gbreve" unicode="&#x11e;" 
d="M485 1925h-20q-25 0 -38 -14.5t-7 -38.5q40 -234 305 -234q263 0 307 234q4 25 -8.5 39t-38.5 14h-20q-41 0 -56 -43q-40 -106 -184 -106t-184 106q-15 43 -56 43zM1122 483v-73q0 -43 -28 -60q-85 -53 -283 -53q-119 0 -198 21.5t-136 75t-84.5 144t-32.5 228.5
q0 292 125.5 450t325.5 158q237 0 442 -143q25 -20 42.5 -11.5t17.5 40.5v79q0 40 -33 60q-213 121 -487 121q-134 0 -251.5 -53.5t-205 -151t-138.5 -245t-51 -325.5q0 -152 18 -265.5t62.5 -208.5t118 -156t184.5 -98t263 -46q271 -16 528 146q31 19 31 61v522
q0 50 -49 50h-482q-49 0 -49 -50v-116q0 -49 49 -49h250q51 0 51 -52z" />
    <glyph glyph-name="gbreve" unicode="&#x11f;" 
d="M532 1552h-20q-25 0 -38 -14.5t-7 -38.5q40 -233 305 -233q264 0 307 233q4 25 -8.5 39t-38.5 14h-20q-41 0 -56 -43q-40 -106 -184 -106t-184 106q-15 43 -56 43zM1231 139l29 930q0 51 -50 51h-86q-47 0 -53 -43l-4 -43q-3 -33 -20 -37t-39 23q-109 127 -310 127
q-206 0 -332 -157.5t-126 -416.5t126 -416t332 -157q177 0 293 104q41 36 42 4q1 -10 -11 -88q-35 -234 -118 -340t-228 -106q-138 0 -262 55q-26 12 -43 2.5t-17 -37.5v-221q0 -43 41 -55q139 -45 310 -45q110 0 188 22.5t142 78.5t103.5 155t63 248.5t29.5 361.5zM977 584
q0 -56 -8 -99t-21.5 -73t-37.5 -51t-48 -33t-61.5 -18.5t-70.5 -8.5t-81 -2q-55 0 -89 2.5t-69.5 12.5t-55.5 28.5t-38.5 50.5t-29 78.5t-17.5 112.5q0 200 83 310t231 110q149 0 231 -109.5t82 -310.5z" />
    <glyph glyph-name="Gdotaccent" unicode="&#x120;" 
d="M623 1874v-102q0 -52 51 -52h104q49 0 49 52v102q0 51 -49 51h-104q-51 0 -51 -51zM1122 483v-73q0 -43 -28 -60q-85 -53 -283 -53q-119 0 -198 21.5t-136 75t-84.5 144t-32.5 228.5q0 292 125.5 450t325.5 158q237 0 442 -143q25 -20 42.5 -11.5t17.5 40.5v79
q0 40 -33 60q-213 121 -487 121q-134 0 -251.5 -53.5t-205 -151t-138.5 -245t-51 -325.5q0 -152 18 -265.5t62.5 -208.5t118 -156t184.5 -98t263 -46q271 -16 528 146q31 19 31 61v522q0 50 -49 50h-482q-49 0 -49 -50v-116q0 -49 49 -49h250q51 0 51 -52z" />
    <glyph glyph-name="gdotaccent" unicode="&#x121;" 
d="M670 1501v-102q0 -51 51 -51h104q49 0 49 51v102q0 51 -49 51h-104q-51 0 -51 -51zM1231 139l29 930q0 51 -50 51h-86q-47 0 -53 -43l-4 -43q-3 -33 -20 -37t-39 23q-109 127 -310 127q-206 0 -332 -157.5t-126 -416.5t126 -416t332 -157q177 0 293 104q41 36 42 4
q1 -10 -11 -88q-35 -234 -118 -340t-228 -106q-138 0 -262 55q-26 12 -43 2.5t-17 -37.5v-221q0 -43 41 -55q139 -45 310 -45q110 0 188 22.5t142 78.5t103.5 155t63 248.5t29.5 361.5zM977 584q0 -56 -8 -99t-21.5 -73t-37.5 -51t-48 -33t-61.5 -18.5t-70.5 -8.5t-81 -2
q-55 0 -89 2.5t-69.5 12.5t-55.5 28.5t-38.5 50.5t-29 78.5t-17.5 112.5q0 200 83 310t231 110q149 0 231 -109.5t82 -310.5z" />
    <glyph glyph-name="Gcommaaccent" unicode="&#x122;" 
d="M1122 483v-73q0 -43 -28 -60q-85 -53 -283 -53q-119 0 -198 21.5t-136 75t-84.5 144t-32.5 228.5q0 292 125.5 450t325.5 158q237 0 442 -143q25 -20 42.5 -11.5t17.5 40.5v79q0 40 -33 60q-213 121 -487 121q-134 0 -251.5 -53.5t-205 -151t-138.5 -245t-51 -325.5
q0 -152 18 -265.5t62.5 -208.5t118 -156t184.5 -98t263 -46q271 -16 528 146q31 19 31 61v522q0 50 -49 50h-482q-49 0 -49 -50v-116q0 -49 49 -49h250q51 0 51 -52zM657 -160v-131q0 -30 -8 -61l-76 -234q-8 -26 3.5 -41.5t39.5 -15.5h31q40 0 60 33l182 260q20 29 20 61
v129q0 49 -51 49h-149q-52 0 -52 -49z" />
    <glyph glyph-name="gcommaaccent" unicode="&#x123;" 
d="M1124 1120h86q50 0 50 -51l-29 -930q-9 -307 -55.5 -489t-129 -265t-219.5 -104q0 -31 -20 -57l-182 -260q-20 -33 -60 -33h-30q-28 0 -39.5 15.5t-3.5 41.5l75 234q8 27 8 57q-95 12 -180 39q-41 12 -41 55v221q0 28 17 37.5t43 -2.5q124 -55 262 -55q145 0 228 106
t118 340q13 82 11 94q-4 24 -42 -10q-116 -104 -293 -104q-206 0 -332 157t-126 416t126 416.5t332 157.5q201 0 310 -127q22 -27 39 -23t20 37l4 43q6 43 53 43zM649 299q48 0 81 2t70.5 8.5t61.5 18.5t48 33t37.5 51t21.5 73t8 99q0 201 -82 310.5t-231 109.5
q-148 0 -231 -110t-83 -310q7 -66 17.5 -112.5t29 -78.5t38.5 -50.5t55.5 -28.5t69.5 -12.5t89 -2.5z" />
    <glyph glyph-name="Hbar" unicode="&#x126;" 
d="M1303 1112l12 -1063q1 -23 -11.5 -36t-35.5 -13h-133q-50 0 -50 49v402q0 51 -51 51h-594q-49 0 -49 -51v-402q0 -49 -51 -49h-131q-52 0 -49 49l14 1063h-123l10 145h115l2 187q0 49 51 49h111q51 0 51 -49v-187h694v187q0 49 50 49h112q48 0 51 -49l2 -187h125l11 -145
h-133zM440 780h594q51 0 51 51v281h-694v-281q0 -51 49 -51z" />
    <glyph glyph-name="hbar" unicode="&#x127;" 
d="M1337 676l19 -625q3 -51 -49 -51h-131q-53 0 -50 51l29 619q7 184 -55.5 261t-192.5 77q-148 0 -234.5 -104t-86.5 -271l18 -582q0 -51 -49 -51h-164q-52 0 -49 51l57 1219h-256l29 123h234l14 319q3 49 51 49h84q52 0 49 -51l-8 -317h231l21 -123h-254l-6 -232
q0 -34 15 -39t40 21q118 127 305 127q192 0 290.5 -119.5t98.5 -351.5z" />
    <glyph glyph-name="Itilde" unicode="&#x128;" 
d="M698 2099l58 -55q68 -62 139 -62q82 0 131.5 60t60.5 170q3 53 -49 53h-24q-45 0 -51 -49q-5 -38 -17 -70q-18 -37 -57 -37q-26 0 -68 39l-57 56q-66 61 -139 61q-82 0 -131 -59.5t-60 -169.5q-6 -54 47 -54h25q47 0 53 50q3 42 16 69q18 37 56 37q25 0 67 -39zM633 51
q-3 -51 49 -51h137q52 0 49 51q-10 209 -15 422t-7.5 547t-3.5 424q0 49 -51 49h-72q-48 0 -51 -49q-1 -85 -5 -335.5t-6.5 -374t-8.5 -321.5t-15 -362z" />
    <glyph glyph-name="itilde" unicode="&#x129;" 
d="M662 1726l57 -55q66 -61 139 -61q82 0 132.5 59.5t60.5 169.5q3 53 -50 53h-24q-45 0 -51 -49q-5 -36 -17 -69q-18 -37 -57 -37q-26 0 -68 39l-57 55q-66 61 -139 61q-82 0 -131 -59.5t-60 -169.5q-6 -53 47 -53h25q47 0 53 49q3 41 17 70q17 36 55 36q26 0 68 -39z
M637 51q-3 -51 49 -51h129q53 0 47 53q-50 525 -37 1016q3 51 -49 51h-61q-51 0 -51 -45q7 -542 -27 -1024z" />
    <glyph glyph-name="Imacron" unicode="&#x12a;" 
d="M461 2138v-49q0 -49 51 -49h498q49 0 49 49v49q0 49 -49 49h-498q-51 0 -51 -49zM633 51q-3 -51 49 -51h137q52 0 49 51q-10 209 -15 422t-7.5 547t-3.5 424q0 49 -51 49h-72q-48 0 -51 -49q-1 -85 -5 -335.5t-6.5 -374t-8.5 -321.5t-15 -362z" />
    <glyph glyph-name="imacron" unicode="&#x12b;" 
d="M424 1765v-49q0 -49 51 -49h498q49 0 49 49v49q0 50 -49 50h-498q-51 0 -51 -50zM637 51q-3 -51 49 -51h129q53 0 47 53q-50 525 -37 1016q3 51 -49 51h-61q-51 0 -51 -45q7 -542 -27 -1024z" />
    <glyph glyph-name="Iogonek" unicode="&#x12e;" 
d="M907 -262q58 13 58 -39v-29q0 -46 -45 -55q-55 -10 -93 -10q-122 0 -179.5 43.5t-57.5 136.5q0 79 84 186q23 29 61 29h-53q-52 0 -49 51q9 164 15 362t8.5 321.5t6.5 374t5 335.5q3 49 51 49h72q51 0 51 -49q1 -90 3.5 -424t7.5 -547t15 -422q3 -51 -49 -51h-74
q30 0 38.5 -17.5t-7.5 -43.5q-47 -74 -47 -119q0 -92 109 -92q31 0 69 10z" />
    <glyph glyph-name="iogonek" unicode="&#x12f;" 
d="M776 1348h-104q-51 0 -51 51v102q0 51 51 51h104q49 0 49 -51v-102q0 -51 -49 -51zM909 -231q58 13 58 -39v-29q0 -46 -45 -55q-61 -11 -93 -11q-122 0 -179.5 43.5t-57.5 137.5q0 79 82 184q-40 6 -37 51q34 482 27 1024q0 45 51 45h61q52 0 49 -51q-13 -491 37 -1016
q6 -53 -47 -53h-27q0 -11 -10 -31q-47 -74 -47 -119q0 -92 109 -92q27 0 69 11z" />
    <glyph glyph-name="Idotaccent" unicode="&#x130;" 
d="M657 1874v-102q0 -52 52 -52h104q49 0 49 52v102q0 51 -49 51h-104q-52 0 -52 -51zM633 51q-3 -51 49 -51h137q52 0 49 51q-10 209 -15 422t-7.5 547t-3.5 424q0 49 -51 49h-72q-48 0 -51 -49q-1 -85 -5 -335.5t-6.5 -374t-8.5 -321.5t-15 -362z" />
    <glyph glyph-name="dotlessi" unicode="&#x131;" 
d="M637 51q-3 -51 49 -51h129q53 0 47 53q-50 525 -37 1016q3 51 -49 51h-61q-51 0 -51 -45q7 -542 -27 -1024z" />
    <glyph glyph-name="IJ" unicode="&#x132;" horiz-adv-x="2998" 
d="M633 51q-3 -51 49 -51h137q52 0 49 51q-10 209 -15 422t-7.5 547t-3.5 424q0 49 -51 49h-72q-48 0 -51 -49q-1 -85 -5 -335.5t-6.5 -374t-8.5 -321.5t-15 -362zM2179 1444l-82 -1368q-5 -67 -61.5 -120.5t-165.5 -66.5q-23 -2 -62 5l-16 4q-26 6 -40.5 -5.5t-14.5 -39.5
l2 -226q3 -47 49 -53l70 -6q161 3 259.5 51.5t151 156t60.5 287.5l61 1369q3 50 -47 53l-113 8q-48 0 -51 -49z" />
    <glyph glyph-name="ij" unicode="&#x133;" horiz-adv-x="2998" 
d="M651 1518l-6 -134q0 -51 49 -51h103q52 0 49 51l-6 134q0 49 -52 49h-86q-48 0 -51 -49zM2177 1507l-6 -133q-3 -51 49 -51h82q49 0 49 51l-6 133q-3 49 -51 49h-68q-49 0 -49 -49zM2126 1067l-15 -973q-1 -105 -24.5 -186.5t-58.5 -129.5t-83 -79.5t-90.5 -44
t-89.5 -16.5h-28q-51 3 -51 -50l-5 -256q0 -48 50 -51h51q88 3 178 53t160.5 128t118.5 182t55 209l88 1210q1 23 -11.5 36t-35.5 13l-158 4q-51 0 -51 -49zM551 41q-6 -25 7.5 -38t41.5 -13h272q27 0 42.5 14t5.5 39q-46 114 -63 290t-9 357.5t35 368.5q4 24 -9.5 37.5
t-39.5 13.5h-168q-26 0 -42.5 -13t-9.5 -32q27 -78 43.5 -145.5t25.5 -122t7 -115t-6.5 -104.5t-20.5 -113t-29.5 -118.5t-39 -142t-43.5 -163.5z" />
    <glyph glyph-name="Kcommaaccent" unicode="&#x136;" 
d="M209 1444l-39 -1393q0 -51 49 -51h162q50 0 47 51l-31 553q-2 37 18 44.5t42 -21.5l420 -596q19 -31 59 -31h350q34 0 42 19t-15 42l-697 701q-34 34 0 69l639 601q25 23 18 42t-42 19h-133q-36 0 -64 -25l-579 -546q-25 -23 -44 -15.5t-18 41.5l17 494q0 51 -50 51h-102
q-49 0 -49 -49zM551 -172v-131q0 -31 -8 -62l-76 -233q-8 -26 3.5 -41.5t39.5 -15.5h31q40 0 59 32l182 261q21 30 21 61v129q0 49 -51 49h-150q-51 0 -51 -49z" />
    <glyph glyph-name="kcommaaccent" unicode="&#x137;" 
d="M299 1507l-39 -1456q0 -51 51 -51h144q50 0 47 51l-21 373q-3 35 17.5 42.5t42.5 -20.5l340 -417q23 -29 59 -29h254q35 0 43.5 19t-16.5 42l-521 502q-33 33 -6 70l344 426q22 25 13 43t-41 18h-119q-37 0 -62 -28l-292 -342q-22 -27 -42 -20t-20 42l8 733q3 51 -49 51
h-86q-49 0 -49 -49zM559 -109v-131q0 -30 -8 -61l-76 -234q-8 -26 3.5 -41.5t39.5 -15.5h31q39 0 59 33l183 260q20 29 20 61v129q0 50 -51 50h-150q-51 0 -51 -50z" />
    <glyph glyph-name="Lacute" unicode="&#x139;" 
d="M645 2390l-242 -328q-20 -25 -11 -42t40 -17h57q40 0 62 27l287 329q20 23 11.5 42.5t-40.5 19.5h-102q-37 0 -62 -31zM299 1444l-16 -1395q-3 -49 49 -49h821q46 0 49 47l15 211q3 51 -50 51h-624q-49 0 -49 51l10 1084q0 49 -51 49h-103q-48 0 -51 -49z" />
    <glyph glyph-name="lacute" unicode="&#x13a;" 
d="M729 2349l-242 -328q-20 -25 -11 -42t40 -17h57q40 0 62 27l287 329q20 23 11.5 42.5t-40.5 19.5h-102q-37 0 -62 -31zM416 51q3 -51 49 -51h473q51 0 51 49v127q0 51 -51 51h-213q-23 0 -33.5 12.5t-15.5 39.5q-20 100 -31 200.5t-15 225.5t-4 214t1.5 264t1.5 277
q0 51 -47 51h-154q-25 0 -39.5 -12.5t-11.5 -36.5q32 -203 39.5 -400.5t-1.5 -337t-11 -321t12 -352.5z" />
    <glyph glyph-name="Lcommaaccent" unicode="&#x13b;" 
d="M299 1444l-16 -1395q-3 -49 49 -49h821q46 0 49 47l15 211q3 51 -50 51h-624q-49 0 -49 51l10 1084q0 49 -51 49h-103q-48 0 -51 -49zM827 -166v-131q0 -30 -8 -61l-76 -234q-8 -26 3.5 -41.5t39.5 -15.5h31q40 0 60 33l182 260q20 29 20 61v129q0 49 -51 49h-149
q-52 0 -52 -49z" />
    <glyph glyph-name="lcommaaccent" unicode="&#x13c;" 
d="M416 51q3 -51 49 -51h473q51 0 51 49v127q0 51 -51 51h-213q-23 0 -33.5 12.5t-15.5 39.5q-20 100 -31 200.5t-15 225.5t-4 214t1.5 264t1.5 277q0 51 -47 51h-154q-25 0 -39.5 -12.5t-11.5 -36.5q32 -203 39.5 -400.5t-1.5 -337t-11 -321t12 -352.5zM592 -125v-131
q0 -30 -8 -61l-76 -234q-8 -26 3.5 -41.5t39.5 -15.5h31q39 0 59 33l182 260q21 30 21 61v129q0 49 -51 49h-150q-51 0 -51 -49z" />
    <glyph glyph-name="Lcaron" unicode="&#x13d;" 
d="M973 1737v-105q0 -30 -8 -61l-76 -299q-7 -26 5 -42t38 -16h57q42 0 60 37l165 322q15 30 15 61v103q0 49 -49 49h-156q-51 0 -51 -49zM299 1444l-16 -1395q-3 -49 49 -49h821q46 0 49 47l15 211q3 51 -50 51h-624q-49 0 -49 51l10 1084q0 49 -51 49h-103q-48 0 -51 -49z
" />
    <glyph glyph-name="lcaron" unicode="&#x13e;" 
d="M897 1800v-104q0 -31 -8 -62l-76 -299q-7 -26 4.5 -41.5t38.5 -15.5h57q42 0 60 37l166 321q14 28 14 62v102q0 49 -49 49h-156q-51 0 -51 -49zM416 51q3 -51 49 -51h473q51 0 51 49v127q0 51 -51 51h-213q-23 0 -33.5 12.5t-15.5 39.5q-20 100 -31 200.5t-15 225.5
t-4 214t1.5 264t1.5 277q0 51 -47 51h-154q-25 0 -39.5 -12.5t-11.5 -36.5q32 -203 39.5 -400.5t-1.5 -337t-11 -321t12 -352.5z" />
    <glyph glyph-name="Ldot" unicode="&#x13f;" 
d="M299 1444l-16 -1395q-3 -49 49 -49h821q46 0 49 47l15 211q3 51 -50 51h-624q-49 0 -49 51l10 1084q0 49 -51 49h-103q-48 0 -51 -49zM815 946v-153q0 -52 49 -52h113q49 0 49 52v153q0 49 -49 49h-113q-49 0 -49 -49z" />
    <glyph glyph-name="ldot" unicode="&#x140;" 
d="M416 51q3 -51 49 -51h473q51 0 51 49v127q0 51 -51 51h-213q-23 0 -33.5 12.5t-15.5 39.5q-20 100 -31 200.5t-15 225.5t-4 214t1.5 264t1.5 277q0 51 -47 51h-154q-25 0 -39.5 -12.5t-11.5 -36.5q32 -203 39.5 -400.5t-1.5 -337t-11 -321t12 -352.5zM893 850v-154
q0 -51 49 -51h113q49 0 49 51v154q0 49 -49 49h-113q-49 0 -49 -49z" />
    <glyph glyph-name="Lslash" unicode="&#x141;" 
d="M389 1444v-674q0 -40 -31 -59l-153 -107q-40 -27 -12 -69l20 -29q27 -41 70 -12l45 32q26 20 43.5 11t17.5 -41v-447q0 -49 49 -49h832q49 0 49 49v72q0 49 -49 49h-629q-49 0 -49 49v455q0 41 33 59l319 223q41 27 12 70l-22 31q-28 38 -70 10l-211 -147
q-26 -17 -43.5 -9t-17.5 39v494q0 49 -49 49h-105q-49 0 -49 -49z" />
    <glyph glyph-name="lslash" unicode="&#x142;" 
d="M655 1505v-643q0 -41 -30 -59l-125 -90q-41 -28 -13 -70l17 -25q28 -42 59 -18l33 23q25 19 42 9.5t17 -40.5v-543q0 -49 52 -49h84q49 0 49 49v711q0 38 30 59l129 90q41 28 13 70l-19 25q-27 40 -59 18l-33 -25q-26 -18 -43.5 -9t-17.5 40v477q0 51 -49 51h-84
q-52 0 -52 -51z" />
    <glyph glyph-name="Nacute" unicode="&#x143;" 
d="M969 2390l-242 -328q-20 -25 -11 -42t40 -17h57q39 0 61 27l287 329q21 23 12.5 42.5t-40.5 19.5h-103q-36 0 -61 -31zM213 1413l-37 -1362q-3 -51 49 -51h156q50 0 47 51l-49 1059q-3 38 17.5 44t39.5 -28l578 -1089q16 -37 59 -37h203q49 0 49 49v1395q0 49 -49 49h-88
q-49 0 -49 -49l-27 -1041q-2 -37 -22 -41.5t-39 27.5l-566 1038q-17 35 -59 35h-162q-48 0 -51 -49z" />
    <glyph glyph-name="nacute" unicode="&#x144;" 
d="M938 2017l-242 -327q-20 -25 -11 -42.5t40 -17.5h57q40 0 62 27l286 330q21 23 12.5 42t-40.5 19h-103q-36 0 -61 -31zM1251 51l-26 625q-21 471 -402 471q-147 0 -303 -107q-25 -19 -42 -10t-17 41v8q0 51 -49 51h-86q-49 0 -52 -49l-26 -1030q-3 -51 49 -51h154
q49 0 49 51l-29 592q0 168 83.5 261t248.5 93q121 0 174 -77t53 -240l-37 -629q-3 -51 49 -51h160q52 0 49 51z" />
    <glyph glyph-name="Ncommaaccent" unicode="&#x145;" 
d="M213 1413l-37 -1362q-3 -51 49 -51h156q50 0 47 51l-49 1059q-3 38 17.5 44t39.5 -28l578 -1089q16 -37 59 -37h203q49 0 49 49v1395q0 49 -49 49h-88q-49 0 -49 -49l-27 -1041q-2 -37 -22 -41.5t-39 27.5l-566 1038q-17 35 -59 35h-162q-48 0 -51 -49zM649 -121v-131
q0 -30 -8 -61l-76 -234q-8 -26 3.5 -41.5t39.5 -15.5h31q39 0 59 33l183 260q20 29 20 61v129q0 49 -51 49h-150q-51 0 -51 -49z" />
    <glyph glyph-name="ncommaaccent" unicode="&#x146;" 
d="M1251 51l-26 625q-21 471 -402 471q-147 0 -303 -107q-25 -19 -42 -10t-17 41v8q0 51 -49 51h-86q-49 0 -52 -49l-26 -1030q-3 -51 49 -51h154q49 0 49 51l-29 592q0 168 83.5 261t248.5 93q121 0 174 -77t53 -240l-37 -629q-3 -51 49 -51h160q52 0 49 51zM883 -109v-131
q0 -26 -9 -61l-75 -234q-8 -26 3.5 -41.5t39.5 -15.5h30q40 0 60 33l182 260q21 30 21 61v129q0 50 -52 50h-149q-51 0 -51 -50z" />
    <glyph glyph-name="Ncaron" unicode="&#x147;" 
d="M727 1634h70q38 0 61 33l184 285q17 25 8 42t-38 17h-31q-36 0 -61 -31l-123 -165q-15 -23 -35 -23t-35 23l-121 165q-25 31 -61 31h-29q-31 0 -40.5 -17t5.5 -42l187 -285q20 -33 59 -33zM213 1413l-37 -1362q-3 -51 49 -51h156q50 0 47 51l-49 1059q-3 38 17.5 44
t39.5 -28l578 -1089q16 -37 59 -37h203q49 0 49 49v1395q0 49 -49 49h-88q-49 0 -49 -49l-27 -1041q-2 -37 -22 -41.5t-39 27.5l-566 1038q-17 35 -59 35h-162q-48 0 -51 -49z" />
    <glyph glyph-name="ncaron" unicode="&#x148;" 
d="M696 1262h70q39 0 61 32l185 285q17 25 7.5 42t-38.5 17h-31q-37 0 -61 -30l-123 -166q-15 -23 -35 -23t-35 23l-121 166q-24 30 -61 30h-29q-30 0 -39.5 -17t5.5 -42l186 -285q19 -32 59 -32zM1251 51l-26 625q-21 471 -402 471q-147 0 -303 -107q-25 -19 -42 -10
t-17 41v8q0 51 -49 51h-86q-49 0 -52 -49l-26 -1030q-3 -51 49 -51h154q49 0 49 51l-29 592q0 168 83.5 261t248.5 93q121 0 174 -77t53 -240l-37 -629q-3 -51 49 -51h160q52 0 49 51z" />
    <glyph glyph-name="Eng" unicode="&#x14a;" 
d="M1061 1493h88q49 0 49 -49v-1395q0 -39 -37 -49q0 -2 -56.5 -121.5t-57.5 -120.5l-82 -143q-9 -15 -26 -20t-36 2q-22 8 -93 31.5t-125.5 45t-88.5 43.5q-21 14 -20 36t20 38q28 23 99.5 75.5t101.5 78.5q25 18 41 43q24 44 30 82l-559 1056q-19 34 -39.5 28t-17.5 -44
l49 -1059q3 -51 -47 -51h-156q-52 0 -49 51l37 1362q3 49 51 49h162q42 0 59 -35l566 -1038q19 -32 39 -27.5t22 41.5l27 1041q0 49 49 49z" />
    <glyph glyph-name="eng" unicode="&#x14b;" 
d="M1233 676q0 44 -3.5 84.5t-14.5 89t-29 89.5t-49 80.5t-72 66.5t-101 44t-133 17q-147 0 -303 -107q-25 -19 -42 -10t-17 41v59h-184l-31 -1130h256l-31 643q0 168 83.5 261t248.5 93q121 0 174 -77t53 -240l-18 -655q0 -19 -64 -43t-134.5 -49t-80.5 -44
q-15 -28 8 -81.5t62.5 -95.5t69.5 -42q2 0 32 10.5t76.5 31t92.5 45t85 57.5t50 65q11 30 16 50t8.5 73t3.5 143q0 147 -12 531z" />
    <glyph glyph-name="Omacron" unicode="&#x14c;" 
d="M451 2138v-49q0 -49 51 -49h497q50 0 50 49v49q0 49 -50 49h-497q-51 0 -51 -49zM752 1520q-288 0 -465.5 -212t-177.5 -563q0 -352 177.5 -563t465.5 -211q286 0 462.5 211.5t176.5 562.5t-176.5 563t-462.5 212zM752 1356q191 0 308.5 -165.5t117.5 -445.5
q0 -91 -20.5 -159.5t-56.5 -112t-90.5 -70.5t-117 -38t-141.5 -11q-101 0 -175.5 18t-134 61t-90 121t-30.5 191q0 280 118.5 445.5t311.5 165.5z" />
    <glyph glyph-name="omacron" unicode="&#x14d;" 
d="M391 1765v-49q0 -49 51 -49h498q49 0 49 49v49q0 50 -49 50h-498q-51 0 -51 -50zM750 1147q-242 0 -378 -155.5t-136 -432.5q0 -275 136.5 -431.5t377.5 -156.5q240 0 377 156.5t137 431.5q0 276 -137 432t-377 156zM750 1012q147 0 233 -113.5t86 -306.5
q0 -95 -21 -156.5t-66 -93t-98 -42.5t-134 -11q-65 0 -110.5 6.5t-87.5 25t-67 51.5t-40 88t-15 132q0 195 86 307.5t234 112.5z" />
    <glyph glyph-name="Ohungarumlaut" unicode="&#x150;" 
d="M569 1974l-141 -280q-14 -26 -4 -43t41 -17h31q39 0 59 35l166 283q17 25 7 42t-40 17h-59q-42 0 -60 -37zM903 1976l-153 -280q-14 -28 -4.5 -45t38.5 -17h29q39 0 59 33l189 285q17 25 7 42t-40 17h-65q-42 0 -60 -35zM752 1520q-288 0 -465.5 -212t-177.5 -563
q0 -352 177.5 -563t465.5 -211q286 0 462.5 211.5t176.5 562.5t-176.5 563t-462.5 212zM752 1356q191 0 308.5 -165.5t117.5 -445.5q0 -91 -20.5 -159.5t-56.5 -112t-90.5 -70.5t-117 -38t-141.5 -11q-101 0 -175.5 18t-134 61t-90 121t-30.5 191q0 280 118.5 445.5
t311.5 165.5z" />
    <glyph glyph-name="ohungarumlaut" unicode="&#x151;" 
d="M510 1602l-141 -281q-14 -26 -4 -42.5t41 -16.5h30q41 0 60 34l166 283q17 25 7 42t-40 17h-60q-42 0 -59 -36zM844 1604l-154 -281q-13 -28 -3.5 -44.5t38.5 -16.5h29q40 0 59 32l188 285q17 25 7.5 42t-39.5 17h-66q-41 0 -59 -34zM750 1147q-242 0 -378 -155.5
t-136 -432.5q0 -275 136.5 -431.5t377.5 -156.5q240 0 377 156.5t137 431.5q0 276 -137 432t-377 156zM750 1012q147 0 233 -113.5t86 -306.5q0 -95 -21 -156.5t-66 -93t-98 -42.5t-134 -11q-65 0 -110.5 6.5t-87.5 25t-67 51.5t-40 88t-15 132q0 195 86 307.5t234 112.5z
" />
    <glyph glyph-name="OE" unicode="&#x152;" 
d="M1536 1493h-760q-433 0 -656.5 -189.5t-223.5 -555.5q0 -369 223 -558.5t657 -189.5h778q52 0 52 49v180q0 52 -52 52h-424q-49 0 -49 49v401q0 49 49 49h396q51 0 51 51v70q0 49 -51 49h-396q-49 0 -49 51v312q0 51 49 51h406q51 0 51 49v31q0 49 -51 49zM879 1313v-983
q0 -49 -50 -49h-79q-155 0 -280 39t-202 105.5t-118 149t-41 173.5q0 323 157.5 469.5t483.5 146.5h79q50 0 50 -51z" />
    <glyph glyph-name="oe" unicode="&#x153;" 
d="M1497 717v39q0 41 -15 91.5t-46 103.5t-72.5 96.5t-101 71.5t-125.5 28q-114 0 -187.5 -42t-140.5 -132q-15 -22 -35.5 -22t-32.5 24q-43 82 -130.5 127t-192.5 45q-73 0 -146.5 -41t-134 -114t-98 -186.5t-37.5 -246.5q0 -134 34 -246t91.5 -186t132.5 -115t158 -41
q107 0 194 44.5t131 129.5q12 22 32.5 22t35.5 -20q62 -83 164.5 -129.5t193.5 -46.5q81 0 131 13t154 53q39 13 39 57v197q0 29 -15.5 38.5t-41.5 -1.5q-12 -5 -38 -17t-34.5 -16t-28 -12t-28.5 -10.5t-26 -7t-30.5 -5.5t-31.5 -2.5t-39 -1.5q-80 0 -132 14.5t-92 53.5
t-61.5 108.5t-30.5 179.5q-6 54 47 54h537q49 0 49 51zM1315 801l-395 -2q-29 0 -41 16t2 41q19 34 30.5 53t35.5 48t48 44t61.5 27t82.5 12q56 0 123.5 -60t95.5 -126q10 -24 -2.5 -38.5t-40.5 -14.5zM418 1016q127 0 208 -106.5t81 -286.5q0 -176 -79.5 -267.5
t-209.5 -91.5q-85 0 -154 94t-69 265q0 175 69 284t154 109z" />
    <glyph glyph-name="Racute" unicode="&#x154;" 
d="M879 2390l-242 -328q-20 -25 -11 -42t40 -17h57q39 0 61 27l287 329q21 23 12 42.5t-41 19.5h-102q-36 0 -61 -31zM936 678q-22 12 -21.5 21.5t23.5 21.5q84 45 130 132t46 210q0 214 -124 322t-353 108h-408q-49 0 -49 -49v-1395q0 -49 49 -49h144q49 0 49 49v533
q0 49 49 49h100q123 0 192.5 -50t141.5 -198l135 -344q14 -39 58 -39h180q29 0 39 16.5t-4 42.5l-174 349q-106 208 -203 270zM453 1386h202q50 0 93 -9t85 -31.5t72 -58t48 -93t18 -131.5q0 -89 -98.5 -157t-217.5 -68h-202q-52 0 -52 49v450q0 49 52 49z" />
    <glyph glyph-name="racute" unicode="&#x155;" 
d="M864 2017l-241 -327q-20 -25 -11.5 -42.5t39.5 -17.5h58q39 0 61 27l287 330q20 23 11.5 42t-40.5 19h-102q-37 0 -62 -31zM1085 987l-2 84q0 47 -41 53q-16 2 -41 2q-146 0 -288 -88q-25 -17 -42.5 -8.5t-17.5 39.5q0 41 -49 41h-69q-50 0 -50 -51q9 -323 -3.5 -514
t-65.5 -490q-9 -55 45 -55h180q52 0 49 51l-37 508q0 393 293 393q59 0 84 -4q29 -5 42 3.5t13 35.5z" />
    <glyph glyph-name="Rcommaaccent" unicode="&#x156;" 
d="M936 678q-22 12 -21.5 21.5t23.5 21.5q84 45 130 132t46 210q0 214 -124 322t-353 108h-408q-49 0 -49 -49v-1395q0 -49 49 -49h144q49 0 49 49v533q0 49 49 49h100q123 0 192.5 -50t141.5 -198l135 -344q14 -39 58 -39h180q29 0 39 16.5t-4 42.5l-174 349
q-106 208 -203 270zM453 1386h202q50 0 93 -9t85 -31.5t72 -58t48 -93t18 -131.5q0 -89 -98.5 -157t-217.5 -68h-202q-52 0 -52 49v450q0 49 52 49zM668 -47v-131q0 -28 -9 -62l-75 -233q-8 -26 3.5 -41.5t39.5 -15.5h30q41 0 60 32l182 260q21 30 21 62v129q0 49 -52 49
h-149q-51 0 -51 -49z" />
    <glyph glyph-name="rcommaaccent" unicode="&#x157;" 
d="M1085 987l-2 84q0 47 -41 53q-16 2 -41 2q-146 0 -288 -88q-25 -17 -42.5 -8.5t-17.5 39.5q0 41 -49 41h-69q-50 0 -50 -51q9 -323 -3.5 -514t-65.5 -490q-9 -55 45 -55h180q52 0 49 51l-37 508q0 393 293 393q59 0 84 -4q29 -5 42 3.5t13 35.5zM418 -102v-131
q0 -31 -8 -62l-76 -233q-8 -26 3.5 -42t39.5 -16h31q39 0 59 33l182 260q21 30 21 62v129q0 49 -52 49h-149q-51 0 -51 -49z" />
    <glyph glyph-name="Rcaron" unicode="&#x158;" 
d="M637 1634h70q38 0 61 33l184 285q17 25 8 42t-38 17h-31q-37 0 -62 -31l-122 -165q-15 -23 -35 -23t-35 23l-121 165q-25 31 -61 31h-29q-31 0 -40.5 -17t5.5 -42l187 -285q20 -33 59 -33zM936 678q-22 12 -21.5 21.5t23.5 21.5q84 45 130 132t46 210q0 214 -124 322
t-353 108h-408q-49 0 -49 -49v-1395q0 -49 49 -49h144q49 0 49 49v533q0 49 49 49h100q123 0 192.5 -50t141.5 -198l135 -344q14 -39 58 -39h180q29 0 39 16.5t-4 42.5l-174 349q-106 208 -203 270zM453 1386h202q50 0 93 -9t85 -31.5t72 -58t48 -93t18 -131.5
q0 -89 -98.5 -157t-217.5 -68h-202q-52 0 -52 49v450q0 49 52 49z" />
    <glyph glyph-name="rcaron" unicode="&#x159;" 
d="M623 1262h69q40 0 62 32l184 285q17 25 7.5 42t-38.5 17h-30q-38 0 -62 -30l-123 -166q-15 -23 -34.5 -23t-34.5 23l-121 166q-24 30 -62 30h-28q-31 0 -40.5 -17t5.5 -42l186 -285q19 -32 60 -32zM1085 987l-2 84q0 47 -41 53q-16 2 -41 2q-146 0 -288 -88
q-25 -17 -42.5 -8.5t-17.5 39.5q0 41 -49 41h-69q-50 0 -50 -51q9 -323 -3.5 -514t-65.5 -490q-9 -55 45 -55h180q52 0 49 51l-37 508q0 393 293 393q59 0 84 -4q29 -5 42 3.5t13 35.5z" />
    <glyph glyph-name="Sacute" unicode="&#x15a;" 
d="M938 2390l-242 -328q-20 -25 -11 -42t40 -17h57q40 0 62 27l286 329q21 23 12.5 42.5t-40.5 19.5h-103q-36 0 -61 -31zM1186 1311v90q0 47 -41 55q-204 64 -395 64q-246 0 -386.5 -114t-140.5 -312q0 -170 102 -267t328 -141l123 -24q144 -29 216.5 -89.5t72.5 -126.5
q0 -73 -99 -136.5t-261 -63.5q-206 0 -414 106q-26 14 -44 4t-18 -39v-208q0 -43 43 -58q232 -80 433 -80q281 0 426 112t145 329q0 183 -107.5 291t-332.5 151l-123 25q-163 30 -224 80.5t-61 150.5q0 118 89.5 182t254.5 64q162 0 354 -82q26 -12 43 -1.5t17 38.5z" />
    <glyph glyph-name="sacute" unicode="&#x15b;" 
d="M940 2017l-242 -327q-20 -25 -11 -42.5t40 -17.5h57q40 0 62 27l287 330q20 23 11.5 42t-40.5 19h-103q-36 0 -61 -31zM1118 997v47q0 44 -41 58q-134 45 -317 45q-206 0 -318 -86t-112 -244q0 -128 74.5 -193.5t248.5 -101.5l64 -14q175 -41 194 -66q26 -31 41 -57
q19 -37 15 -63q-28 -117 -248 -117q-162 0 -338 78q-26 12 -42.5 2t-16.5 -39v-162q0 -43 43 -55q189 -58 350 -58q216 0 339.5 90.5t123.5 247.5q0 136 -82.5 208t-278.5 114l-63 14q-146 32 -201 73.5t-55 117.5q0 84 73.5 131t210.5 47q146 0 279 -53q26 -12 41.5 -2.5
t15.5 38.5z" />
    <glyph glyph-name="Scedilla" unicode="&#x15e;" 
d="M1276 412q0 -187 -109 -296.5t-321 -135.5l8 -9q84 -103 84 -186q0 -180 -238 -180q-68 0 -133 12q-43 12 -43 57v27q0 52 56 39q46 -12 100 -12q119 0 119 94q0 47 -47 117q-8 12 -13 32h-34q-201 0 -433 80q-43 15 -43 58v208q0 29 18 39t44 -4q208 -106 414 -106
q162 0 261 63.5t99 136.5q0 66 -72.5 126.5t-216.5 89.5l-123 24q-226 44 -328 141t-102 267q0 198 140.5 312t386.5 114q191 0 395 -64q41 -8 41 -55v-90q0 -28 -17 -38.5t-43 1.5q-192 82 -354 82q-165 0 -254.5 -64t-89.5 -182q0 -100 61 -150.5t224 -80.5l123 -25
q225 -43 332.5 -151t107.5 -291z" />
    <glyph glyph-name="scedilla" unicode="&#x15f;" 
d="M1178 309q0 -130 -87.5 -215.5t-244.5 -111.5l10 -11q84 -103 84 -186q0 -180 -238 -180q-68 0 -133 12q-43 12 -43 57v27q0 52 56 39q46 -12 100 -12q119 0 119 94q0 47 -47 117q-8 12 -13 32h-26q-161 0 -350 58q-43 12 -43 55v162q0 29 16.5 39t42.5 -2
q176 -78 338 -78q220 0 248 117q4 26 -15 63q-15 26 -41 57q-19 25 -194 66l-64 14q-174 36 -248.5 101.5t-74.5 193.5q0 158 112 244t318 86q183 0 317 -45q41 -14 41 -58v-47q0 -29 -15.5 -38.5t-41.5 2.5q-133 53 -279 53q-137 0 -210.5 -47t-73.5 -131q0 -76 55 -117.5
t201 -73.5l63 -14q196 -42 278.5 -114t82.5 -208z" />
    <glyph glyph-name="Scaron" unicode="&#x160;" 
d="M696 1634h70q38 0 61 33l185 285q17 25 7.5 42t-38.5 17h-31q-36 0 -61 -31l-123 -165q-15 -23 -35 -23t-35 23l-121 165q-25 31 -61 31h-29q-30 0 -39.5 -17t5.5 -42l186 -285q20 -33 59 -33zM1186 1311v90q0 47 -41 55q-204 64 -395 64q-246 0 -386.5 -114t-140.5 -312
q0 -170 102 -267t328 -141l123 -24q144 -29 216.5 -89.5t72.5 -126.5q0 -73 -99 -136.5t-261 -63.5q-206 0 -414 106q-26 14 -44 4t-18 -39v-208q0 -43 43 -58q232 -80 433 -80q281 0 426 112t145 329q0 183 -107.5 291t-332.5 151l-123 25q-163 30 -224 80.5t-61 150.5
q0 118 89.5 182t254.5 64q162 0 354 -82q26 -12 43 -1.5t17 38.5z" />
    <glyph glyph-name="scaron" unicode="&#x161;" 
d="M698 1262h70q39 0 61 32l185 285q17 25 7.5 42t-38.5 17h-31q-37 0 -61 -30l-123 -166q-15 -23 -35 -23t-35 23l-120 166q-24 30 -62 30h-29q-30 0 -39.5 -17t5.5 -42l186 -285q19 -32 59 -32zM1118 997v47q0 44 -41 58q-134 45 -317 45q-206 0 -318 -86t-112 -244
q0 -128 74.5 -193.5t248.5 -101.5l64 -14q175 -41 194 -66q26 -31 41 -57q19 -37 15 -63q-28 -117 -248 -117q-162 0 -338 78q-26 12 -42.5 2t-16.5 -39v-162q0 -43 43 -55q189 -58 350 -58q216 0 339.5 90.5t123.5 247.5q0 136 -82.5 208t-278.5 114l-63 14
q-146 32 -201 73.5t-55 117.5q0 84 73.5 131t210.5 47q146 0 279 -53q26 -12 41.5 -2.5t15.5 38.5z" />
    <glyph glyph-name="Tcedilla" unicode="&#x162;" 
d="M168 1493h1163q51 0 51 -49v-70q0 -52 -51 -49l-428 16q-49 0 -49 -51l45 -1239q3 -51 -47 -51h-41q38 0 61 -29q84 -103 84 -186q0 -180 -237 -180q-69 0 -133 12q-43 12 -43 57v27q0 52 55 39q46 -12 100 -12q119 0 119 94q0 47 -47 117q-10 18 -11.5 31.5t6 21.5
t23.5 8h-139q-49 0 -49 51l47 1239q0 51 -49 51l-428 -16q-51 -3 -51 49v70q0 49 49 49z" />
    <glyph glyph-name="tcedilla" unicode="&#x163;" 
d="M690 1399h-94q-51 0 -51 -49l-6 -181q-3 -49 -52 -49h-36q-50 0 -50 -51v-43q0 -49 43 -49h41q25 0 38 -13t12 -36l-27 -559q-10 -205 86 -287t317 -82h140q49 0 49 49v174q0 51 -49 51h-140q-61 0 -95 7.5t-57 31.5t-30.5 64.5t-7.5 111.5l8 439q3 49 51 49h160
q49 0 49 49v43q0 51 -49 51h-158q-52 0 -49 51l6 177q0 51 -49 51zM891 0h-23q-24 0 -28.5 -17.5t10.5 -43.5q47 -70 47 -117q0 -94 -119 -94q-54 0 -100 12q-55 13 -55 -39v-27q0 -45 43 -57q65 -12 133 -12q237 0 237 180q0 83 -84 186q-23 29 -61 29z" />
    <glyph glyph-name="Tcaron" unicode="&#x164;" 
d="M715 1634h69q39 0 62 33l184 285q17 25 7.5 42t-38.5 17h-30q-37 0 -62 -31l-123 -165q-15 -23 -34.5 -23t-34.5 23l-121 165q-25 31 -62 31h-28q-31 0 -40.5 -17t5.5 -42l186 -285q20 -33 60 -33zM119 1444v-70q0 -52 51 -49l428 16q49 0 49 -51l-47 -1239q0 -51 49 -51
h203q50 0 47 51l-45 1239q0 51 49 51l428 -16q51 -3 51 49v70q0 49 -51 49h-1163q-49 0 -49 -49z" />
    <glyph glyph-name="tcaron" unicode="&#x165;" 
d="M1182 1712v-104q0 -31 -8 -62l-76 -299q-7 -26 4.5 -41.5t38.5 -15.5h57q41 0 59 37l166 321q15 30 15 62v102q0 49 -49 49h-156q-51 0 -51 -49zM690 1399h-94q-51 0 -51 -49l-6 -181q-3 -49 -52 -49h-36q-50 0 -50 -51v-43q0 -49 43 -49h41q25 0 38 -13t12 -36l-27 -559
q-10 -205 86 -287t317 -82h140q49 0 49 49v174q0 51 -49 51h-140q-61 0 -95 7.5t-57 31.5t-30.5 64.5t-7.5 111.5l8 439q3 49 51 49h160q49 0 49 49v43q0 51 -49 51h-158q-52 0 -49 51l6 177q0 51 -49 51z" />
    <glyph glyph-name="Tbar" unicode="&#x166;" 
d="M451 2138v-49q0 -49 51 -49h497q50 0 50 49v49q0 49 -50 49h-497q-51 0 -51 -49zM119 1444v-70q0 -52 51 -49l428 16q49 0 49 -51l-47 -1239q0 -51 49 -51h203q50 0 47 51l-45 1239q0 51 49 51l428 -16q51 -3 51 49v70q0 49 -51 49h-1163q-49 0 -49 -49z" />
    <glyph glyph-name="tbar" unicode="&#x167;" 
d="M451 1692v-50q0 -49 51 -49h497q50 0 50 49v50q0 49 -50 49h-497q-51 0 -51 -49zM690 1399h-94q-51 0 -51 -49l-6 -181q-3 -49 -52 -49h-36q-50 0 -50 -51v-43q0 -49 43 -49h41q25 0 38 -13t12 -36l-27 -559q-10 -205 86 -287t317 -82h140q49 0 49 49v174q0 51 -49 51
h-140q-61 0 -95 7.5t-57 31.5t-30.5 64.5t-7.5 111.5l8 439q3 49 51 49h160q49 0 49 49v43q0 51 -49 51h-158q-52 0 -49 51l6 177q0 51 -49 51z" />
    <glyph glyph-name="Utilde" unicode="&#x168;" 
d="M688 2099l57 -55q68 -62 140 -62q82 0 131.5 60t60.5 170q3 53 -49 53h-24q-46 0 -52 -49q-5 -42 -16 -70q-18 -37 -57 -37q-26 0 -68 39l-57 56q-66 61 -140 61q-82 0 -130.5 -59t-59.5 -170q-6 -54 47 -54h25q47 0 53 50q3 42 16 69q18 37 56 37q25 0 67 -39zM168 1444
l10 -883q3 -292 147.5 -441t426.5 -149q281 0 424.5 149t146.5 441l8 883q0 49 -49 49h-113q-49 0 -49 -51l8 -717q3 -237 -88.5 -344t-287.5 -107q-197 0 -289.5 107t-89.5 344l8 717q0 51 -49 51h-115q-49 0 -49 -49z" />
    <glyph glyph-name="utilde" unicode="&#x169;" 
d="M696 1726l58 -55q66 -61 139 -61q82 0 132 59.5t60 169.5q3 53 -49 53h-24q-45 0 -51 -49q-5 -36 -17 -69q-18 -37 -57 -37q-26 0 -68 39l-57 55q-66 61 -139 61q-82 0 -131 -59.5t-60 -169.5q-6 -53 47 -53h25q47 0 53 49q3 44 16 70q17 36 56 36q25 0 67 -39zM276 1069
v-627q0 -232 100 -351.5t294 -119.5q182 0 301 125q25 26 40 21t13 -39v-27q-3 -51 47 -51l76 2q48 3 51 51l19 1020q0 25 -13.5 38t-36.5 11l-98 -2q-48 -3 -51 -49l-19 -426q-9 -167 -91.5 -260.5t-229.5 -93.5q-122 0 -180.5 77.5t-67.5 239.5v461q0 51 -49 51h-55
q-50 0 -50 -51z" />
    <glyph glyph-name="Umacron" unicode="&#x16a;" 
d="M451 2138v-49q0 -49 51 -49h497q50 0 50 49v49q0 49 -50 49h-497q-51 0 -51 -49zM168 1444l10 -883q3 -292 147.5 -441t426.5 -149q281 0 424.5 149t146.5 441l8 883q0 49 -49 49h-113q-49 0 -49 -51l8 -717q3 -237 -88.5 -344t-287.5 -107q-197 0 -289.5 107t-89.5 344
l8 717q0 51 -49 51h-115q-49 0 -49 -49z" />
    <glyph glyph-name="umacron" unicode="&#x16b;" 
d="M459 1765v-49q0 -49 51 -49h498q49 0 49 49v49q0 50 -49 50h-498q-51 0 -51 -50zM276 1069v-627q0 -232 100 -351.5t294 -119.5q182 0 301 125q25 26 40 21t13 -39v-27q-3 -51 47 -51l76 2q48 3 51 51l19 1020q0 25 -13.5 38t-36.5 11l-98 -2q-48 -3 -51 -49l-19 -426
q-9 -167 -91.5 -260.5t-229.5 -93.5q-122 0 -180.5 77.5t-67.5 239.5v461q0 51 -49 51h-55q-50 0 -50 -51z" />
    <glyph glyph-name="Uring" unicode="&#x16e;" 
d="M1024 1896q0 116 -79.5 195.5t-194.5 79.5q-114 0 -194.5 -80t-80.5 -195t80.5 -194.5t194.5 -79.5q116 0 195 79t79 195zM901 1896q0 -63 -43.5 -107t-107.5 -44q-65 0 -108.5 43.5t-43.5 107.5t44 108t108 44t107.5 -44.5t43.5 -107.5zM168 1444l10 -883
q3 -292 147.5 -441t426.5 -149q281 0 424.5 149t146.5 441l8 883q0 49 -49 49h-113q-49 0 -49 -51l8 -717q3 -237 -88.5 -344t-287.5 -107q-197 0 -289.5 107t-89.5 344l8 717q0 51 -49 51h-115q-49 0 -49 -49z" />
    <glyph glyph-name="uring" unicode="&#x16f;" 
d="M1032 1524q0 116 -79 195t-195 79q-114 0 -194.5 -79.5t-80.5 -194.5t80.5 -195t194.5 -80q115 0 194.5 79.5t79.5 195.5zM909 1524q0 -63 -43.5 -107.5t-107.5 -44.5t-108 44t-44 108t43.5 107.5t108.5 43.5q64 0 107.5 -44t43.5 -107zM276 1069v-627q0 -232 100 -351.5
t294 -119.5q182 0 301 125q25 26 40 21t13 -39v-27q-3 -51 47 -51l76 2q48 3 51 51l19 1020q0 25 -13.5 38t-36.5 11l-98 -2q-48 -3 -51 -49l-19 -426q-9 -167 -91.5 -260.5t-229.5 -93.5q-122 0 -180.5 77.5t-67.5 239.5v461q0 51 -49 51h-55q-50 0 -50 -51z" />
    <glyph glyph-name="Uhungarumlaut" unicode="&#x170;" 
d="M569 1974l-141 -280q-14 -26 -4 -43t41 -17h31q39 0 59 35l166 283q17 25 7 42t-40 17h-59q-42 0 -60 -37zM903 1976l-153 -280q-14 -28 -4.5 -45t38.5 -17h29q39 0 59 33l189 285q17 25 7 42t-40 17h-65q-42 0 -60 -35zM168 1444l10 -883q3 -292 147.5 -441t426.5 -149
q281 0 424.5 149t146.5 441l8 883q0 49 -49 49h-113q-49 0 -49 -51l8 -717q3 -237 -88.5 -344t-287.5 -107q-197 0 -289.5 107t-89.5 344l8 717q0 51 -49 51h-115q-49 0 -49 -49z" />
    <glyph glyph-name="uhungarumlaut" unicode="&#x171;" 
d="M578 1602l-142 -281q-14 -26 -4 -42.5t41 -16.5h31q40 0 59 34l166 283q17 25 7 42t-40 17h-59q-42 0 -59 -36zM911 1604l-153 -281q-13 -28 -3.5 -44.5t38.5 -16.5h28q41 0 60 32l188 285q17 25 7 42t-40 17h-65q-42 0 -60 -34zM276 1069v-627q0 -232 100 -351.5
t294 -119.5q182 0 301 125q25 26 40 21t13 -39v-27q-3 -51 47 -51l76 2q48 3 51 51l19 1020q0 25 -13.5 38t-36.5 11l-98 -2q-48 -3 -51 -49l-19 -426q-9 -167 -91.5 -260.5t-229.5 -93.5q-122 0 -180.5 77.5t-67.5 239.5v461q0 51 -49 51h-55q-50 0 -50 -51z" />
    <glyph glyph-name="Uogonek" unicode="&#x172;" 
d="M1169 1493h113q49 0 49 -49l-8 -883q-3 -279 -133.5 -427.5t-386.5 -160.5q0 -19 -10 -34q-48 -76 -48 -119q0 -92 109 -92q32 0 70 10q57 13 57 -39v-29q0 -46 -45 -55q-55 -10 -92 -10q-122 0 -180 43.5t-58 136.5q0 79 84 186l2 2q-508 30 -514 588l-10 883
q0 49 49 49h115q49 0 49 -51l-8 -717q-3 -237 89.5 -344t289.5 -107q196 0 287.5 107t88.5 344l-8 717q0 51 49 51z" />
    <glyph glyph-name="uogonek" unicode="&#x173;" 
d="M1274 -252q57 13 57 -39v-28q0 -47 -45 -56q-55 -10 -92 -10q-122 0 -180 43.5t-58 136.5q0 80 84 187q6 8 21 18q-40 6 -37 51v27q2 34 -13 39t-40 -21q-119 -125 -301 -125q-194 0 -294 119.5t-100 351.5v627q0 51 50 51h55q49 0 49 -51v-461q9 -162 67.5 -239.5
t180.5 -77.5q147 0 229.5 93.5t91.5 260.5l19 426q3 46 51 49l98 2q23 2 36.5 -11t13.5 -38l-19 -1020q-3 -48 -51 -51h-4q22 -16 0 -53q-47 -74 -47 -119q0 -92 108 -92q32 0 70 10z" />
    <glyph glyph-name="Wcircumflex" unicode="&#x174;" 
d="M559 1599l146 197q15 23 34.5 23t34.5 -23l146 -197h139l-246 377h-147l-246 -377h139zM100 1438l84 -1393q3 -45 56 -45h227q43 0 59 37l187 397q10 22 21 30t22 0t20 -30l178 -395q17 -39 58 -39h209q49 0 55 43l133 1395q3 55 -45 55h-94q-52 0 -58 -43l-102 -961
q-3 -34 -27 -35t-39 31l-198 422q-17 35 -60 35h-96q-42 0 -59 -35l-221 -415q-12 -21 -28 -27.5t-27.5 3t-12.5 30.5l-47 952q0 21 -16 32t-39 11h-95q-48 0 -45 -55z" />
    <glyph glyph-name="wcircumflex" unicode="&#x175;" 
d="M571 1227l146 196q15 23 34.5 23t34.5 -23l146 -196h139l-246 377h-147l-246 -377h139zM121 1065l180 -1022q6 -43 55 -43h162q42 0 57 37l142 319q9 21 21 28.5t24 0t20 -28.5l133 -317q14 -39 58 -39h172q46 0 55 43l178 1022q9 55 -43 55h-82q-49 0 -55 -43l-104 -655
q-3 -21 -14.5 -29.5t-26 -2t-25.5 25.5l-149 260q-21 35 -60 35h-147q-43 0 -60 -35l-139 -260q-15 -31 -37 -28.5t-28 34.5l-107 655q-6 43 -55 43h-82q-52 0 -43 -55z" />
    <glyph glyph-name="Ycircumflex" unicode="&#x176;" 
d="M569 1599l146 197q15 23 34.5 23t34.5 -23l146 -197h139l-246 377h-147l-246 -377h139zM150 1434l444 -893q14 -32 14 -64v-428q0 -49 51 -49h172q52 0 52 49v428q0 32 14 64l453 893q14 26 4 42.5t-39 16.5h-113q-40 0 -57 -35l-359 -665q-14 -26 -33.5 -26t-33.5 26
l-363 665q-17 35 -57 35h-113q-29 0 -38.5 -16.5t2.5 -42.5z" />
    <glyph glyph-name="ycircumflex" unicode="&#x177;" 
d="M479 1227l146 196q15 23 34.5 23t34.5 -23l146 -196h139l-246 377h-147l-246 -377h139zM821 -104l451 1167q9 26 -2 41.5t-39 15.5h-92q-40 0 -58 -37l-256 -548q-14 -28 -33 -29.5t-36 24.5l-338 555q-20 35 -60 35h-90q-29 0 -40 -16.5t1 -42.5l437 -934q16 -34 0 -68
l-50 -98q-14 -28 -32 -51q-3 -4 -23 -29.5t-28 -35t-28.5 -34t-32.5 -36t-32.5 -29.5t-35.5 -26.5t-33.5 -15.5t-34.5 -7h-78q-49 0 -49 -49v-146q0 -49 49 -49h117q248 0 446 443z" />
    <glyph glyph-name="Ydieresis" unicode="&#x178;" 
d="M430 1890v-116q0 -52 49 -52h119q49 0 49 52v116q0 49 -49 49h-119q-49 0 -49 -49zM850 1890v-116q0 -52 49 -52h119q49 0 49 52v116q0 49 -49 49h-119q-49 0 -49 -49zM150 1434l444 -893q14 -32 14 -64v-428q0 -49 51 -49h172q52 0 52 49v428q0 32 14 64l453 893
q14 26 4 42.5t-39 16.5h-113q-40 0 -57 -35l-359 -665q-14 -26 -33.5 -26t-33.5 26l-363 665q-17 35 -57 35h-113q-29 0 -38.5 -16.5t2.5 -42.5z" />
    <glyph glyph-name="Zacute" unicode="&#x179;" 
d="M967 2390l-242 -328q-20 -25 -11 -42t40 -17h57q39 0 61 27l287 329q21 23 12 42.5t-41 19.5h-102q-36 0 -61 -31zM129 1444v-72q0 -49 49 -49h789q34 0 41.5 -18t-15.5 -43l-843 -953q-25 -28 -25 -61v-199q0 -49 49 -49h1131q51 0 51 49v201q0 49 -51 49h-844
q-32 0 -40.5 19t13.5 42l844 953q25 28 25 61v70q0 49 -52 49h-1073q-49 0 -49 -49z" />
    <glyph glyph-name="zacute" unicode="&#x17a;" 
d="M1004 2017l-242 -327q-20 -25 -11 -42.5t40 -17.5h57q39 0 61 27l287 330q20 23 11.5 42t-40.5 19h-102q-36 0 -61 -31zM342 1069v-37q0 -49 49 -49h531q34 0 41.5 -19t-17.5 -42l-645 -629q-25 -28 -25 -62v-182q0 -49 50 -49h850q49 0 49 49v148q0 51 -49 51h-539
q-34 0 -42.5 18t13.5 41l574 619q22 25 22 61v82q0 51 -49 51h-764q-49 0 -49 -51z" />
    <glyph glyph-name="Zdotaccent" unicode="&#x17b;" 
d="M657 1874v-102q0 -52 52 -52h104q49 0 49 52v102q0 51 -49 51h-104q-52 0 -52 -51zM129 1444v-72q0 -49 49 -49h789q34 0 41.5 -18t-15.5 -43l-843 -953q-25 -28 -25 -61v-199q0 -49 49 -49h1131q51 0 51 49v201q0 49 -51 49h-844q-32 0 -40.5 19t13.5 42l844 953
q25 28 25 61v70q0 49 -52 49h-1073q-49 0 -49 -49z" />
    <glyph glyph-name="zdotaccent" unicode="&#x17c;" 
d="M694 1501v-102q0 -51 51 -51h105q49 0 49 51v102q0 51 -49 51h-105q-51 0 -51 -51zM342 1069v-37q0 -49 49 -49h531q34 0 41.5 -19t-17.5 -42l-645 -629q-25 -28 -25 -62v-182q0 -49 50 -49h850q49 0 49 49v148q0 51 -49 51h-539q-34 0 -42.5 18t13.5 41l574 619
q22 25 22 61v82q0 51 -49 51h-764q-49 0 -49 -51z" />
    <glyph glyph-name="Zcaron" unicode="&#x17d;" 
d="M725 1634h70q38 0 61 33l184 285q17 25 8 42t-38 17h-31q-36 0 -61 -31l-123 -165q-15 -23 -35 -23t-35 23l-121 165q-25 31 -61 31h-29q-31 0 -40.5 -17t5.5 -42l187 -285q20 -33 59 -33zM129 1444v-72q0 -49 49 -49h789q34 0 41.5 -18t-15.5 -43l-843 -953
q-25 -28 -25 -61v-199q0 -49 49 -49h1131q51 0 51 49v201q0 49 -51 49h-844q-32 0 -40.5 19t13.5 42l844 953q25 28 25 61v70q0 49 -52 49h-1073q-49 0 -49 -49z" />
    <glyph glyph-name="zcaron" unicode="&#x17e;" 
d="M762 1262h69q40 0 62 32l184 285q17 25 8 42t-38 17h-31q-38 0 -62 -30l-123 -166q-15 -23 -34.5 -23t-34.5 23l-121 166q-24 30 -61 30h-29q-31 0 -40.5 -17t5.5 -42l186 -285q19 -32 60 -32zM342 1069v-37q0 -49 49 -49h531q34 0 41.5 -19t-17.5 -42l-645 -629
q-25 -28 -25 -62v-182q0 -49 50 -49h850q49 0 49 49v148q0 51 -49 51h-539q-34 0 -42.5 18t13.5 41l574 619q22 25 22 61v82q0 51 -49 51h-764q-49 0 -49 -51z" />
    <glyph glyph-name="florin" unicode="&#x192;" 
d="M1372 1444v33q0 46 -41 57q-77 22 -157 22q-151 0 -251 -97.5t-135 -280.5l-55 -287q-9 -42 -51 -45l-188 -15q-48 -3 -48 -51v-43q0 -52 52 -49l141 12q53 3 47 -51l-70 -479q-34 -166 -88 -234.5t-151 -68.5q-71 0 -144 37q-25 12 -42 4t-21 -35l-41 -211
q-6 -48 35 -61q74 -27 162 -27q57 0 89.5 2t79 10t73.5 25.5t62.5 47.5t58.5 78t48 114.5t44.5 158.5t35.5 209l62 440q6 47 51 50l223 14q49 3 49 49v43q0 52 -51 49l-178 -12q-26 -2 -38.5 11.5t-8.5 39.5l49 277q25 132 81.5 193t153.5 61q51 0 105 -23q57 -26 57 33z
" />
    <glyph glyph-name="Ohorn" unicode="&#x1a0;" 
d="M1479 1401q45 -6 51 -47v-25q0 -68 -20 -131.5t-64 -101.5q-31 -28 -53 -45q-23 -17 -43 -7q41 -134 41 -299q0 -351 -176.5 -562.5t-462.5 -211.5q-288 0 -465.5 211t-177.5 563q0 351 177.5 563t465.5 212q197 0 345.5 -103.5t223.5 -290.5q15 15 25 19q7 4 17.5 9.5
t18.5 10.5t15 11t12.5 14t9.5 16t7 18.5t5 18.5t3.5 20.5t2 19t1 19t0.5 17v15.5v12q0 14 -4 30q-5 15 7 21.5t38 3.5zM752 354q79 0 141.5 11t117 38t90.5 70.5t56.5 112t20.5 159.5q0 280 -117.5 445.5t-308.5 165.5q-193 0 -311.5 -165.5t-118.5 -445.5q0 -113 30.5 -191
t90 -121t134 -61t175.5 -18z" />
    <glyph glyph-name="ohorn" unicode="&#x1a1;" 
d="M1305 1036v-24q0 -144 -72 -221q31 -109 31 -232q0 -275 -137 -431.5t-377 -156.5q-241 0 -377.5 156.5t-136.5 431.5q0 277 136 432.5t378 155.5q154 0 267 -66t177 -190q18 41 18 137q0 15 -4 31q-4 15 7.5 21t37.5 3q46 -6 52 -47zM750 289q81 0 134 11t98 42.5t66 93
t21 156.5q0 193 -86 306.5t-233 113.5q-148 0 -234 -112.5t-86 -307.5q0 -77 15 -132t40 -88t67 -51.5t87.5 -25t110.5 -6.5z" />
    <glyph glyph-name="Uhorn" unicode="&#x1af;" 
d="M1446 1538q45 -6 51 -47v-25q0 -68 -20 -131.5t-64 -101.5q-31 -28 -53 -45q-14 -11 -31 -8l-6 -619q-3 -292 -146.5 -441t-424.5 -149q-282 0 -426.5 149t-147.5 441l-10 883q0 49 49 49h115q49 0 49 -51l-8 -717q-3 -237 89.5 -344t289.5 -107q196 0 287.5 107
t88.5 344l-8 717q0 51 49 51h113q49 0 49 -49l-2 -152q25 12 35 21q7 6 12.5 14t9.5 16t7 18.5t5 18.5t3.5 20.5t2 19t1 19t0.5 17v15.5v12q0 14 -4 30q-5 15 7 21.5t38 3.5z" />
    <glyph glyph-name="uhorn" unicode="&#x1b0;" 
d="M1348 1194q45 -6 51 -47v-25q0 -68 -20 -131.5t-64 -101.5q-31 -28 -53 -45q-27 -18 -50 -2l-14 -789q-3 -48 -51 -51l-76 -2q-50 0 -47 51v27q2 34 -13 39t-40 -21q-119 -125 -301 -125q-194 0 -294 119.5t-100 351.5v627q0 51 50 51h55q49 0 49 -51v-461
q9 -162 67.5 -239.5t180.5 -77.5q147 0 229.5 93.5t91.5 260.5l19 426q3 46 51 49l98 2q23 2 36.5 -11t13.5 -38l-3 -135q3 2 23 12.5t29 18.5q7 6 12.5 14t9.5 16t7 18.5t5 18.5t3.5 20.5t2 19t1 19t0.5 17v15.5v12q0 14 -4 30q-5 15 7 21.5t38 3.5z" />
    <glyph glyph-name="Acaron" unicode="&#x1cd;" 
d="M727 1536h70q38 0 61 33l184 284q17 25 8 42.5t-38 17.5h-31q-36 0 -61 -31l-123 -166q-15 -23 -35 -23t-35 23l-121 166q-25 31 -61 31h-29q-30 0 -40 -17.5t5 -42.5l187 -284q20 -33 59 -33zM641 1454l-553 -1397q-9 -27 1.5 -42t39.5 -15h168q41 0 55 41l49 162
q15 41 58 41h583q47 0 56 -45l37 -156q9 -43 55 -43h182q28 0 38.5 15.5t0.5 41.5l-551 1397q-14 39 -57 39h-105q-43 0 -57 -39zM782 1212l224 -673q9 -26 -2 -42t-39 -16h-428q-28 0 -39 16t-2 42l223 673q7 22 19 30t24.5 0t19.5 -30z" />
    <glyph glyph-name="acaron" unicode="&#x1ce;" 
d="M684 1294l-186 285q-15 25 -5.5 42t39.5 17h29q38 0 62 -30l120 -166q15 -23 35 -23t35 23l123 166q24 30 61 30h31q29 0 38.5 -17t-7.5 -42l-185 -285q-22 -32 -61 -32h-70q-40 0 -59 32zM739 1147q244 0 364 -125.5t120 -382.5v-590q0 -49 -49 -49h-84q-52 0 -52 49v23
q0 34 -15 39.5t-40 -19.5q-121 -121 -332 -121q-170 0 -272.5 97t-102.5 258q0 189 127 285t377 96h209q49 0 49 18q0 130 -79 203.5t-238 83.5q-156 0 -303 -64q-26 -12 -43 -2.5t-17 37.5v43q0 42 41 57q177 64 340 64zM680 252q73 0 117 9.5t77.5 39t47 83t14.5 140.5
q0 47 -49 47h-117q-184 0 -257 -37.5t-81 -127.5q-3 -33 6 -60q21 -59 78 -76.5t164 -17.5z" />
    <glyph glyph-name="Icaron" unicode="&#x1cf;" 
d="M725 1634h70q38 0 61 33l184 285q17 25 8 42t-38 17h-31q-36 0 -61 -31l-123 -165q-15 -23 -35 -23t-35 23l-121 165q-25 31 -61 31h-29q-31 0 -40.5 -17t5.5 -42l187 -285q20 -33 59 -33zM633 51q-3 -51 49 -51h137q52 0 49 51q-10 209 -15 422t-7.5 547t-3.5 424
q0 49 -51 49h-72q-48 0 -51 -49q-1 -85 -5 -335.5t-6.5 -374t-8.5 -321.5t-15 -362z" />
    <glyph glyph-name="icaron" unicode="&#x1d0;" 
d="M688 1262h70q39 0 61 32l185 285q17 25 7.5 42t-38.5 17h-31q-37 0 -61 -30l-123 -166q-15 -23 -35 -23t-35 23l-121 166q-24 30 -61 30h-29q-31 0 -40.5 -17t5.5 -42l187 -285q19 -32 59 -32zM637 51q-3 -51 49 -51h129q53 0 47 53q-50 525 -37 1016q3 51 -49 51h-61
q-51 0 -51 -45q7 -542 -27 -1024z" />
    <glyph glyph-name="Ocaron" unicode="&#x1d1;" 
d="M715 1634h69q39 0 62 33l184 285q17 25 7.5 42t-38.5 17h-30q-37 0 -62 -31l-123 -165q-15 -23 -34.5 -23t-34.5 23l-121 165q-25 31 -62 31h-28q-31 0 -40.5 -17t5.5 -42l186 -285q20 -33 60 -33zM752 1520q-288 0 -465.5 -212t-177.5 -563q0 -352 177.5 -563
t465.5 -211q286 0 462.5 211.5t176.5 562.5t-176.5 563t-462.5 212zM752 1356q191 0 308.5 -165.5t117.5 -445.5q0 -91 -20.5 -159.5t-56.5 -112t-90.5 -70.5t-117 -38t-141.5 -11q-101 0 -175.5 18t-134 61t-90 121t-30.5 191q0 280 118.5 445.5t311.5 165.5z" />
    <glyph glyph-name="ocaron" unicode="&#x1d2;" 
d="M655 1262h70q39 0 61 32l185 285q17 25 7.5 42t-38.5 17h-31q-37 0 -61 -30l-123 -166q-15 -23 -35 -23t-35 23l-120 166q-24 30 -62 30h-29q-30 0 -39.5 -17t5.5 -42l186 -285q19 -32 59 -32zM750 1147q-242 0 -378 -155.5t-136 -432.5q0 -275 136.5 -431.5
t377.5 -156.5q240 0 377 156.5t137 431.5q0 276 -137 432t-377 156zM750 1012q147 0 233 -113.5t86 -306.5q0 -95 -21 -156.5t-66 -93t-98 -42.5t-134 -11q-65 0 -110.5 6.5t-87.5 25t-67 51.5t-40 88t-15 132q0 195 86 307.5t234 112.5z" />
    <glyph glyph-name="Ucaron" unicode="&#x1d3;" 
d="M715 1634h69q39 0 62 33l184 285q17 25 7.5 42t-38.5 17h-30q-37 0 -62 -31l-123 -165q-15 -23 -34.5 -23t-34.5 23l-121 165q-25 31 -62 31h-28q-31 0 -40.5 -17t5.5 -42l186 -285q20 -33 60 -33zM168 1444l10 -883q3 -292 147.5 -441t426.5 -149q281 0 424.5 149
t146.5 441l8 883q0 49 -49 49h-113q-49 0 -49 -51l8 -717q3 -237 -88.5 -344t-287.5 -107q-197 0 -289.5 107t-89.5 344l8 717q0 51 -49 51h-115q-49 0 -49 -49z" />
    <glyph glyph-name="ucaron" unicode="&#x1d4;" 
d="M723 1262h70q39 0 61 32l184 285q17 25 8 42t-38 17h-31q-38 0 -62 -30l-122 -166q-15 -23 -35 -23t-35 23l-121 166q-24 30 -61 30h-29q-31 0 -40.5 -17t5.5 -42l187 -285q19 -32 59 -32zM276 1069v-627q0 -232 100 -351.5t294 -119.5q182 0 301 125q25 26 40 21t13 -39
v-27q-3 -51 47 -51l76 2q48 3 51 51l19 1020q0 25 -13.5 38t-36.5 11l-98 -2q-48 -3 -51 -49l-19 -426q-9 -167 -91.5 -260.5t-229.5 -93.5q-122 0 -180.5 77.5t-67.5 239.5v461q0 51 -49 51h-55q-50 0 -50 -51z" />
    <glyph glyph-name="Udieresismacron" unicode="&#x1d5;" 
d="M451 2138v-49q0 -49 51 -49h497q50 0 50 49v49q0 49 -50 49h-497q-51 0 -51 -49zM430 1890v-116q0 -52 49 -52h119q49 0 49 52v116q0 49 -49 49h-119q-49 0 -49 -49zM850 1890v-116q0 -52 49 -52h119q49 0 49 52v116q0 49 -49 49h-119q-49 0 -49 -49zM168 1444l10 -883
q3 -292 147.5 -441t426.5 -149q281 0 424.5 149t146.5 441l8 883q0 49 -49 49h-113q-49 0 -49 -51l8 -717q3 -237 -88.5 -344t-287.5 -107q-197 0 -289.5 107t-89.5 344l8 717q0 51 -49 51h-115q-49 0 -49 -49z" />
    <glyph glyph-name="udieresismacron" unicode="&#x1d6;" 
d="M459 1765v-49q0 -49 51 -49h498q49 0 49 49v49q0 50 -49 50h-498q-51 0 -51 -50zM438 1518v-117q0 -51 49 -51h119q49 0 49 51v117q0 49 -49 49h-119q-49 0 -49 -49zM858 1518v-117q0 -51 49 -51h119q49 0 49 51v117q0 49 -49 49h-119q-49 0 -49 -49zM276 1069v-627
q0 -232 100 -351.5t294 -119.5q182 0 301 125q25 26 40 21t13 -39v-27q-3 -51 47 -51l76 2q48 3 51 51l19 1020q0 25 -13.5 38t-36.5 11l-98 -2q-48 -3 -51 -49l-19 -426q-9 -167 -91.5 -260.5t-229.5 -93.5q-122 0 -180.5 77.5t-67.5 239.5v461q0 51 -49 51h-55
q-50 0 -50 -51z" />
    <glyph glyph-name="Udieresisacute" unicode="&#x1d7;" 
d="M956 2390l-241 -328q-20 -25 -11.5 -42t39.5 -17h58q39 0 61 27l287 329q21 23 12 42.5t-41 19.5h-102q-37 0 -62 -31zM430 1890v-116q0 -52 49 -52h119q49 0 49 52v116q0 49 -49 49h-119q-49 0 -49 -49zM850 1890v-116q0 -52 49 -52h119q49 0 49 52v116q0 49 -49 49
h-119q-49 0 -49 -49zM168 1444l10 -883q3 -292 147.5 -441t426.5 -149q281 0 424.5 149t146.5 441l8 883q0 49 -49 49h-113q-49 0 -49 -51l8 -717q3 -237 -88.5 -344t-287.5 -107q-197 0 -289.5 107t-89.5 344l8 717q0 51 -49 51h-115q-49 0 -49 -49z" />
    <glyph glyph-name="udieresisacute" unicode="&#x1d8;" 
d="M965 2017l-242 -327q-20 -25 -11 -42.5t40 -17.5h57q39 0 61 27l287 330q20 23 11.5 42t-40.5 19h-102q-36 0 -61 -31zM438 1518v-117q0 -51 49 -51h119q49 0 49 51v117q0 49 -49 49h-119q-49 0 -49 -49zM858 1518v-117q0 -51 49 -51h119q49 0 49 51v117q0 49 -49 49
h-119q-49 0 -49 -49zM276 1069v-627q0 -232 100 -351.5t294 -119.5q182 0 301 125q25 26 40 21t13 -39v-27q-3 -51 47 -51l76 2q48 3 51 51l19 1020q0 25 -13.5 38t-36.5 11l-98 -2q-48 -3 -51 -49l-19 -426q-9 -167 -91.5 -260.5t-229.5 -93.5q-122 0 -180.5 77.5
t-67.5 239.5v461q0 51 -49 51h-55q-50 0 -50 -51z" />
    <glyph glyph-name="Udieresiscaron" unicode="&#x1d9;" 
d="M715 1985h69q40 0 62 32l184 285q17 25 7.5 42t-38.5 17h-30q-38 0 -62 -30l-123 -166q-15 -23 -34.5 -23t-34.5 23l-121 166q-24 30 -62 30h-28q-31 0 -40.5 -17t5.5 -42l186 -285q19 -32 60 -32zM432 1890v-116q0 -52 49 -52h119q49 0 49 52v116q0 49 -49 49h-119
q-49 0 -49 -49zM852 1890v-116q0 -52 49 -52h119q49 0 49 52v116q0 49 -49 49h-119q-49 0 -49 -49zM168 1444l10 -883q3 -292 147.5 -441t426.5 -149q281 0 424.5 149t146.5 441l8 883q0 49 -49 49h-113q-49 0 -49 -51l8 -717q3 -237 -88.5 -344t-287.5 -107
q-197 0 -289.5 107t-89.5 344l8 717q0 51 -49 51h-115q-49 0 -49 -49z" />
    <glyph glyph-name="udieresiscaron" unicode="&#x1da;" 
d="M721 1688h70q39 0 61 32l184 285q17 25 8 42t-38 17h-31q-38 0 -62 -30l-122 -166q-15 -23 -35 -23t-35 23l-121 166q-24 30 -61 30h-29q-31 0 -40.5 -17t5.5 -42l187 -285q19 -32 59 -32zM438 1518v-117q0 -51 49 -51h119q49 0 49 51v117q0 49 -49 49h-119
q-49 0 -49 -49zM858 1518v-117q0 -51 49 -51h119q49 0 49 51v117q0 49 -49 49h-119q-49 0 -49 -49zM276 1069v-627q0 -232 100 -351.5t294 -119.5q182 0 301 125q25 26 40 21t13 -39v-27q-3 -51 47 -51l76 2q48 3 51 51l19 1020q0 25 -13.5 38t-36.5 11l-98 -2
q-48 -3 -51 -49l-19 -426q-9 -167 -91.5 -260.5t-229.5 -93.5q-122 0 -180.5 77.5t-67.5 239.5v461q0 51 -49 51h-55q-50 0 -50 -51z" />
    <glyph glyph-name="Udieresisgrave" unicode="&#x1db;" 
d="M578 2396h-91q-29 0 -39 -16.5t5 -42.5l153 -281q18 -35 60 -35h155q32 0 41 18t-10 44l-213 282q-25 31 -61 31zM430 1890v-116q0 -52 49 -52h119q49 0 49 52v116q0 49 -49 49h-119q-49 0 -49 -49zM850 1890v-116q0 -52 49 -52h119q49 0 49 52v116q0 49 -49 49h-119
q-49 0 -49 -49zM168 1444l10 -883q3 -292 147.5 -441t426.5 -149q281 0 424.5 149t146.5 441l8 883q0 49 -49 49h-113q-49 0 -49 -51l8 -717q3 -237 -88.5 -344t-287.5 -107q-197 0 -289.5 107t-89.5 344l8 717q0 51 -49 51h-115q-49 0 -49 -49z" />
    <glyph glyph-name="udieresisgrave" unicode="&#x1dc;" 
d="M586 2023h-90q-30 0 -40 -16.5t5 -42.5l153 -281q18 -34 60 -34h155q32 0 41 17.5t-10 43.5l-213 283q-24 30 -61 30zM438 1518v-117q0 -51 49 -51h119q49 0 49 51v117q0 49 -49 49h-119q-49 0 -49 -49zM858 1518v-117q0 -51 49 -51h119q49 0 49 51v117q0 49 -49 49h-119
q-49 0 -49 -49zM276 1069v-627q0 -232 100 -351.5t294 -119.5q182 0 301 125q25 26 40 21t13 -39v-27q-3 -51 47 -51l76 2q48 3 51 51l19 1020q0 25 -13.5 38t-36.5 11l-98 -2q-48 -3 -51 -49l-19 -426q-9 -167 -91.5 -260.5t-229.5 -93.5q-122 0 -180.5 77.5t-67.5 239.5
v461q0 51 -49 51h-55q-50 0 -50 -51z" />
    <glyph glyph-name="Adieresismacron" unicode="&#x1de;" 
d="M463 2040v-49q0 -49 51 -49h498q49 0 49 49v49q0 49 -49 49h-498q-51 0 -51 -49zM442 1792v-117q0 -51 50 -51h118q49 0 49 51v117q0 49 -49 49h-118q-50 0 -50 -49zM862 1792v-117q0 -51 49 -51h119q49 0 49 51v117q0 49 -49 49h-119q-49 0 -49 -49zM641 1454
l-553 -1397q-9 -27 1.5 -42t39.5 -15h168q41 0 55 41l49 162q15 41 58 41h583q47 0 56 -45l37 -156q9 -43 55 -43h182q28 0 38.5 15.5t0.5 41.5l-551 1397q-14 39 -57 39h-105q-43 0 -57 -39zM782 1212l224 -673q9 -26 -2 -42t-39 -16h-428q-28 0 -39 16t-2 42l223 673
q7 22 19 30t24.5 0t19.5 -30z" />
    <glyph glyph-name="adieresismacron" unicode="&#x1df;" 
d="M1028 1667h-498q-51 0 -51 49v49q0 50 51 50h498q49 0 49 -50v-49q0 -49 -49 -49zM627 1350h-119q-49 0 -49 51v117q0 49 49 49h119q49 0 49 -49v-117q0 -51 -49 -51zM928 1567h119q49 0 49 -49v-117q0 -51 -49 -51h-119q-49 0 -49 51v117q0 49 49 49zM739 1147
q244 0 364 -125.5t120 -382.5v-590q0 -49 -49 -49h-84q-52 0 -52 49v23q0 34 -15 39.5t-40 -19.5q-121 -121 -332 -121q-170 0 -272.5 97t-102.5 258q0 189 127 285t377 96h209q49 0 49 18q0 130 -79 203.5t-238 83.5q-156 0 -303 -64q-26 -12 -43 -2.5t-17 37.5v43
q0 42 41 57q177 64 340 64zM680 252q73 0 117 9.5t77.5 39t47 83t14.5 140.5q0 47 -49 47h-117q-184 0 -257 -37.5t-81 -127.5q-3 -33 6 -60q21 -59 78 -76.5t164 -17.5z" />
    <glyph glyph-name="Gcaron" unicode="&#x1e6;" 
d="M690 1634h70q38 0 61 33l185 285q17 25 7.5 42t-38.5 17h-31q-36 0 -61 -31l-123 -165q-15 -23 -35 -23t-35 23l-121 165q-25 31 -61 31h-29q-31 0 -40.5 -17t5.5 -42l187 -285q20 -33 59 -33zM1122 483v-73q0 -43 -28 -60q-85 -53 -283 -53q-119 0 -198 21.5t-136 75
t-84.5 144t-32.5 228.5q0 292 125.5 450t325.5 158q237 0 442 -143q25 -20 42.5 -11.5t17.5 40.5v79q0 40 -33 60q-213 121 -487 121q-134 0 -251.5 -53.5t-205 -151t-138.5 -245t-51 -325.5q0 -152 18 -265.5t62.5 -208.5t118 -156t184.5 -98t263 -46q271 -16 528 146
q31 19 31 61v522q0 50 -49 50h-482q-49 0 -49 -50v-116q0 -49 49 -49h250q51 0 51 -52z" />
    <glyph glyph-name="gcaron" unicode="&#x1e7;" 
d="M737 1262h70q39 0 61 32l185 285q17 25 7.5 42t-38.5 17h-31q-37 0 -61 -30l-123 -166q-15 -23 -35 -23t-35 23l-121 166q-24 30 -61 30h-29q-30 0 -39.5 -17t5.5 -42l186 -285q19 -32 59 -32zM1231 139l29 930q0 51 -50 51h-86q-47 0 -53 -43l-4 -43q-3 -33 -20 -37
t-39 23q-109 127 -310 127q-206 0 -332 -157.5t-126 -416.5t126 -416t332 -157q177 0 293 104q41 36 42 4q1 -10 -11 -88q-35 -234 -118 -340t-228 -106q-138 0 -262 55q-26 12 -43 2.5t-17 -37.5v-221q0 -43 41 -55q139 -45 310 -45q110 0 188 22.5t142 78.5t103.5 155
t63 248.5t29.5 361.5zM977 584q0 -56 -8 -99t-21.5 -73t-37.5 -51t-48 -33t-61.5 -18.5t-70.5 -8.5t-81 -2q-55 0 -89 2.5t-69.5 12.5t-55.5 28.5t-38.5 50.5t-29 78.5t-17.5 112.5q0 200 83 310t231 110q149 0 231 -109.5t82 -310.5z" />
    <glyph glyph-name="Oslashacute" unicode="&#x1fe;" 
d="M936 2003h-57q-31 0 -40 17t11 42l242 328q25 31 61 31h102q32 0 40.5 -19.5t-11.5 -42.5l-287 -329q-22 -27 -61 -27zM1049 1573l-33 -111q174 -83 274.5 -270.5t100.5 -446.5q0 -351 -176.5 -562.5t-462.5 -211.5q-87 0 -177 23q-15 -31 -53 -31l-127 4q-27 1 -38 17
t-3 43l23 67q-128 98 -198 265.5t-70 385.5q0 351 177.5 563t465.5 212q46 0 118 -11l29 84q16 42 57 39l50 -2q28 0 39.5 -15.5t3.5 -41.5zM322 745q0 -254 163 -339l330 946q-40 4 -63 4q-193 0 -311.5 -165.5t-118.5 -445.5zM752 354q79 0 141.5 11t117 38t90.5 70.5
t56.5 112t20.5 159.5q0 191 -57 331t-158 212l-279 -932q23 -2 68 -2z" />
    <glyph glyph-name="oslashacute" unicode="&#x1ff;" 
d="M1292 2048h103q32 0 40.5 -19t-12.5 -42l-286 -330q-22 -27 -62 -27h-57q-31 0 -40 17.5t11 42.5l242 327q25 31 61 31zM1098 1413l-97 -323q126 -67 194.5 -203t68.5 -328q0 -275 -137 -431.5t-377 -156.5q-28 0 -82 4l-39 -131q-14 -41 -58 -41l-127 4q-27 1 -38 17
t-3 43l64 180q-113 71 -172 201.5t-59 310.5q0 277 136 432.5t378 155.5q55 0 96 -8l102 295q16 42 58 39l49 -3q28 0 39.5 -15.5t3.5 -41.5zM430 592q0 -118 32.5 -183t96.5 -94l242 693q-32 4 -51 4q-148 0 -234 -112.5t-86 -307.5zM954 932l-192 -643q61 1 105 8
t84.5 26.5t65 52.5t38.5 87t14 129q0 225 -115 340z" />
    <glyph glyph-name="Scommaaccent" unicode="&#x218;" 
d="M1186 1311v90q0 47 -41 55q-204 64 -395 64q-246 0 -386.5 -114t-140.5 -312q0 -170 102 -267t328 -141l123 -24q144 -29 216.5 -89.5t72.5 -126.5q0 -73 -99 -136.5t-261 -63.5q-206 0 -414 106q-26 14 -44 4t-18 -39v-208q0 -43 43 -58q232 -80 433 -80q281 0 426 112
t145 329q0 183 -107.5 291t-332.5 151l-123 25q-163 30 -224 80.5t-61 150.5q0 118 89.5 182t254.5 64q162 0 354 -82q26 -12 43 -1.5t17 38.5zM592 -119v-131q0 -30 -8 -61l-76 -234q-8 -26 3.5 -41.5t39.5 -15.5h31q39 0 59 33l182 260q21 30 21 61v129q0 49 -51 49h-150
q-51 0 -51 -49z" />
    <glyph glyph-name="scommaaccent" unicode="&#x219;" 
d="M1118 997v47q0 44 -41 58q-134 45 -317 45q-206 0 -318 -86t-112 -244q0 -128 74.5 -193.5t248.5 -101.5l64 -14q175 -41 194 -66q26 -31 41 -57q19 -37 15 -63q-28 -117 -248 -117q-162 0 -338 78q-26 12 -42.5 2t-16.5 -39v-162q0 -43 43 -55q189 -58 350 -58
q216 0 339.5 90.5t123.5 247.5q0 136 -82.5 208t-278.5 114l-63 14q-146 32 -201 73.5t-55 117.5q0 84 73.5 131t210.5 47q146 0 279 -53q26 -12 41.5 -2.5t15.5 38.5zM797 -125v-131q0 -26 -9 -61l-75 -234q-8 -26 3.5 -41.5t39.5 -15.5h30q40 0 60 33l182 260q21 30 21 61
v129q0 49 -52 49h-149q-51 0 -51 -49z" />
    <glyph glyph-name="uni021A" unicode="&#x21a;" 
d="M119 1444v-70q0 -52 51 -49l428 16q49 0 49 -51l-47 -1239q0 -51 49 -51h203q50 0 47 51l-45 1239q0 51 49 51l428 -16q51 -3 51 49v70q0 49 -51 49h-1163q-49 0 -49 -49zM631 -102v-131q0 -31 -8 -62l-76 -233q-8 -26 3.5 -42t39.5 -16h31q39 0 59 33l182 260
q21 30 21 62v129q0 49 -52 49h-149q-51 0 -51 -49z" />
    <glyph glyph-name="uni021B" unicode="&#x21b;" 
d="M690 1399h-94q-51 0 -51 -49l-6 -181q-3 -49 -52 -49h-36q-50 0 -50 -51v-43q0 -49 43 -49h41q25 0 38 -13t12 -36l-27 -559q-10 -205 86 -287t317 -82h140q49 0 49 49v174q0 51 -49 51h-140q-61 0 -95 7.5t-57 31.5t-30.5 64.5t-7.5 111.5l8 439q3 49 51 49h160
q49 0 49 49v43q0 51 -49 51h-158q-52 0 -49 51l6 177q0 51 -49 51zM680 -84v-131q0 -30 -8 -61l-76 -234q-8 -26 3.5 -41.5t39.5 -15.5h31q40 0 59 32l182 261q21 30 21 61v129q0 49 -51 49h-150q-51 0 -51 -49z" />
    <glyph glyph-name="uni0228" unicode="&#x228;" 
d="M268 1444v-1395q0 -49 51 -49h863q49 0 49 49v211q0 49 -49 49h-662q-49 0 -49 51v302q0 49 49 49h613q49 0 49 51v69q0 50 -49 50h-613q-49 0 -49 51v342q0 49 49 49h643q49 0 49 49v72q0 49 -49 49h-844q-51 0 -51 -49zM860 -35h-22q-24 0 -29 -17.5t10 -43.5
q47 -70 47 -117q0 -94 -118 -94q-54 0 -101 12q-55 13 -55 -39v-26q0 -46 43 -58q64 -12 133 -12q238 0 238 180q0 84 -84 187q-22 28 -62 28z" />
    <glyph glyph-name="uni0229" unicode="&#x229;" 
d="M786 1147q224 -9 341.5 -130.5t136.5 -363.5v-18q0 -51 -50 -51h-735q-52 0 -49 -52q4 -54 16 -95.5t28.5 -70.5t44.5 -50t55 -33.5t69.5 -20.5t79 -11.5t92.5 -6.5q84 0 124 1t105.5 8.5t118.5 22.5q58 17 58 -36l2 -150q3 -45 -37 -57q-167 -52 -314 -60l2 -2
q84 -103 84 -186q0 -180 -237 -180q-69 0 -133 12q-43 12 -43 57v27q0 52 55 39q46 -12 100 -12q119 0 119 94q0 47 -47 117q-12 21 -12 34q-250 22 -387 162.5t-137 390.5q11 282 156 451.5t394 169.5zM502 733l545 2q27 0 39.5 16t3.5 40q-17 45 -44 88t-64.5 83
t-88.5 64.5t-107 24.5q-124 0 -215.5 -82.5t-115.5 -182.5q-6 -24 7 -38.5t40 -14.5z" />
    <glyph glyph-name="uni022A" unicode="&#x22a;" 
d="M451 2138v-49q0 -49 51 -49h497q50 0 50 49v49q0 49 -50 49h-497q-51 0 -51 -49zM430 1890v-116q0 -52 49 -52h119q49 0 49 52v116q0 49 -49 49h-119q-49 0 -49 -49zM850 1890v-116q0 -52 49 -52h119q49 0 49 52v116q0 49 -49 49h-119q-49 0 -49 -49zM752 1520
q-288 0 -465.5 -212t-177.5 -563q0 -352 177.5 -563t465.5 -211q286 0 462.5 211.5t176.5 562.5t-176.5 563t-462.5 212zM752 1356q191 0 308.5 -165.5t117.5 -445.5q0 -91 -20.5 -159.5t-56.5 -112t-90.5 -70.5t-117 -38t-141.5 -11q-101 0 -175.5 18t-134 61t-90 121
t-30.5 191q0 280 118.5 445.5t311.5 165.5z" />
    <glyph glyph-name="uni022B" unicode="&#x22b;" 
d="M391 1765v-49q0 -49 51 -49h498q49 0 49 49v49q0 50 -49 50h-498q-51 0 -51 -50zM371 1518v-117q0 -51 49 -51h119q49 0 49 51v117q0 49 -49 49h-119q-49 0 -49 -49zM791 1518v-117q0 -51 49 -51h118q50 0 50 51v117q0 49 -50 49h-118q-49 0 -49 -49zM750 1147
q-242 0 -378 -155.5t-136 -432.5q0 -275 136.5 -431.5t377.5 -156.5q240 0 377 156.5t137 431.5q0 276 -137 432t-377 156zM750 1012q147 0 233 -113.5t86 -306.5q0 -95 -21 -156.5t-66 -93t-98 -42.5t-134 -11q-65 0 -110.5 6.5t-87.5 25t-67 51.5t-40 88t-15 132
q0 195 86 307.5t234 112.5z" />
    <glyph glyph-name="circumflex" unicode="&#x2c6;" 
d="M569 1262l146 196q15 23 34.5 23t34.5 -23l146 -196h139l-246 376h-147l-246 -376h139z" />
    <glyph glyph-name="caron" unicode="&#x2c7;" 
d="M715 1262h69q40 0 62 32l184 285q17 25 7.5 42t-38.5 17h-30q-38 0 -62 -30l-123 -166q-15 -23 -34.5 -23t-34.5 23l-121 166q-24 30 -62 30h-28q-31 0 -40.5 -17t5.5 -42l186 -285q19 -32 60 -32z" />
    <glyph glyph-name="breve" unicode="&#x2d8;" 
d="M510 1608h-21q-25 0 -38 -15t-7 -39q40 -233 306 -233q264 0 307 233q5 25 -8 39.5t-39 14.5h-21q-40 0 -55 -43q-40 -107 -184 -107q-145 0 -185 107q-15 43 -55 43z" />
    <glyph glyph-name="dotaccent" unicode="&#x2d9;" 
d="M647 1501v-102q0 -51 51 -51h105q49 0 49 51v102q0 51 -49 51h-105q-51 0 -51 -51z" />
    <glyph glyph-name="ring" unicode="&#x2da;" 
d="M1024 1524q0 116 -79 195t-195 79q-114 0 -194.5 -79.5t-80.5 -194.5t80.5 -195t194.5 -80q115 0 194.5 79.5t79.5 195.5zM901 1524q0 -63 -43.5 -107.5t-107.5 -44.5t-108 44t-44 108t43.5 107.5t108.5 43.5q64 0 107.5 -44t43.5 -107z" />
    <glyph glyph-name="ogonek" unicode="&#x2db;" 
d="M719 0h-10q-39 0 -62 -29q-84 -107 -84 -186q0 -93 58 -136.5t180 -43.5q37 0 92 10q45 9 45 55v29q0 52 -57 39q-38 -10 -70 -10q-109 0 -109 92q0 43 48 119q16 26 7.5 43.5t-38.5 17.5z" />
    <glyph glyph-name="tilde" unicode="&#x2dc;" 
d="M688 1425l57 -55q66 -61 140 -61q82 0 132 59.5t60 169.5q3 53 -49 53h-24q-46 0 -52 -49q-5 -40 -16 -69q-18 -37 -57 -37q-26 0 -68 39l-57 55q-66 61 -140 61q-82 0 -130.5 -59t-59.5 -170q-6 -53 47 -53h25q47 0 53 49q3 42 16 69q18 37 56 37q25 0 67 -39z" />
    <glyph glyph-name="hungarumlaut" unicode="&#x2dd;" 
d="M573 1602l-141 -281q-14 -26 -4 -42.5t41 -16.5h31q40 0 59 34l166 283q17 25 7 42t-40 17h-59q-43 0 -60 -36zM907 1604l-153 -281q-14 -28 -4.5 -44.5t38.5 -16.5h29q41 0 60 32l188 285q17 25 7 42t-40 17h-65q-42 0 -60 -34z" />
    <glyph glyph-name="hookabovecomb" unicode="&#x309;" horiz-adv-x="0" 
d="M641 1186v-43q54 26 92 26q32 0 49 -8.5t17 -19.5q0 -19 -23 -35l-22 -19q-27 -20 -31 -30q-8 -11 -8 -33v-6h57q6 27 12 33q2 1 5.5 4t5.5 4l22 14q43 34 43 64q0 31 -31 53q-33 20 -81 20q-52 0 -107 -24z" />
    <glyph glyph-name="uni031B" unicode="&#x31b;" horiz-adv-x="0" 
d="M649 942l2 -4q11 -23 29.5 -29.5t38.5 6.5q16 12 53 46q44 38 64 101.5t20 131.5v25q-6 41 -51 47q-26 3 -38 -3.5t-7 -21.5q4 -16 4 -31v-12v-15.5t-0.5 -17t-1 -19t-2 -19t-3.5 -20.5t-5 -18.5t-7 -18.5t-9.5 -16t-12.5 -14t-15 -10.5t-18.5 -10t-17.5 -9.5
q-46 -21 -23 -68z" />
    <glyph glyph-name="dotbelowcomb" unicode="&#x323;" horiz-adv-x="0" 
d="M647 172v-121q0 -51 51 -51h105q51 0 51 51v121q0 49 -51 49h-105q-51 0 -51 -49z" />
    <glyph glyph-name="uni0326" unicode="&#x326;" horiz-adv-x="0" 
d="M668 195v-132q0 -27 -9 -61l-75 -233q-8 -26 3.5 -42t39.5 -16h30q40 0 60 33l182 260q21 30 21 62v129q0 49 -52 49h-149q-51 0 -51 -49z" />
    <glyph glyph-name="uni032D" unicode="&#x32d;" horiz-adv-x="0" 
d="M569 -451l146 197q15 23 34.5 23t34.5 -23l146 -197h139l-246 377h-147l-246 -377h139z" />
    <glyph glyph-name="uni0331" unicode="&#x331;" horiz-adv-x="0" 
d="M475 -211l12 76q6 45 54 45l438 8q26 1 38 -13t7 -40l-10 -74q-9 -47 -53 -47l-439 -8q-26 0 -38.5 14t-8.5 39z" />
    <glyph glyph-name="pi" unicode="&#x3c0;" 
d="M1337 967l13 49q6 26 -5.5 40.5t-37.5 14.5h-834q-150 0 -221 -51t-102 -184q-6 -26 6.5 -41t38.5 -15h57q44 0 53 47q13 51 41.5 74t75.5 23q19 0 25 -16t-3 -42l-239 -811q-9 -24 2.5 -39.5t38.5 -15.5h186q47 0 53 45l150 834q6 45 53 45h221q28 0 39.5 -16t3.5 -42
l-94 -329q-53 -152 -63 -234q-13 -76 -13 -117q0 -102 87 -187t202 -85q35 0 72 6q41 9 47 51l14 113q4 26 -7 39t-36 10q-18 -2 -49 -2q-54 0 -77 25t-23 82q0 26 8 67q7 57 20 121l97 453q9 45 55 45h90q46 0 55 43z" />
    <glyph glyph-name="Bdotbelow" unicode="&#x1e04;" 
d="M211 1444v-1395q0 -49 49 -49h488q252 0 397 110t145 308q0 145 -82 241.5t-250 135.5q-25 6 -25 10.5t25 11.5q199 59 199 307q0 177 -124.5 273t-354.5 96h-418q-49 0 -49 -49zM463 1358h250q144 0 218.5 -69t74.5 -187q0 -225 -293 -225h-250q-49 0 -49 51v379
q0 51 49 51zM463 713h274q161 0 242 -66q78 -69 78 -117q0 -134 -74.5 -183.5t-245.5 -49.5h-274q-49 0 -49 49v318q0 49 49 49zM567 -117v-121q0 -51 51 -51h105q51 0 51 51v121q0 49 -51 49h-105q-51 0 -51 -49z" />
    <glyph glyph-name="bdotbelow" unicode="&#x1e05;" 
d="M346 203q-18 38 -30 204.5t-28 529t-28 566.5q-2 25 11 39t38 14h82q52 0 49 -51l-14 -446q-1 -34 12.5 -39t36.5 20q104 107 305 107q204 0 331.5 -162.5t127.5 -425.5t-127.5 -425.5t-331.5 -162.5q-108 0 -183.5 15t-124 46.5t-77 71.5t-49.5 99zM1118 569q4 25 4 64
q-11 184 -86 283.5t-213 99.5q-147 0 -229 -111t-82 -313q12 -94 22.5 -136t42 -85.5t89.5 -57.5t157 -14q127 8 198 66t97 204zM1036 -127v-121q0 -51 51 -51h105q51 0 51 51v121q0 49 -51 49h-105q-51 0 -51 -49z" />
    <glyph glyph-name="Ddotbelow" unicode="&#x1e0c;" 
d="M174 1444v-1395q0 -49 49 -49h367q737 0 737 748q0 745 -737 745h-367q-49 0 -49 -49zM436 1327h195q228 0 357 -134t136 -394q0 -31 -8 -62q-50 -208 -155.5 -284t-329.5 -76h-195q-49 0 -49 49v852q0 49 49 49zM545 -121v-121q0 -51 51 -51h104q52 0 52 51v121
q0 49 -52 49h-104q-51 0 -51 -49z" />
    <glyph glyph-name="ddotbelow" unicode="&#x1e0d;" 
d="M1126 1556h84q53 0 50 -51l-19 -1456q0 -49 -49 -49h-84q-51 0 -51 49v29q0 34 -15 38t-38 -22q-108 -123 -306 -123q-204 0 -331 162t-127 426t127 426t331 162q197 0 308 -123q22 -28 38 -24t17 38l14 469q0 49 51 49zM684 1014q-139 0 -222 -107.5t-89 -296.5
q0 -38 4 -61q26 -130 96 -187t207 -57q79 0 128.5 10.5t89 41t57.5 88t20 149.5q-9 420 -291 420zM629 -96v-121q0 -51 51 -51h104q52 0 52 51v121q0 49 -52 49h-104q-51 0 -51 -49z" />
    <glyph glyph-name="Dlinebelow" unicode="&#x1e0e;" 
d="M174 1444v-1395q0 -49 49 -49h367q737 0 737 748q0 745 -737 745h-367q-49 0 -49 -49zM436 1327h195q228 0 357 -134t136 -394q0 -31 -8 -62q-50 -208 -155.5 -284t-329.5 -76h-195q-49 0 -49 49v852q0 49 49 49zM381 -354l12 75q6 46 53 46l439 8q26 1 38 -13t7 -41
l-10 -73q-9 -47 -54 -47l-438 -9q-26 0 -39 14.5t-8 39.5z" />
    <glyph glyph-name="dlinebelow" unicode="&#x1e0f;" 
d="M1126 1556h84q53 0 50 -51l-19 -1456q0 -49 -49 -49h-84q-51 0 -51 49v29q0 34 -15 38t-38 -22q-108 -123 -306 -123q-204 0 -331 162t-127 426t127 426t331 162q197 0 308 -123q22 -28 38 -24t17 38l14 469q0 49 51 49zM680 305q86 0 141 14t88 50l-397 -9
q-26 0 -39 14.5t-8 39.5l12 75q6 46 53 46l439 8h4q0 8 1 25t1 26q-9 420 -291 420q-139 0 -222 -107.5t-89 -296.5q0 -38 4 -61q26 -130 96 -187t207 -57zM530 -209l439 8q26 1 38 -13t7 -40l-10 -74q-9 -47 -54 -47l-438 -8q-26 0 -38.5 14t-8.5 39l12 76q6 45 53 45z" />
    <glyph glyph-name="Dcircumflexbelow" unicode="&#x1e12;" 
d="M174 1444v-1395q0 -49 49 -49h367q737 0 737 748q0 745 -737 745h-367q-49 0 -49 -49zM436 1327h195q228 0 357 -134t136 -394q0 -31 -8 -62q-50 -208 -155.5 -284t-329.5 -76h-195q-49 0 -49 49v852q0 49 49 49zM420 -520l145 196q15 23 35 23t35 -23l145 -196h140
l-246 377h-148l-245 -377h139z" />
    <glyph glyph-name="dcircumflexbelow" unicode="&#x1e13;" 
d="M1126 1556h84q53 0 50 -51l-19 -1456q0 -49 -49 -49h-84q-51 0 -51 49v29q0 34 -15 38t-38 -22q-108 -123 -306 -123q-204 0 -331 162t-127 426t127 426t331 162q197 0 308 -123q22 -28 38 -24t17 38l14 469q0 49 51 49zM684 1014q-139 0 -222 -107.5t-89 -296.5
q0 -38 4 -61q26 -130 96 -187t207 -57q79 0 128.5 10.5t89 41t57.5 88t20 149.5q-9 420 -291 420zM504 -496l145 197q15 23 35 23t35 -23l145 -197h140l-246 377h-148l-245 -377h139z" />
    <glyph glyph-name="Hdotbelow" unicode="&#x1e24;" 
d="M190 1444l-18 -1395q-3 -49 49 -49h131q51 0 51 49v402q0 51 50 51h594q51 0 51 -51v-402q0 -49 49 -49h133q23 0 35.5 13t11.5 36l-16 1395q-3 49 -51 49h-113q-49 0 -49 -49v-613q0 -51 -51 -51h-594q-50 0 -50 51v613q0 49 -51 49h-110q-52 0 -52 -49zM635 -127v-121
q0 -51 51 -51h105q51 0 51 51v121q0 49 -51 49h-105q-51 0 -51 -49z" />
    <glyph glyph-name="hdotbelow" unicode="&#x1e25;" 
d="M1257 51l-18 625q0 232 -98.5 351.5t-290.5 119.5q-187 0 -305 -127q-25 -26 -40.5 -21t-15.5 39l17 672q3 51 -49 51h-84q-48 0 -51 -49l-78 -1661q-3 -51 49 -51h164q49 0 49 51l-19 582q0 167 87 271t235 104q130 0 192.5 -77t55.5 -261l-29 -619q-3 -51 49 -51h131
q52 0 49 51zM664 -127v-121q0 -51 51 -51h104q51 0 51 51v121q0 49 -51 49h-104q-51 0 -51 -49z" />
    <glyph glyph-name="Idieresisacute" unicode="&#x1e2e;" 
d="M967 2390l-242 -328q-20 -25 -11 -42t40 -17h57q39 0 61 27l287 329q21 23 12 42.5t-41 19.5h-102q-36 0 -61 -31zM440 1890v-116q0 -52 49 -52h119q49 0 49 52v116q0 49 -49 49h-119q-49 0 -49 -49zM860 1890v-116q0 -52 49 -52h119q49 0 49 52v116q0 49 -49 49h-119
q-49 0 -49 -49zM633 51q-3 -51 49 -51h137q52 0 49 51q-10 209 -15 422t-7.5 547t-3.5 424q0 49 -51 49h-72q-48 0 -51 -49q-1 -85 -5 -335.5t-6.5 -374t-8.5 -321.5t-15 -362z" />
    <glyph glyph-name="idieresisacute" unicode="&#x1e2f;" 
d="M930 2017l-242 -327q-20 -25 -11 -42.5t40 -17.5h57q40 0 62 27l286 330q21 23 12.5 42t-40.5 19h-103q-36 0 -61 -31zM403 1518v-117q0 -51 50 -51h118q50 0 50 51v117q0 49 -50 49h-118q-50 0 -50 -49zM823 1518v-117q0 -51 49 -51h119q49 0 49 51v117q0 49 -49 49
h-119q-49 0 -49 -49zM637 51q-3 -51 49 -51h129q53 0 47 53q-50 525 -37 1016q3 51 -49 51h-61q-51 0 -51 -45q7 -542 -27 -1024z" />
    <glyph glyph-name="Ldotbelow" unicode="&#x1e36;" 
d="M299 1444l-16 -1395q-3 -49 49 -49h821q46 0 49 47l15 211q3 51 -50 51h-624q-49 0 -49 51l10 1084q0 49 -51 49h-103q-48 0 -51 -49zM643 -127v-121q0 -51 51 -51h105q51 0 51 51v121q0 49 -51 49h-105q-51 0 -51 -49z" />
    <glyph glyph-name="ldotbelow" unicode="&#x1e37;" 
d="M416 51q3 -51 49 -51h473q51 0 51 49v127q0 51 -51 51h-213q-23 0 -33.5 12.5t-15.5 39.5q-20 100 -31 200.5t-15 225.5t-4 214t1.5 264t1.5 277q0 51 -47 51h-154q-25 0 -39.5 -12.5t-11.5 -36.5q32 -203 39.5 -400.5t-1.5 -337t-11 -321t12 -352.5zM629 -176v-121
q0 -51 51 -51h104q52 0 52 51v121q0 49 -52 49h-104q-51 0 -51 -49z" />
    <glyph glyph-name="Lcircumflexbelow" unicode="&#x1e3c;" 
d="M299 1444l-16 -1395q-3 -49 49 -49h821q46 0 49 47l15 211q3 51 -50 51h-624q-49 0 -49 51l10 1084q0 49 -51 49h-103q-48 0 -51 -49zM614 -451l146 197q15 23 34.5 23t34.5 -23l146 -197h139l-246 377h-147l-246 -377h139z" />
    <glyph glyph-name="lcircumflexbelow" unicode="&#x1e3d;" 
d="M416 51q3 -51 49 -51h473q51 0 51 49v127q0 51 -51 51h-213q-23 0 -33.5 12.5t-15.5 39.5q-20 100 -31 200.5t-15 225.5t-4 214t1.5 264t1.5 277q0 51 -47 51h-154q-25 0 -39.5 -12.5t-11.5 -36.5q32 -203 39.5 -400.5t-1.5 -337t-11 -321t12 -352.5zM504 -575l145 196
q15 23 35 23t35 -23l145 -196h140l-246 376h-148l-245 -376h139z" />
    <glyph glyph-name="Macute" unicode="&#x1e3e;" 
d="M895 1894l-242 -327q-20 -25 -11 -42.5t40 -17.5h57q40 0 62 27l286 330q21 23 12.5 42t-40.5 19h-103q-36 0 -61 -31zM127 1444l-29 -1393q-3 -51 49 -51h175q52 0 49 51l-31 1071q-1 32 22 37t31 -26l221 -875q8 -41 58 -41h155q50 0 58 41l221 875q8 31 31 26t22 -37
l-31 -1071q-3 -51 50 -51h174q51 0 51 51l-29 1393q-3 49 -51 49h-190q-44 0 -58 -39l-293 -770q-10 -31 -32 -31t-33 31l-273 770q-14 39 -59 39h-209q-49 0 -49 -49z" />
    <glyph glyph-name="macute" unicode="&#x1e3f;" 
d="M774 1708l-242 -328q-20 -25 -11 -42t40 -17h57q40 0 62 27l287 329q20 23 11.5 42.5t-40.5 19.5h-102q-37 0 -62 -31zM852 958q-9 -25 -27 -23t-30 28q-32 57 -47.5 81.5t-40.5 53.5t-50.5 39t-60.5 10q-42 0 -73.5 -8t-54 -27.5t-30 -28.5t-23.5 -36q-3 -5 -5 -7
q-23 -38 -40 -31q-12 4 -10 33l5 25q6 53 -48 53h-59q-46 0 -49 -49l-84 -1020q-6 -51 47 -51h168q50 0 47 51l-16 582q-6 162 60.5 271.5t166.5 109.5q70 0 112 -78t15 -225l-82 -658q-6 -53 45 -53h150q51 0 51 49l2 584q0 77 22.5 165.5t64.5 154t89 65.5q86 0 124 -77
t38 -241l-66 -649q-1 -17 -1 -28t6.5 -17t23.5 -6h133q49 0 49 51l2 625q0 229 -71.5 350t-214.5 121q-84 0 -146.5 -54.5t-91.5 -134.5z" />
    <glyph glyph-name="Ndotaccent" unicode="&#x1e44;" 
d="M659 1874v-102q0 -52 52 -52h104q49 0 49 52v102q0 51 -49 51h-104q-52 0 -52 -51zM213 1413l-37 -1362q-3 -51 49 -51h156q50 0 47 51l-49 1059q-3 38 17.5 44t39.5 -28l578 -1089q16 -37 59 -37h203q49 0 49 49v1395q0 49 -49 49h-88q-49 0 -49 -49l-27 -1041
q-2 -37 -22 -41.5t-39 27.5l-566 1038q-17 35 -59 35h-162q-48 0 -51 -49z" />
    <glyph glyph-name="ndotaccent" unicode="&#x1e45;" 
d="M629 1501v-102q0 -51 51 -51h104q50 0 50 51v102q0 51 -50 51h-104q-51 0 -51 -51zM1251 51l-26 625q-21 471 -402 471q-147 0 -303 -107q-25 -19 -42 -10t-17 41v8q0 51 -49 51h-86q-49 0 -52 -49l-26 -1030q-3 -51 49 -51h154q49 0 49 51l-29 592q0 168 83.5 261
t248.5 93q121 0 174 -77t53 -240l-37 -629q-3 -51 49 -51h160q52 0 49 51z" />
    <glyph glyph-name="Ndotbelow" unicode="&#x1e46;" 
d="M213 1413l-37 -1362q-3 -51 49 -51h156q50 0 47 51l-49 1059q-3 38 17.5 44t39.5 -28l578 -1089q16 -37 59 -37h203q49 0 49 49v1395q0 49 -49 49h-88q-49 0 -49 -49l-27 -1041q-2 -37 -22 -41.5t-39 27.5l-566 1038q-17 35 -59 35h-162q-48 0 -51 -49zM1047 -127v-121
q0 -51 51 -51h104q51 0 51 51v121q0 49 -51 49h-104q-51 0 -51 -49z" />
    <glyph glyph-name="ndotbelow" unicode="&#x1e47;" 
d="M1251 51l-26 625q-21 471 -402 471q-147 0 -303 -107q-25 -19 -42 -10t-17 41v8q0 51 -49 51h-86q-49 0 -52 -49l-26 -1030q-3 -51 49 -51h154q49 0 49 51l-29 592q0 168 83.5 261t248.5 93q121 0 174 -77t53 -240l-37 -629q-3 -51 49 -51h160q52 0 49 51zM604 -51v-121
q0 -51 51 -51h105q51 0 51 51v121q0 49 -51 49h-105q-51 0 -51 -49z" />
    <glyph glyph-name="Ncircumflexbelow" unicode="&#x1e4a;" 
d="M213 1413l-37 -1362q-3 -51 49 -51h156q50 0 47 51l-49 1059q-3 38 17.5 44t39.5 -28l578 -1089q16 -37 59 -37h203q49 0 49 49v1395q0 49 -49 49h-88q-49 0 -49 -49l-27 -1041q-2 -37 -22 -41.5t-39 27.5l-566 1038q-17 35 -59 35h-162q-48 0 -51 -49zM1026 -451
l145 197q15 23 35 23t35 -23l145 -197h140l-246 377h-147l-246 -377h139z" />
    <glyph glyph-name="ncircumflexbelow" unicode="&#x1e4b;" 
d="M1251 51l-26 625q-21 471 -402 471q-147 0 -303 -107q-25 -19 -42 -10t-17 41v8q0 51 -49 51h-86q-49 0 -52 -49l-26 -1030q-3 -51 49 -51h154q49 0 49 51l-29 592q0 168 83.5 261t248.5 93q121 0 174 -77t53 -240l-37 -629q-3 -51 49 -51h160q52 0 49 51zM479 -451
l146 197q15 23 34.5 23t34.5 -23l146 -197h139l-246 377h-147l-246 -377h139z" />
    <glyph glyph-name="Otildeacute" unicode="&#x1e4c;" 
d="M956 2390l-241 -328q-20 -25 -11.5 -42t39.5 -17h58q39 0 61 27l287 329q21 23 12 42.5t-41 19.5h-102q-37 0 -62 -31zM786 1772l58 -56q66 -61 139 -61q82 0 132.5 59.5t60.5 169.5q3 53 -50 53h-24q-45 0 -51 -49q-5 -36 -17 -69q-18 -37 -57 -37q-26 0 -68 39l-57 55
q-66 61 -139 61q-82 0 -131 -59.5t-60 -169.5q-6 -53 47 -53h25q47 0 53 49q3 41 17 70q17 36 55 36q26 0 67 -38zM752 1520q-288 0 -465.5 -212t-177.5 -563q0 -352 177.5 -563t465.5 -211q286 0 462.5 211.5t176.5 562.5t-176.5 563t-462.5 212zM752 1356
q191 0 308.5 -165.5t117.5 -445.5q0 -91 -20.5 -159.5t-56.5 -112t-90.5 -70.5t-117 -38t-141.5 -11q-101 0 -175.5 18t-134 61t-90 121t-30.5 191q0 280 118.5 445.5t311.5 165.5z" />
    <glyph glyph-name="otildeacute" unicode="&#x1e4d;" 
d="M897 2015l-242 -327q-20 -25 -11 -42.5t40 -17.5h57q40 0 62 27l287 330q20 23 11.5 42t-40.5 19h-103q-36 0 -61 -31zM688 1397l57 -56q66 -61 140 -61q82 0 132 59.5t60 169.5q3 54 -49 54h-24q-46 0 -52 -50q-5 -40 -16 -69q-18 -37 -57 -37q-26 0 -68 39l-57 55
q-68 62 -140 62q-81 0 -130 -59.5t-60 -170.5q-6 -53 47 -53h25q47 0 53 49q3 44 16 70q18 37 56 37q25 0 67 -39zM750 1147q-242 0 -378 -155.5t-136 -432.5q0 -275 136.5 -431.5t377.5 -156.5q240 0 377 156.5t137 431.5q0 276 -137 432t-377 156zM750 1012
q147 0 233 -113.5t86 -306.5q0 -95 -21 -156.5t-66 -93t-98 -42.5t-134 -11q-65 0 -110.5 6.5t-87.5 25t-67 51.5t-40 88t-15 132q0 195 86 307.5t234 112.5z" />
    <glyph glyph-name="Omacrongrave" unicode="&#x1e50;" 
d="M580 2396h-91q-29 0 -39 -16.5t5 -42.5l153 -281q18 -35 60 -35h155q32 0 41 18t-10 44l-213 282q-25 31 -61 31zM477 1837v-49q0 -49 51 -49h498q49 0 49 49v49q0 49 -49 49h-498q-51 0 -51 -49zM752 1520q-288 0 -465.5 -212t-177.5 -563q0 -352 177.5 -563t465.5 -211
q286 0 462.5 211.5t176.5 562.5t-176.5 563t-462.5 212zM752 1356q191 0 308.5 -165.5t117.5 -445.5q0 -91 -20.5 -159.5t-56.5 -112t-90.5 -70.5t-117 -38t-141.5 -11q-101 0 -175.5 18t-134 61t-90 121t-30.5 191q0 280 118.5 445.5t311.5 165.5z" />
    <glyph glyph-name="omacrongrave" unicode="&#x1e51;" 
d="M518 2023h-90q-30 0 -40 -16.5t5 -42.5l154 -281q18 -34 59 -34h156q32 0 41 17.5t-10 43.5l-213 283q-24 30 -62 30zM451 1432v-50q0 -49 51 -49h497q50 0 50 49v50q0 49 -50 49h-497q-51 0 -51 -49zM750 1147q-242 0 -378 -155.5t-136 -432.5q0 -275 136.5 -431.5
t377.5 -156.5q240 0 377 156.5t137 431.5q0 276 -137 432t-377 156zM750 1012q147 0 233 -113.5t86 -306.5q0 -95 -21 -156.5t-66 -93t-98 -42.5t-134 -11q-65 0 -110.5 6.5t-87.5 25t-67 51.5t-40 88t-15 132q0 195 86 307.5t234 112.5z" />
    <glyph glyph-name="Omacronacute" unicode="&#x1e52;" 
d="M956 2390l-241 -328q-20 -25 -11.5 -42t39.5 -17h58q39 0 61 27l287 329q21 23 12 42.5t-41 19.5h-102q-37 0 -62 -31zM514 1829v-49q0 -49 51 -49h498q49 0 49 49v49q0 49 -49 49h-498q-51 0 -51 -49zM752 1520q-288 0 -465.5 -212t-177.5 -563q0 -352 177.5 -563
t465.5 -211q286 0 462.5 211.5t176.5 562.5t-176.5 563t-462.5 212zM752 1356q191 0 308.5 -165.5t117.5 -445.5q0 -91 -20.5 -159.5t-56.5 -112t-90.5 -70.5t-117 -38t-141.5 -11q-101 0 -175.5 18t-134 61t-90 121t-30.5 191q0 280 118.5 445.5t311.5 165.5z" />
    <glyph glyph-name="omacronacute" unicode="&#x1e53;" 
d="M897 2015l-242 -327q-20 -25 -11 -42.5t40 -17.5h57q40 0 62 27l287 330q20 23 11.5 42t-40.5 19h-103q-36 0 -61 -31zM451 1370v-49q0 -49 51 -49h497q50 0 50 49v49q0 49 -50 49h-497q-51 0 -51 -49zM750 1147q-242 0 -378 -155.5t-136 -432.5q0 -275 136.5 -431.5
t377.5 -156.5q240 0 377 156.5t137 431.5q0 276 -137 432t-377 156zM750 1012q147 0 233 -113.5t86 -306.5q0 -95 -21 -156.5t-66 -93t-98 -42.5t-134 -11q-65 0 -110.5 6.5t-87.5 25t-67 51.5t-40 88t-15 132q0 195 86 307.5t234 112.5z" />
    <glyph glyph-name="Sdotbelow" unicode="&#x1e62;" 
d="M1186 1311v90q0 47 -41 55q-204 64 -395 64q-246 0 -386.5 -114t-140.5 -312q0 -170 102 -267t328 -141l123 -24q144 -29 216.5 -89.5t72.5 -126.5q0 -73 -99 -136.5t-261 -63.5q-206 0 -414 106q-26 14 -44 4t-18 -39v-208q0 -43 43 -58q232 -80 433 -80q281 0 426 112
t145 329q0 183 -107.5 291t-332.5 151l-123 25q-163 30 -224 80.5t-61 150.5q0 118 89.5 182t254.5 64q162 0 354 -82q26 -12 43 -1.5t17 38.5zM604 -201v-121q0 -51 51 -51h105q51 0 51 51v121q0 49 -51 49h-105q-51 0 -51 -49z" />
    <glyph glyph-name="sdotbelow" unicode="&#x1e63;" 
d="M1118 997v47q0 44 -41 58q-134 45 -317 45q-206 0 -318 -86t-112 -244q0 -128 74.5 -193.5t248.5 -101.5l64 -14q175 -41 194 -66q26 -31 41 -57q19 -37 15 -63q-28 -117 -248 -117q-162 0 -338 78q-26 12 -42.5 2t-16.5 -39v-162q0 -43 43 -55q189 -58 350 -58
q216 0 339.5 90.5t123.5 247.5q0 136 -82.5 208t-278.5 114l-63 14q-146 32 -201 73.5t-55 117.5q0 84 73.5 131t210.5 47q146 0 279 -53q26 -12 41.5 -2.5t15.5 38.5zM606 -205v-121q0 -51 51 -51h105q51 0 51 51v121q0 49 -51 49h-105q-51 0 -51 -49z" />
    <glyph glyph-name="Tdotbelow" unicode="&#x1e6c;" 
d="M119 1444v-70q0 -52 51 -49l428 16q49 0 49 -51l-47 -1239q0 -51 49 -51h203q50 0 47 51l-45 1239q0 51 49 51l428 -16q51 -3 51 49v70q0 49 -51 49h-1163q-49 0 -49 -49zM639 -244v-121q0 -51 51 -51h105q51 0 51 51v121q0 49 -51 49h-105q-51 0 -51 -49z" />
    <glyph glyph-name="tdotbelow" unicode="&#x1e6d;" 
d="M690 1399h-94q-51 0 -51 -49l-6 -181q-3 -49 -52 -49h-36q-50 0 -50 -51v-43q0 -49 43 -49h41q25 0 38 -13t12 -36l-27 -559q-10 -205 86 -287t317 -82h140q49 0 49 49v174q0 51 -49 51h-140q-61 0 -95 7.5t-57 31.5t-30.5 64.5t-7.5 111.5l8 439q3 49 51 49h160
q49 0 49 49v43q0 51 -49 51h-158q-52 0 -49 51l6 177q0 51 -49 51zM702 -51v-121q0 -51 52 -51h104q51 0 51 51v121q0 49 -51 49h-104q-52 0 -52 -49z" />
    <glyph glyph-name="Tlinebelow" unicode="&#x1e6e;" 
d="M119 1444v-70q0 -52 51 -49l428 16q49 0 49 -51l-47 -1239q0 -51 49 -51h203q50 0 47 51l-45 1239q0 51 49 51l428 -16q51 -3 51 49v70q0 49 -51 49h-1163q-49 0 -49 -49zM459 -285l12 76q6 45 53 45l439 8q26 1 38 -13t7 -40l-11 -74q-9 -47 -53 -47l-438 -8
q-26 0 -38.5 14t-8.5 39z" />
    <glyph glyph-name="tlinebelow" unicode="&#x1e6f;" 
d="M690 1399h-94q-51 0 -51 -49l-6 -181q-3 -49 -52 -49h-36q-50 0 -50 -51v-43q0 -49 43 -49h41q25 0 38 -13t12 -36l-27 -559q-10 -205 86 -287t317 -82h140q49 0 49 49v174q0 51 -49 51h-140q-61 0 -95 7.5t-57 31.5t-30.5 64.5t-7.5 111.5l8 439q3 49 51 49h160
q49 0 49 49v43q0 51 -49 51h-158q-52 0 -49 51l6 177q0 51 -49 51zM539 -285l12 76q6 45 53 45l438 8q26 1 38 -13t7 -40l-10 -74q-9 -47 -53 -47l-438 -8q-26 0 -38.5 14t-8.5 39z" />
    <glyph glyph-name="Tcircumflexbelow" unicode="&#x1e70;" 
d="M119 1444v-70q0 -52 51 -49l428 16q49 0 49 -51l-47 -1239q0 -51 49 -51h203q50 0 47 51l-45 1239q0 51 49 51l428 -16q51 -3 51 49v70q0 49 -51 49h-1163q-49 0 -49 -49zM498 -451l145 197q15 23 35 23t35 -23l145 -197h139l-245 377h-148l-246 -377h140z" />
    <glyph glyph-name="tcircumflexbelow" unicode="&#x1e71;" 
d="M690 1399h-94q-51 0 -51 -49l-6 -181q-3 -49 -52 -49h-36q-50 0 -50 -51v-43q0 -49 43 -49h41q25 0 38 -13t12 -36l-27 -559q-10 -205 86 -287t317 -82h140q49 0 49 49v174q0 51 -49 51h-140q-61 0 -95 7.5t-57 31.5t-30.5 64.5t-7.5 111.5l8 439q3 49 51 49h160
q49 0 49 49v43q0 51 -49 51h-158q-52 0 -49 51l6 177q0 51 -49 51zM578 -451l145 197q15 23 35 23t35 -23l145 -197h139l-246 377h-147l-246 -377h140z" />
    <glyph glyph-name="Wgrave" unicode="&#x1e80;" 
d="M567 2396h-90q-30 0 -40 -16.5t5 -42.5l154 -281q18 -35 59 -35h156q32 0 41 18t-10 44l-213 282q-25 31 -62 31zM100 1438l84 -1393q3 -45 56 -45h227q43 0 59 37l187 397q10 22 21 30t22 0t20 -30l178 -395q17 -39 58 -39h209q49 0 55 43l133 1395q3 55 -45 55h-94
q-52 0 -58 -43l-102 -961q-3 -34 -27 -35t-39 31l-198 422q-17 35 -60 35h-96q-42 0 -59 -35l-221 -415q-12 -21 -28 -27.5t-27.5 3t-12.5 30.5l-47 952q0 21 -16 32t-39 11h-95q-48 0 -45 -55z" />
    <glyph glyph-name="wgrave" unicode="&#x1e81;" 
d="M580 2023h-91q-29 0 -39 -16.5t5 -42.5l153 -281q18 -34 60 -34h155q32 0 41 17.5t-10 43.5l-213 283q-24 30 -61 30zM121 1065l180 -1022q6 -43 55 -43h162q42 0 57 37l142 319q9 21 21 28.5t24 0t20 -28.5l133 -317q14 -39 58 -39h172q46 0 55 43l178 1022q9 55 -43 55
h-82q-49 0 -55 -43l-104 -655q-3 -21 -14.5 -29.5t-26 -2t-25.5 25.5l-149 260q-21 35 -60 35h-147q-43 0 -60 -35l-139 -260q-15 -31 -37 -28.5t-28 34.5l-107 655q-6 43 -55 43h-82q-52 0 -43 -55z" />
    <glyph glyph-name="Wacute" unicode="&#x1e82;" 
d="M946 2390l-241 -328q-20 -25 -11.5 -42t39.5 -17h58q39 0 61 27l287 329q21 23 12 42.5t-41 19.5h-102q-37 0 -62 -31zM100 1438l84 -1393q3 -45 56 -45h227q43 0 59 37l187 397q10 22 21 30t22 0t20 -30l178 -395q17 -39 58 -39h209q49 0 55 43l133 1395q3 55 -45 55
h-94q-52 0 -58 -43l-102 -961q-3 -34 -27 -35t-39 31l-198 422q-17 35 -60 35h-96q-42 0 -59 -35l-221 -415q-12 -21 -28 -27.5t-27.5 3t-12.5 30.5l-47 952q0 21 -16 32t-39 11h-95q-48 0 -45 -55z" />
    <glyph glyph-name="wacute" unicode="&#x1e83;" 
d="M958 2017l-241 -327q-20 -25 -11.5 -42.5t39.5 -17.5h58q39 0 61 27l287 330q20 23 11.5 42t-40.5 19h-102q-37 0 -62 -31zM121 1065l180 -1022q6 -43 55 -43h162q42 0 57 37l142 319q9 21 21 28.5t24 0t20 -28.5l133 -317q14 -39 58 -39h172q46 0 55 43l178 1022
q9 55 -43 55h-82q-49 0 -55 -43l-104 -655q-3 -21 -14.5 -29.5t-26 -2t-25.5 25.5l-149 260q-21 35 -60 35h-147q-43 0 -60 -35l-139 -260q-15 -31 -37 -28.5t-28 34.5l-107 655q-6 43 -55 43h-82q-52 0 -43 -55z" />
    <glyph glyph-name="Wdieresis" unicode="&#x1e84;" 
d="M420 1890v-116q0 -52 49 -52h119q49 0 49 52v116q0 49 -49 49h-119q-49 0 -49 -49zM840 1890v-116q0 -52 49 -52h119q49 0 49 52v116q0 49 -49 49h-119q-49 0 -49 -49zM100 1438l84 -1393q3 -45 56 -45h227q43 0 59 37l187 397q10 22 21 30t22 0t20 -30l178 -395
q17 -39 58 -39h209q49 0 55 43l133 1395q3 55 -45 55h-94q-52 0 -58 -43l-102 -961q-3 -34 -27 -35t-39 31l-198 422q-17 35 -60 35h-96q-42 0 -59 -35l-221 -415q-12 -21 -28 -27.5t-27.5 3t-12.5 30.5l-47 952q0 21 -16 32t-39 11h-95q-48 0 -45 -55z" />
    <glyph glyph-name="wdieresis" unicode="&#x1e85;" 
d="M432 1518v-117q0 -51 49 -51h119q49 0 49 51v117q0 49 -49 49h-119q-49 0 -49 -49zM852 1518v-117q0 -51 49 -51h119q49 0 49 51v117q0 49 -49 49h-119q-49 0 -49 -49zM121 1065l180 -1022q6 -43 55 -43h162q42 0 57 37l142 319q9 21 21 28.5t24 0t20 -28.5l133 -317
q14 -39 58 -39h172q46 0 55 43l178 1022q9 55 -43 55h-82q-49 0 -55 -43l-104 -655q-3 -21 -14.5 -29.5t-26 -2t-25.5 25.5l-149 260q-21 35 -60 35h-147q-43 0 -60 -35l-139 -260q-15 -31 -37 -28.5t-28 34.5l-107 655q-6 43 -55 43h-82q-52 0 -43 -55z" />
    <glyph glyph-name="Zdotbelow" unicode="&#x1e92;" 
d="M129 1444v-72q0 -49 49 -49h789q34 0 41.5 -18t-15.5 -43l-843 -953q-25 -28 -25 -61v-199q0 -49 49 -49h1131q51 0 51 49v201q0 49 -51 49h-844q-32 0 -40.5 19t13.5 42l844 953q25 28 25 61v70q0 49 -52 49h-1073q-49 0 -49 -49zM625 -127v-121q0 -51 51 -51h104
q51 0 51 51v121q0 49 -51 49h-104q-51 0 -51 -49z" />
    <glyph glyph-name="zdotbelow" unicode="&#x1e93;" 
d="M342 1069v-37q0 -49 49 -49h531q34 0 41.5 -19t-17.5 -42l-645 -629q-25 -28 -25 -62v-182q0 -49 50 -49h850q49 0 49 49v148q0 51 -49 51h-539q-34 0 -42.5 18t13.5 41l574 619q22 25 22 61v82q0 51 -49 51h-764q-49 0 -49 -51zM571 -127v-121q0 -51 52 -51h104
q51 0 51 51v121q0 49 -51 49h-104q-52 0 -52 -49z" />
    <glyph glyph-name="Adotbelow" unicode="&#x1ea0;" 
d="M641 1454l-553 -1397q-9 -27 1.5 -42t39.5 -15h168q41 0 55 41l49 162q15 41 58 41h583q47 0 56 -45l37 -156q9 -43 55 -43h182q28 0 38.5 15.5t0.5 41.5l-551 1397q-14 39 -57 39h-105q-43 0 -57 -39zM782 1212l224 -673q9 -26 -2 -42t-39 -16h-428q-28 0 -39 16t-2 42
l223 673q7 22 19 30t24.5 0t19.5 -30zM678 -240v-120q0 -52 51 -52h105q51 0 51 52v120q0 50 -51 50h-105q-51 0 -51 -50z" />
    <glyph glyph-name="adotbelow" unicode="&#x1ea1;" 
d="M739 1147q244 0 364 -125.5t120 -382.5v-590q0 -49 -49 -49h-84q-52 0 -52 49v23q0 34 -15 39.5t-40 -19.5q-121 -121 -332 -121q-170 0 -272.5 97t-102.5 258q0 189 127 285t377 96h209q49 0 49 18q0 130 -79 203.5t-238 83.5q-156 0 -303 -64q-26 -12 -43 -2.5
t-17 37.5v43q0 42 41 57q177 64 340 64zM680 252q73 0 117 9.5t77.5 39t47 83t14.5 140.5q0 47 -49 47h-117q-184 0 -257 -37.5t-81 -127.5q-3 -33 6 -60q21 -59 78 -76.5t164 -17.5zM680 -78h104q52 0 52 -49v-121q0 -51 -52 -51h-104q-51 0 -51 51v121q0 49 51 49z" />
    <glyph glyph-name="Ahookabove" unicode="&#x1ea2;" 
d="M639 1724v-43q56 27 92 27q32 0 49 -9t17 -20q0 -18 -23 -34l-22 -19q-27 -20 -31 -31q-8 -11 -8 -32v-7h57q6 27 12 33q2 1 5.5 4t5.5 4l22 15q43 34 43 63q0 32 -31 54q-33 20 -82 20q-48 0 -106 -25zM641 1454l-553 -1397q-9 -27 1.5 -42t39.5 -15h168q41 0 55 41
l49 162q15 41 58 41h583q47 0 56 -45l37 -156q9 -43 55 -43h182q28 0 38.5 15.5t0.5 41.5l-551 1397q-14 39 -57 39h-105q-43 0 -57 -39zM782 1212l224 -673q9 -26 -2 -42t-39 -16h-428q-28 0 -39 16t-2 42l223 673q7 22 19 30t24.5 0t19.5 -30z" />
    <glyph glyph-name="ahookabove" unicode="&#x1ea3;" 
d="M791 1366q0 11 -17 20t-49 9q-36 0 -92 -27v43q58 25 106 25q47 0 82 -21q31 -22 31 -53q0 -30 -43 -64l-23 -14q-2 -1 -5 -4t-5 -4q-3 -3 -6 -11t-4 -15l-2 -7h-57v6q0 22 8 33q5 12 30 31l23 18q23 16 23 35zM739 1147q244 0 364 -125.5t120 -382.5v-590q0 -49 -49 -49
h-84q-52 0 -52 49v23q0 34 -15 39.5t-40 -19.5q-121 -121 -332 -121q-170 0 -272.5 97t-102.5 258q0 189 127 285t377 96h209q49 0 49 18q0 130 -79 203.5t-238 83.5q-156 0 -303 -64q-26 -12 -43 -2.5t-17 37.5v43q0 42 41 57q177 64 340 64zM680 252q73 0 117 9.5t77.5 39
t47 83t14.5 140.5q0 47 -49 47h-117q-184 0 -257 -37.5t-81 -127.5q-3 -33 6 -60q21 -59 78 -76.5t164 -17.5z" />
    <glyph glyph-name="Acircumflexacute" unicode="&#x1ea4;" 
d="M969 2292l-242 -328q-20 -25 -11 -42t40 -17h57q40 0 61 26l287 330q21 23 12.5 42t-40.5 19h-103q-37 0 -61 -30zM582 1501l145 197q15 23 35 23t35 -23l145 -197h139l-245 377h-148l-246 -377h140zM641 1454l-553 -1397q-9 -27 1.5 -42t39.5 -15h168q41 0 55 41l49 162
q15 41 58 41h583q47 0 56 -45l37 -156q9 -43 55 -43h182q28 0 38.5 15.5t0.5 41.5l-551 1397q-14 39 -57 39h-105q-43 0 -57 -39zM782 1212l224 -673q9 -26 -2 -42t-39 -16h-428q-28 0 -39 16t-2 42l223 673q7 22 19 30t24.5 0t19.5 -30z" />
    <glyph glyph-name="acircumflexacute" unicode="&#x1ea5;" 
d="M829 1630h-57q-31 0 -40 17.5t11 42.5l242 327q25 31 62 31h102q32 0 40.5 -19t-11.5 -42l-287 -330q-22 -27 -62 -27zM598 1227h-139l246 377h147l246 -377h-140l-145 196q-15 23 -35 23t-35 -23zM739 1147q244 0 364 -125.5t120 -382.5v-590q0 -49 -49 -49h-84
q-52 0 -52 49v23q0 34 -15 39.5t-40 -19.5q-121 -121 -332 -121q-170 0 -272.5 97t-102.5 258q0 189 127 285t377 96h209q49 0 49 18q0 130 -79 203.5t-238 83.5q-156 0 -303 -64q-26 -12 -43 -2.5t-17 37.5v43q0 42 41 57q177 64 340 64zM680 252q73 0 117 9.5t77.5 39
t47 83t14.5 140.5q0 47 -49 47h-117q-184 0 -257 -37.5t-81 -127.5q-3 -33 6 -60q21 -59 78 -76.5t164 -17.5z" />
    <glyph glyph-name="Acircumflexgrave" unicode="&#x1ea6;" 
d="M590 2298h-90q-30 0 -40 -17t5 -43l153 -280q18 -35 60 -35h156q32 0 40.5 18t-10.5 44l-213 282q-25 31 -61 31zM582 1501l145 197q15 23 35 23t35 -23l145 -197h139l-245 377h-148l-246 -377h140zM641 1454l-553 -1397q-9 -27 1.5 -42t39.5 -15h168q41 0 55 41l49 162
q15 41 58 41h583q47 0 56 -45l37 -156q9 -43 55 -43h182q28 0 38.5 15.5t0.5 41.5l-551 1397q-14 39 -57 39h-105q-43 0 -57 -39zM782 1212l224 -673q9 -26 -2 -42t-39 -16h-428q-28 0 -39 16t-2 42l223 673q7 22 19 30t24.5 0t19.5 -30z" />
    <glyph glyph-name="acircumflexgrave" unicode="&#x1ea7;" 
d="M635 1683l-154 281q-15 26 -5 42.5t40 16.5h90q38 0 62 -30l213 -283q19 -26 10 -43.5t-41 -17.5h-156q-41 0 -59 34zM598 1227h-139l246 377h147l246 -377h-140l-145 196q-15 23 -35 23t-35 -23zM739 1147q244 0 364 -125.5t120 -382.5v-590q0 -49 -49 -49h-84
q-52 0 -52 49v23q0 34 -15 39.5t-40 -19.5q-121 -121 -332 -121q-170 0 -272.5 97t-102.5 258q0 189 127 285t377 96h209q49 0 49 18q0 130 -79 203.5t-238 83.5q-156 0 -303 -64q-26 -12 -43 -2.5t-17 37.5v43q0 42 41 57q177 64 340 64zM680 252q73 0 117 9.5t77.5 39
t47 83t14.5 140.5q0 47 -49 47h-117q-184 0 -257 -37.5t-81 -127.5q-3 -33 6 -60q21 -59 78 -76.5t164 -17.5z" />
    <glyph glyph-name="Acircumflexhookabove" unicode="&#x1ea8;" 
d="M580 1788l145 197q15 23 35 23t35 -23l145 -197h139l-245 377h-148l-246 -377h140zM639 1794v-43q56 27 92 27q32 0 49 -9t17 -20q0 -19 -23 -35l-22 -18q-27 -20 -31 -31q-8 -11 -8 -33v-6h57q6 27 12 33q2 1 5.5 4t5.5 4l22 14q43 34 43 64q0 31 -31 53q-35 21 -82 21
q-48 0 -106 -25zM641 1454l-553 -1397q-9 -27 1.5 -42t39.5 -15h168q41 0 55 41l49 162q15 41 58 41h583q47 0 56 -45l37 -156q9 -43 55 -43h182q28 0 38.5 15.5t0.5 41.5l-551 1397q-14 39 -57 39h-105q-43 0 -57 -39zM782 1212l224 -673q9 -26 -2 -42t-39 -16h-428
q-28 0 -39 16t-2 42l223 673q7 22 19 30t24.5 0t19.5 -30z" />
    <glyph glyph-name="acircumflexhookabove" unicode="&#x1ea9;" 
d="M598 1548h-139l246 377h147l246 -377h-140l-145 197q-15 23 -35 23t-35 -23zM791 1389l22 18q23 16 23 35q0 11 -17 19.5t-49 8.5q-38 0 -92 -26v43q55 24 106 24q49 0 82 -20q31 -22 31 -53q0 -30 -43 -64l-23 -14q-2 -1 -5 -4t-5 -4q-3 -3 -6 -11t-5 -15l-1 -7h-57v6
q0 22 8 33q4 11 31 31zM739 1147q244 0 364 -125.5t120 -382.5v-590q0 -49 -49 -49h-84q-52 0 -52 49v23q0 34 -15 39.5t-40 -19.5q-121 -121 -332 -121q-170 0 -272.5 97t-102.5 258q0 189 127 285t377 96h209q49 0 49 18q0 130 -79 203.5t-238 83.5q-156 0 -303 -64
q-26 -12 -43 -2.5t-17 37.5v43q0 42 41 57q177 64 340 64zM680 252q73 0 117 9.5t77.5 39t47 83t14.5 140.5q0 47 -49 47h-117q-184 0 -257 -37.5t-81 -127.5q-3 -33 6 -60q21 -59 78 -76.5t164 -17.5z" />
    <glyph glyph-name="Acircumflextilde" unicode="&#x1eaa;" 
d="M700 2001l58 -55q68 -62 139 -62q82 0 132.5 60t60.5 170q3 53 -50 53h-24q-45 0 -51 -49q-5 -38 -17 -70q-18 -37 -57 -37q-26 0 -68 39l-57 55q-68 62 -139 62q-82 0 -131 -60t-60 -170q-6 -53 47 -53h25q47 0 53 49q3 41 17 70q18 37 55 37q25 0 67 -39zM582 1501
l145 197q15 23 35 23t35 -23l145 -197h139l-245 377h-148l-246 -377h140zM641 1454l-553 -1397q-9 -27 1.5 -42t39.5 -15h168q41 0 55 41l49 162q15 41 58 41h583q47 0 56 -45l37 -156q9 -43 55 -43h182q28 0 38.5 15.5t0.5 41.5l-551 1397q-14 39 -57 39h-105
q-43 0 -57 -39zM782 1212l224 -673q9 -26 -2 -42t-39 -16h-428q-28 0 -39 16t-2 42l223 673q7 22 19 30t24.5 0t19.5 -30z" />
    <glyph glyph-name="acircumflextilde" unicode="&#x1eab;" 
d="M524 1610h-24q-53 0 -47 53q11 111 59.5 170t130.5 59q73 0 139 -61l58 -55q42 -39 67 -39q40 0 58 37q11 29 16 69q6 49 51 49h25q52 0 49 -53q-10 -110 -60.5 -169.5t-132.5 -59.5q-73 0 -139 61l-57 55q-42 39 -68 39q-38 0 -55 -36q-13 -26 -16 -70q-6 -49 -54 -49z
M852 1604l246 -377h-140l-145 196q-15 23 -35 23t-35 -23l-145 -196h-139l246 377h147zM739 1147q244 0 364 -125.5t120 -382.5v-590q0 -49 -49 -49h-84q-52 0 -52 49v23q0 34 -15 39.5t-40 -19.5q-121 -121 -332 -121q-170 0 -272.5 97t-102.5 258q0 189 127 285t377 96
h209q49 0 49 18q0 130 -79 203.5t-238 83.5q-156 0 -303 -64q-26 -12 -43 -2.5t-17 37.5v43q0 42 41 57q177 64 340 64zM680 252q73 0 117 9.5t77.5 39t47 83t14.5 140.5q0 47 -49 47h-117q-184 0 -257 -37.5t-81 -127.5q-3 -33 6 -60q21 -59 78 -76.5t164 -17.5z" />
    <glyph glyph-name="Acircumflexdotbelow" unicode="&#x1eac;" 
d="M582 1501l145 197q15 23 35 23t35 -23l145 -197h139l-245 377h-148l-246 -377h140zM641 1454l-553 -1397q-9 -27 1.5 -42t39.5 -15h168q41 0 55 41l49 162q15 41 58 41h583q47 0 56 -45l37 -156q9 -43 55 -43h182q28 0 38.5 15.5t0.5 41.5l-551 1397q-14 39 -57 39h-105
q-43 0 -57 -39zM782 1212l224 -673q9 -26 -2 -42t-39 -16h-428q-28 0 -39 16t-2 42l223 673q7 22 19 30t24.5 0t19.5 -30zM678 -240v-120q0 -52 51 -52h105q51 0 51 52v120q0 50 -51 50h-105q-51 0 -51 -50z" />
    <glyph glyph-name="acircumflexdotbelow" unicode="&#x1ead;" 
d="M598 1227h-139l246 377h147l246 -377h-140l-145 196q-15 23 -35 23t-35 -23zM739 1147q244 0 364 -125.5t120 -382.5v-590q0 -49 -49 -49h-84q-52 0 -52 49v23q0 34 -15 39.5t-40 -19.5q-121 -121 -332 -121q-170 0 -272.5 97t-102.5 258q0 189 127 285t377 96h209
q49 0 49 18q0 130 -79 203.5t-238 83.5q-156 0 -303 -64q-26 -12 -43 -2.5t-17 37.5v43q0 42 41 57q177 64 340 64zM680 252q73 0 117 9.5t77.5 39t47 83t14.5 140.5q0 47 -49 47h-117q-184 0 -257 -37.5t-81 -127.5q-3 -33 6 -60q21 -59 78 -76.5t164 -17.5zM637 -78h104
q52 0 52 -49v-121q0 -51 -52 -51h-104q-51 0 -51 51v121q0 49 51 49z" />
    <glyph glyph-name="Abreveacute" unicode="&#x1eae;" 
d="M969 2292l-242 -328q-20 -25 -11 -42t40 -17h57q40 0 61 26l287 330q21 23 12.5 42t-40.5 19h-103q-37 0 -61 -30zM522 1827h-20q-25 0 -38 -14.5t-7 -38.5q41 -234 305 -234t307 234q4 25 -8.5 39t-38.5 14h-21q-40 0 -55 -43q-40 -107 -184 -107t-184 107
q-15 43 -56 43zM641 1454l-553 -1397q-9 -27 1.5 -42t39.5 -15h168q41 0 55 41l49 162q15 41 58 41h583q47 0 56 -45l37 -156q9 -43 55 -43h182q28 0 38.5 15.5t0.5 41.5l-551 1397q-14 39 -57 39h-105q-43 0 -57 -39zM782 1212l224 -673q9 -26 -2 -42t-39 -16h-428
q-28 0 -39 16t-2 42l223 673q7 22 19 30t24.5 0t19.5 -30z" />
    <glyph glyph-name="abreveacute" unicode="&#x1eaf;" 
d="M829 1630h-57q-31 0 -40 17.5t11 42.5l242 327q25 31 62 31h102q32 0 40.5 -19t-11.5 -42l-287 -330q-22 -27 -62 -27zM778 1266q-265 0 -305 233q-6 24 7 38.5t38 14.5h21q40 0 55 -43q40 -106 184 -106q145 0 185 106q15 43 55 43h20q26 0 38.5 -14t8.5 -39
q-43 -233 -307 -233zM739 1147q244 0 364 -125.5t120 -382.5v-590q0 -49 -49 -49h-84q-52 0 -52 49v23q0 34 -15 39.5t-40 -19.5q-121 -121 -332 -121q-170 0 -272.5 97t-102.5 258q0 189 127 285t377 96h209q49 0 49 18q0 130 -79 203.5t-238 83.5q-156 0 -303 -64
q-26 -12 -43 -2.5t-17 37.5v43q0 42 41 57q177 64 340 64zM680 252q73 0 117 9.5t77.5 39t47 83t14.5 140.5q0 47 -49 47h-117q-184 0 -257 -37.5t-81 -127.5q-3 -33 6 -60q21 -59 78 -76.5t164 -17.5z" />
    <glyph glyph-name="Abrevegrave" unicode="&#x1eb0;" 
d="M590 2298h-90q-30 0 -40 -17t5 -43l153 -280q18 -35 60 -35h156q32 0 40.5 18t-10.5 44l-213 282q-25 31 -61 31zM522 1827h-20q-25 0 -38 -14.5t-7 -38.5q41 -234 305 -234t307 234q4 25 -8.5 39t-38.5 14h-21q-40 0 -55 -43q-40 -107 -184 -107t-184 107q-15 43 -56 43
zM641 1454l-553 -1397q-9 -27 1.5 -42t39.5 -15h168q41 0 55 41l49 162q15 41 58 41h583q47 0 56 -45l37 -156q9 -43 55 -43h182q28 0 38.5 15.5t0.5 41.5l-551 1397q-14 39 -57 39h-105q-43 0 -57 -39zM782 1212l224 -673q9 -26 -2 -42t-39 -16h-428q-28 0 -39 16t-2 42
l223 673q7 22 19 30t24.5 0t19.5 -30z" />
    <glyph glyph-name="abrevegrave" unicode="&#x1eb1;" 
d="M635 1683l-154 281q-15 26 -5 42.5t40 16.5h90q38 0 62 -30l213 -283q19 -26 10 -43.5t-41 -17.5h-156q-41 0 -59 34zM778 1266q-265 0 -305 233q-6 24 7 38.5t38 14.5h21q40 0 55 -43q40 -106 184 -106q145 0 185 106q15 43 55 43h20q26 0 38.5 -14t8.5 -39
q-43 -233 -307 -233zM739 1147q244 0 364 -125.5t120 -382.5v-590q0 -49 -49 -49h-84q-52 0 -52 49v23q0 34 -15 39.5t-40 -19.5q-121 -121 -332 -121q-170 0 -272.5 97t-102.5 258q0 189 127 285t377 96h209q49 0 49 18q0 130 -79 203.5t-238 83.5q-156 0 -303 -64
q-26 -12 -43 -2.5t-17 37.5v43q0 42 41 57q177 64 340 64zM680 252q73 0 117 9.5t77.5 39t47 83t14.5 140.5q0 47 -49 47h-117q-184 0 -257 -37.5t-81 -127.5q-3 -33 6 -60q21 -59 78 -76.5t164 -17.5z" />
    <glyph glyph-name="Abrevehookabove" unicode="&#x1eb2;" 
d="M649 1946v-43q54 26 92 26q32 0 49 -8.5t17 -19.5q0 -19 -23 -35l-22 -19q-27 -20 -31 -30q-8 -11 -8 -33v-6h57q7 26 13 32q2 1 5 4.5t5 4.5l22 14q43 34 43 63q0 33 -30 54q-33 20 -82 20q-52 0 -107 -24zM522 1827h-20q-25 0 -38 -14.5t-7 -38.5q41 -234 305 -234
t307 234q4 25 -8.5 39t-38.5 14h-21q-40 0 -55 -43q-40 -107 -184 -107t-184 107q-15 43 -56 43zM641 1454l-553 -1397q-9 -27 1.5 -42t39.5 -15h168q41 0 55 41l49 162q15 41 58 41h583q47 0 56 -45l37 -156q9 -43 55 -43h182q28 0 38.5 15.5t0.5 41.5l-551 1397
q-14 39 -57 39h-105q-43 0 -57 -39zM782 1212l224 -673q9 -26 -2 -42t-39 -16h-428q-28 0 -39 16t-2 42l223 673q7 22 19 30t24.5 0t19.5 -30z" />
    <glyph glyph-name="abrevehookabove" unicode="&#x1eb3;" 
d="M791 1630q0 11 -17 20t-49 9q-36 0 -92 -27v43q58 25 106 25q47 0 82 -21q31 -22 31 -53q0 -29 -43 -63l-23 -15q-2 -1 -5 -4t-5 -4q-3 -3 -6 -11t-4 -15l-2 -7h-57v6q0 22 8 33q5 12 30 31l23 18q23 16 23 35zM778 1266q-265 0 -305 233q-6 24 7 38.5t38 14.5h21
q40 0 55 -43q40 -106 184 -106q145 0 185 106q15 43 55 43h20q26 0 38.5 -14t8.5 -39q-43 -233 -307 -233zM739 1147q244 0 364 -125.5t120 -382.5v-590q0 -49 -49 -49h-84q-52 0 -52 49v23q0 34 -15 39.5t-40 -19.5q-121 -121 -332 -121q-170 0 -272.5 97t-102.5 258
q0 189 127 285t377 96h209q49 0 49 18q0 130 -79 203.5t-238 83.5q-156 0 -303 -64q-26 -12 -43 -2.5t-17 37.5v43q0 42 41 57q177 64 340 64zM680 252q73 0 117 9.5t77.5 39t47 83t14.5 140.5q0 47 -49 47h-117q-184 0 -257 -37.5t-81 -127.5q-3 -33 6 -60q21 -59 78 -76.5
t164 -17.5z" />
    <glyph glyph-name="Abrevetilde" unicode="&#x1eb4;" 
d="M700 2001l58 -55q68 -62 139 -62q82 0 132.5 60t60.5 170q3 53 -50 53h-24q-45 0 -51 -49q-5 -38 -17 -70q-18 -37 -57 -37q-26 0 -68 39l-57 55q-68 62 -139 62q-82 0 -131 -60t-60 -170q-6 -53 47 -53h25q47 0 53 49q3 41 17 70q18 37 55 37q25 0 67 -39zM522 1827h-20
q-25 0 -38 -14.5t-7 -38.5q41 -234 305 -234t307 234q4 25 -8.5 39t-38.5 14h-21q-40 0 -55 -43q-40 -107 -184 -107t-184 107q-15 43 -56 43zM641 1454l-553 -1397q-9 -27 1.5 -42t39.5 -15h168q41 0 55 41l49 162q15 41 58 41h583q47 0 56 -45l37 -156q9 -43 55 -43h182
q28 0 38.5 15.5t0.5 41.5l-551 1397q-14 39 -57 39h-105q-43 0 -57 -39zM782 1212l224 -673q9 -26 -2 -42t-39 -16h-428q-28 0 -39 16t-2 42l223 673q7 22 19 30t24.5 0t19.5 -30z" />
    <glyph glyph-name="abrevetilde" unicode="&#x1eb5;" 
d="M524 1610h-24q-53 0 -47 53q11 111 59.5 170t130.5 59q73 0 139 -61l58 -55q42 -39 67 -39q40 0 58 37q11 29 16 69q6 49 51 49h25q52 0 49 -53q-10 -110 -60.5 -169.5t-132.5 -59.5q-73 0 -139 61l-57 55q-42 39 -68 39q-38 0 -55 -36q-13 -26 -16 -70q-6 -49 -54 -49z
M1018 1552h20q26 0 38.5 -14t8.5 -39q-43 -233 -307 -233q-265 0 -305 233q-6 24 7 38.5t38 14.5h21q40 0 55 -43q40 -106 184 -106q145 0 185 106q15 43 55 43zM739 1147q244 0 364 -125.5t120 -382.5v-590q0 -49 -49 -49h-84q-52 0 -52 49v23q0 34 -15 39.5t-40 -19.5
q-121 -121 -332 -121q-170 0 -272.5 97t-102.5 258q0 189 127 285t377 96h209q49 0 49 18q0 130 -79 203.5t-238 83.5q-156 0 -303 -64q-26 -12 -43 -2.5t-17 37.5v43q0 42 41 57q177 64 340 64zM680 252q73 0 117 9.5t77.5 39t47 83t14.5 140.5q0 47 -49 47h-117
q-184 0 -257 -37.5t-81 -127.5q-3 -33 6 -60q21 -59 78 -76.5t164 -17.5z" />
    <glyph glyph-name="Abrevedotbelow" unicode="&#x1eb6;" 
d="M522 1827h-20q-25 0 -38 -14.5t-7 -38.5q41 -234 305 -234t307 234q4 25 -8.5 39t-38.5 14h-21q-40 0 -55 -43q-40 -107 -184 -107t-184 107q-15 43 -56 43zM641 1454l-553 -1397q-9 -27 1.5 -42t39.5 -15h168q41 0 55 41l49 162q15 41 58 41h583q47 0 56 -45l37 -156
q9 -43 55 -43h182q28 0 38.5 15.5t0.5 41.5l-551 1397q-14 39 -57 39h-105q-43 0 -57 -39zM782 1212l224 -673q9 -26 -2 -42t-39 -16h-428q-28 0 -39 16t-2 42l223 673q7 22 19 30t24.5 0t19.5 -30zM678 -240v-120q0 -52 51 -52h105q51 0 51 52v120q0 50 -51 50h-105
q-51 0 -51 -50z" />
    <glyph glyph-name="abrevedotbelow" unicode="&#x1eb7;" 
d="M778 1266q-265 0 -305 233q-6 24 7 38.5t38 14.5h21q40 0 55 -43q40 -106 184 -106q145 0 185 106q15 43 55 43h20q26 0 38.5 -14t8.5 -39q-43 -233 -307 -233zM739 1147q244 0 364 -125.5t120 -382.5v-590q0 -49 -49 -49h-84q-52 0 -52 49v23q0 34 -15 39.5t-40 -19.5
q-121 -121 -332 -121q-170 0 -272.5 97t-102.5 258q0 189 127 285t377 96h209q49 0 49 18q0 130 -79 203.5t-238 83.5q-156 0 -303 -64q-26 -12 -43 -2.5t-17 37.5v43q0 42 41 57q177 64 340 64zM680 252q73 0 117 9.5t77.5 39t47 83t14.5 140.5q0 47 -49 47h-117
q-184 0 -257 -37.5t-81 -127.5q-3 -33 6 -60q21 -59 78 -76.5t164 -17.5zM610 -78h105q51 0 51 -49v-121q0 -51 -51 -51h-105q-51 0 -51 51v121q0 49 51 49z" />
    <glyph glyph-name="Edotbelow" unicode="&#x1eb8;" 
d="M268 1444v-1395q0 -49 51 -49h863q49 0 49 49v211q0 49 -49 49h-662q-49 0 -49 51v302q0 49 49 49h613q49 0 49 51v69q0 50 -49 50h-613q-49 0 -49 51v342q0 49 49 49h643q49 0 49 49v72q0 49 -49 49h-844q-51 0 -51 -49zM672 -86v-121q0 -51 51 -51h104q52 0 52 51v121
q0 49 -52 49h-104q-51 0 -51 -49z" />
    <glyph glyph-name="edotbelow" unicode="&#x1eb9;" 
d="M1264 635v18q-19 242 -136.5 363.5t-341.5 130.5q-249 0 -394 -169.5t-156 -451.5q0 -262 151 -404t422 -151q174 0 377 62q40 12 37 57l-2 150q0 53 -58 36q-53 -15 -118.5 -22.5t-105.5 -8.5t-124 -1q-56 3 -92.5 6.5t-79 11.5t-69.5 20.5t-55 33.5t-44.5 50
t-28.5 70.5t-16 95.5q-3 52 49 52h735q50 0 50 51zM1047 735l-545 -2q-27 0 -40 14.5t-7 38.5q24 100 115.5 182.5t215.5 82.5q56 0 107 -24.5t88.5 -64.5t64.5 -83t44 -88q9 -24 -3.5 -40t-39.5 -16zM625 -205v-121q0 -51 51 -51h104q51 0 51 51v121q0 49 -51 49h-104
q-51 0 -51 -49z" />
    <glyph glyph-name="Ehookabove" unicode="&#x1eba;" 
d="M659 1741v-43q54 26 93 26q32 0 48.5 -8.5t16.5 -19.5q0 -19 -22 -35l-23 -19q-27 -20 -31 -30q-8 -11 -8 -33v-6h58q6 27 12 33q2 1 5 4t5 4l23 14q43 34 43 64q0 31 -31 53q-33 20 -82 20q-52 0 -107 -24zM268 1444v-1395q0 -49 51 -49h863q49 0 49 49v211q0 49 -49 49
h-662q-49 0 -49 51v302q0 49 49 49h613q49 0 49 51v69q0 50 -49 50h-613q-49 0 -49 51v342q0 49 49 49h643q49 0 49 49v72q0 49 -49 49h-844q-51 0 -51 -49z" />
    <glyph glyph-name="ehookabove" unicode="&#x1ebb;" 
d="M670 1360v-43q54 26 92 26q32 0 48.5 -8.5t16.5 -19.5q0 -19 -22 -35l-23 -18q-25 -19 -30 -31q-9 -12 -9 -33v-6h58q6 27 12 33q2 1 5 4t5 4l23 14q43 34 43 64q0 31 -31 53q-33 20 -82 20q-50 0 -106 -24zM1264 635v18q-19 242 -136.5 363.5t-341.5 130.5
q-249 0 -394 -169.5t-156 -451.5q0 -262 151 -404t422 -151q174 0 377 62q40 12 37 57l-2 150q0 53 -58 36q-53 -15 -118.5 -22.5t-105.5 -8.5t-124 -1q-56 3 -92.5 6.5t-79 11.5t-69.5 20.5t-55 33.5t-44.5 50t-28.5 70.5t-16 95.5q-3 52 49 52h735q50 0 50 51zM1047 735
l-545 -2q-27 0 -40 14.5t-7 38.5q24 100 115.5 182.5t215.5 82.5q56 0 107 -24.5t88.5 -64.5t64.5 -83t44 -88q9 -24 -3.5 -40t-39.5 -16z" />
    <glyph glyph-name="Etilde" unicode="&#x1ebc;" 
d="M657 2050l58 -55q68 -62 139 -62q82 0 132.5 60t60.5 170q3 53 -50 53h-24q-45 0 -51 -49q-5 -38 -17 -70q-18 -37 -57 -37q-26 0 -68 39l-57 55q-68 62 -139 62q-82 0 -131 -59.5t-60 -169.5q-6 -54 47 -54h25q47 0 53 49q3 41 17 70q18 37 55 37q25 0 67 -39zM268 1444
v-1395q0 -49 51 -49h863q49 0 49 49v211q0 49 -49 49h-662q-49 0 -49 51v302q0 49 49 49h613q49 0 49 51v69q0 50 -49 50h-613q-49 0 -49 51v342q0 49 49 49h643q49 0 49 49v72q0 49 -49 49h-844q-51 0 -51 -49z" />
    <glyph glyph-name="etilde" unicode="&#x1ebd;" 
d="M690 1726l58 -55q66 -61 139 -61q82 0 132 59.5t60 169.5q3 53 -49 53h-24q-46 0 -52 -49q-5 -40 -16 -69q-18 -37 -57 -37q-26 0 -68 39l-57 55q-66 61 -140 61q-82 0 -130.5 -59t-59.5 -170q-6 -53 47 -53h25q47 0 53 49q3 44 16 70q17 36 56 36q25 0 67 -39zM1264 635
v18q-19 242 -136.5 363.5t-341.5 130.5q-249 0 -394 -169.5t-156 -451.5q0 -262 151 -404t422 -151q174 0 377 62q40 12 37 57l-2 150q0 53 -58 36q-53 -15 -118.5 -22.5t-105.5 -8.5t-124 -1q-56 3 -92.5 6.5t-79 11.5t-69.5 20.5t-55 33.5t-44.5 50t-28.5 70.5t-16 95.5
q-3 52 49 52h735q50 0 50 51zM1047 735l-545 -2q-27 0 -40 14.5t-7 38.5q24 100 115.5 182.5t215.5 82.5q56 0 107 -24.5t88.5 -64.5t64.5 -83t44 -88q9 -24 -3.5 -40t-39.5 -16z" />
    <glyph glyph-name="Ecircumflexacute" unicode="&#x1ebe;" 
d="M926 2341l-242 -328q-20 -25 -11 -42t40 -17h57q40 0 61 26l287 330q21 23 12.5 42.5t-40.5 19.5h-103q-36 0 -61 -31zM539 1550l145 197q15 23 35 23t35 -23l145 -197h139l-245 377h-148l-246 -377h140zM268 1444v-1395q0 -49 51 -49h863q49 0 49 49v211q0 49 -49 49
h-662q-49 0 -49 51v302q0 49 49 49h613q49 0 49 51v69q0 50 -49 50h-613q-49 0 -49 51v342q0 49 49 49h643q49 0 49 49v72q0 49 -49 49h-844q-51 0 -51 -49z" />
    <glyph glyph-name="ecircumflexacute" unicode="&#x1ebf;" 
d="M958 2017l-241 -327q-20 -25 -11.5 -42.5t39.5 -17.5h58q39 0 61 27l287 330q20 23 11.5 42t-40.5 19h-102q-37 0 -62 -31zM571 1227l146 196q15 23 34.5 23t34.5 -23l146 -196h139l-246 377h-147l-246 -377h139zM1264 635v18q-19 242 -136.5 363.5t-341.5 130.5
q-249 0 -394 -169.5t-156 -451.5q0 -262 151 -404t422 -151q174 0 377 62q40 12 37 57l-2 150q0 53 -58 36q-53 -15 -118.5 -22.5t-105.5 -8.5t-124 -1q-56 3 -92.5 6.5t-79 11.5t-69.5 20.5t-55 33.5t-44.5 50t-28.5 70.5t-16 95.5q-3 52 49 52h735q50 0 50 51zM1047 735
l-545 -2q-27 0 -40 14.5t-7 38.5q24 100 115.5 182.5t215.5 82.5q56 0 107 -24.5t88.5 -64.5t64.5 -83t44 -88q9 -24 -3.5 -40t-39.5 -16z" />
    <glyph glyph-name="Ecircumflexgrave" unicode="&#x1ec0;" 
d="M547 2347h-90q-30 0 -40 -16.5t5 -42.5l153 -281q18 -35 60 -35h156q32 0 40.5 18t-10.5 44l-213 282q-25 31 -61 31zM539 1550l145 197q15 23 35 23t35 -23l145 -197h139l-245 377h-148l-246 -377h140zM268 1444v-1395q0 -49 51 -49h863q49 0 49 49v211q0 49 -49 49
h-662q-49 0 -49 51v302q0 49 49 49h613q49 0 49 51v69q0 50 -49 50h-613q-49 0 -49 51v342q0 49 49 49h643q49 0 49 49v72q0 49 -49 49h-844q-51 0 -51 -49z" />
    <glyph glyph-name="ecircumflexgrave" unicode="&#x1ec1;" 
d="M580 2023h-91q-29 0 -39 -16.5t5 -42.5l153 -281q18 -34 60 -34h155q32 0 41 17.5t-10 43.5l-213 283q-24 30 -61 30zM571 1227l146 196q15 23 34.5 23t34.5 -23l146 -196h139l-246 377h-147l-246 -377h139zM1264 635v18q-19 242 -136.5 363.5t-341.5 130.5
q-249 0 -394 -169.5t-156 -451.5q0 -262 151 -404t422 -151q174 0 377 62q40 12 37 57l-2 150q0 53 -58 36q-53 -15 -118.5 -22.5t-105.5 -8.5t-124 -1q-56 3 -92.5 6.5t-79 11.5t-69.5 20.5t-55 33.5t-44.5 50t-28.5 70.5t-16 95.5q-3 52 49 52h735q50 0 50 51zM1047 735
l-545 -2q-27 0 -40 14.5t-7 38.5q24 100 115.5 182.5t215.5 82.5q56 0 107 -24.5t88.5 -64.5t64.5 -83t44 -88q9 -24 -3.5 -40t-39.5 -16z" />
    <glyph glyph-name="Ecircumflexhookabove" unicode="&#x1ec2;" 
d="M537 1792l145 197q15 23 35 23t35 -23l145 -197h139l-245 377h-148l-246 -377h140zM610 1747v-43q56 27 92 27q32 0 49 -9t17 -20q0 -19 -23 -35l-22 -18q-27 -20 -31 -31q-8 -11 -8 -33v-6h57q7 27 13 33q2 1 5 4t5 4l22 14q43 34 43 64q0 32 -30 53q-35 21 -82 21
q-49 0 -107 -25zM268 1444v-1395q0 -49 51 -49h863q49 0 49 49v211q0 49 -49 49h-662q-49 0 -49 51v302q0 49 49 49h613q49 0 49 51v69q0 50 -49 50h-613q-49 0 -49 51v342q0 49 49 49h643q49 0 49 49v72q0 49 -49 49h-844q-51 0 -51 -49z" />
    <glyph glyph-name="ecircumflexhookabove" unicode="&#x1ec3;" 
d="M569 1393l146 196q15 23 34.5 23t34.5 -23l146 -196h139l-246 376h-147l-246 -376h139zM645 1395v-43q54 26 92 26q32 0 49 -8.5t17 -19.5q0 -19 -23 -35l-22 -19q-27 -20 -31 -30q-8 -11 -8 -33v-6h57q6 27 12 33q2 1 5.5 4t5.5 4l22 14q43 34 43 64q0 32 -30 53
q-33 20 -82 20q-51 0 -107 -24zM1264 635v18q-19 242 -136.5 363.5t-341.5 130.5q-249 0 -394 -169.5t-156 -451.5q0 -262 151 -404t422 -151q174 0 377 62q40 12 37 57l-2 150q0 53 -58 36q-53 -15 -118.5 -22.5t-105.5 -8.5t-124 -1q-56 3 -92.5 6.5t-79 11.5t-69.5 20.5
t-55 33.5t-44.5 50t-28.5 70.5t-16 95.5q-3 52 49 52h735q50 0 50 51zM1047 735l-545 -2q-27 0 -40 14.5t-7 38.5q24 100 115.5 182.5t215.5 82.5q56 0 107 -24.5t88.5 -64.5t64.5 -83t44 -88q9 -24 -3.5 -40t-39.5 -16z" />
    <glyph glyph-name="Ecircumflextilde" unicode="&#x1ec4;" 
d="M657 2050l58 -55q68 -62 139 -62q82 0 132.5 60t60.5 170q3 53 -50 53h-24q-45 0 -51 -49q-5 -38 -17 -70q-18 -37 -57 -37q-26 0 -68 39l-57 55q-68 62 -139 62q-82 0 -131 -59.5t-60 -169.5q-6 -54 47 -54h25q47 0 53 49q3 41 17 70q18 37 55 37q25 0 67 -39zM539 1550
l145 197q15 23 35 23t35 -23l145 -197h139l-245 377h-148l-246 -377h140zM268 1444v-1395q0 -49 51 -49h863q49 0 49 49v211q0 49 -49 49h-662q-49 0 -49 51v302q0 49 49 49h613q49 0 49 51v69q0 50 -49 50h-613q-49 0 -49 51v342q0 49 49 49h643q49 0 49 49v72q0 49 -49 49
h-844q-51 0 -51 -49z" />
    <glyph glyph-name="ecircumflextilde" unicode="&#x1ec5;" 
d="M690 1726l58 -55q66 -61 139 -61q82 0 132 59.5t60 169.5q3 53 -49 53h-24q-46 0 -52 -49q-5 -40 -16 -69q-18 -37 -57 -37q-26 0 -68 39l-57 55q-66 61 -140 61q-82 0 -130.5 -59t-59.5 -170q-6 -53 47 -53h25q47 0 53 49q3 44 16 70q17 36 56 36q25 0 67 -39zM571 1227
l146 196q15 23 34.5 23t34.5 -23l146 -196h139l-246 377h-147l-246 -377h139zM1264 635v18q-19 242 -136.5 363.5t-341.5 130.5q-249 0 -394 -169.5t-156 -451.5q0 -262 151 -404t422 -151q174 0 377 62q40 12 37 57l-2 150q0 53 -58 36q-53 -15 -118.5 -22.5t-105.5 -8.5
t-124 -1q-56 3 -92.5 6.5t-79 11.5t-69.5 20.5t-55 33.5t-44.5 50t-28.5 70.5t-16 95.5q-3 52 49 52h735q50 0 50 51zM1047 735l-545 -2q-27 0 -40 14.5t-7 38.5q24 100 115.5 182.5t215.5 82.5q56 0 107 -24.5t88.5 -64.5t64.5 -83t44 -88q9 -24 -3.5 -40t-39.5 -16z" />
    <glyph glyph-name="Ecircumflexdotbelow" unicode="&#x1ec6;" 
d="M539 1550l145 197q15 23 35 23t35 -23l145 -197h139l-245 377h-148l-246 -377h140zM268 1444v-1395q0 -49 51 -49h863q49 0 49 49v211q0 49 -49 49h-662q-49 0 -49 51v302q0 49 49 49h613q49 0 49 51v69q0 50 -49 50h-613q-49 0 -49 51v342q0 49 49 49h643q49 0 49 49v72
q0 49 -49 49h-844q-51 0 -51 -49zM672 -86v-121q0 -51 51 -51h104q52 0 52 51v121q0 49 -52 49h-104q-51 0 -51 -49z" />
    <glyph glyph-name="ecircumflexdotbelow" unicode="&#x1ec7;" 
d="M569 1227l146 196q15 23 34.5 23t34.5 -23l146 -196h139l-246 377h-147l-246 -377h139zM1264 635v18q-19 242 -136.5 363.5t-341.5 130.5q-249 0 -394 -169.5t-156 -451.5q0 -262 151 -404t422 -151q174 0 377 62q40 12 37 57l-2 150q0 53 -58 36q-53 -15 -118.5 -22.5
t-105.5 -8.5t-124 -1q-56 3 -92.5 6.5t-79 11.5t-69.5 20.5t-55 33.5t-44.5 50t-28.5 70.5t-16 95.5q-3 52 49 52h735q50 0 50 51zM1047 735l-545 -2q-27 0 -40 14.5t-7 38.5q24 100 115.5 182.5t215.5 82.5q56 0 107 -24.5t88.5 -64.5t64.5 -83t44 -88q9 -24 -3.5 -40
t-39.5 -16zM625 -244v-121q0 -51 51 -51h104q51 0 51 51v121q0 49 -51 49h-104q-51 0 -51 -49z" />
    <glyph glyph-name="Ihookabove" unicode="&#x1ec8;" 
d="M608 1741v-43q54 26 92 26q32 0 49 -8.5t17 -19.5q0 -19 -23 -35l-22 -19q-27 -20 -31 -30q-8 -11 -8 -33v-6h57q7 27 13 33q2 1 5 4t5 4l22 14q43 34 43 64q0 32 -30 53q-33 20 -82 20q-51 0 -107 -24zM633 51q-3 -51 49 -51h137q52 0 49 51q-10 209 -15 422t-7.5 547
t-3.5 424q0 49 -51 49h-72q-48 0 -51 -49q-1 -85 -5 -335.5t-6.5 -374t-8.5 -321.5t-15 -362z" />
    <glyph glyph-name="ihookabove" unicode="&#x1ec9;" 
d="M604 1362v-43q56 27 92 27q32 0 49 -9t17 -20q0 -19 -23 -35l-22 -18q-27 -20 -31 -31q-8 -11 -8 -33v-6h57q7 27 13 33q2 1 5 4t5 4l22 14q43 34 43 64q0 32 -30 53q-33 20 -82 20q-51 0 -107 -24zM637 51q-3 -51 49 -51h129q53 0 47 53q-50 525 -37 1016q3 51 -49 51
h-61q-51 0 -51 -45q7 -542 -27 -1024z" />
    <glyph glyph-name="Idotbelow" unicode="&#x1eca;" 
d="M633 51q-3 -51 49 -51h137q52 0 49 51q-10 209 -15 422t-7.5 547t-3.5 424q0 49 -51 49h-72q-48 0 -51 -49q-1 -85 -5 -335.5t-6.5 -374t-8.5 -321.5t-15 -362zM627 -127v-121q0 -51 51 -51h104q52 0 52 51v121q0 49 -52 49h-104q-51 0 -51 -49z" />
    <glyph glyph-name="idotbelow" unicode="&#x1ecb;" 
d="M651 1518l-6 -134q0 -51 49 -51h103q52 0 49 51l-6 134q0 49 -52 49h-86q-48 0 -51 -49zM551 41q-6 -25 7.5 -38t41.5 -13h272q27 0 42.5 14t5.5 39q-46 114 -63 290t-9 357.5t35 368.5q4 24 -9.5 37.5t-39.5 13.5h-168q-26 0 -42.5 -13t-9.5 -32q27 -78 43.5 -145.5
t25.5 -122t7 -115t-6.5 -104.5t-20.5 -113t-29.5 -118.5t-39 -142t-43.5 -163.5zM625 -127v-121q0 -51 51 -51h104q51 0 51 51v121q0 49 -51 49h-104q-51 0 -51 -49z" />
    <glyph glyph-name="Odotbelow" unicode="&#x1ecc;" 
d="M752 1520q-288 0 -465.5 -212t-177.5 -563q0 -352 177.5 -563t465.5 -211q286 0 462.5 211.5t176.5 562.5t-176.5 563t-462.5 212zM752 1356q191 0 308.5 -165.5t117.5 -445.5q0 -91 -20.5 -159.5t-56.5 -112t-90.5 -70.5t-117 -38t-141.5 -11q-101 0 -175.5 18t-134 61
t-90 121t-30.5 191q0 280 118.5 445.5t311.5 165.5zM631 -127v-121q0 -51 51 -51h104q52 0 52 51v121q0 49 -52 49h-104q-51 0 -51 -49z" />
    <glyph glyph-name="odotbelow" unicode="&#x1ecd;" 
d="M750 1147q-242 0 -378 -155.5t-136 -432.5q0 -275 136.5 -431.5t377.5 -156.5q240 0 377 156.5t137 431.5q0 276 -137 432t-377 156zM750 1012q147 0 233 -113.5t86 -306.5q0 -95 -21 -156.5t-66 -93t-98 -42.5t-134 -11q-65 0 -110.5 6.5t-87.5 25t-67 51.5t-40 88
t-15 132q0 195 86 307.5t234 112.5zM629 -127v-121q0 -51 51 -51h104q52 0 52 51v121q0 49 -52 49h-104q-51 0 -51 -49z" />
    <glyph glyph-name="Ohookabove" unicode="&#x1ece;" 
d="M662 1749v-43q56 27 92 27q32 0 48.5 -9t16.5 -20q0 -19 -22 -35l-23 -18q-27 -20 -31 -31q-8 -11 -8 -33v-6h58q6 27 12 33q2 1 5 4t5 4l23 14q43 34 43 64q0 31 -31 53q-35 21 -82 21q-48 0 -106 -25zM752 1520q-288 0 -465.5 -212t-177.5 -563q0 -352 177.5 -563
t465.5 -211q286 0 462.5 211.5t176.5 562.5t-176.5 563t-462.5 212zM752 1356q191 0 308.5 -165.5t117.5 -445.5q0 -91 -20.5 -159.5t-56.5 -112t-90.5 -70.5t-117 -38t-141.5 -11q-101 0 -175.5 18t-134 61t-90 121t-30.5 191q0 280 118.5 445.5t311.5 165.5z" />
    <glyph glyph-name="ohookabove" unicode="&#x1ecf;" 
d="M1006 1382v-43q56 27 92 27q32 0 48.5 -9t16.5 -20q0 -18 -22 -34l-23 -19q-27 -20 -31 -31q-8 -11 -8 -32v-7h58q6 27 12 33q2 1 5 4t5 4l23 15q43 34 43 63q0 31 -31 53q-35 21 -82 21q-48 0 -106 -25zM750 1147q-242 0 -378 -155.5t-136 -432.5q0 -275 136.5 -431.5
t377.5 -156.5q240 0 377 156.5t137 431.5q0 276 -137 432t-377 156zM750 1012q147 0 233 -113.5t86 -306.5q0 -95 -21 -156.5t-66 -93t-98 -42.5t-134 -11q-65 0 -110.5 6.5t-87.5 25t-67 51.5t-40 88t-15 132q0 195 86 307.5t234 112.5z" />
    <glyph glyph-name="Ocircumflexacute" unicode="&#x1ed0;" 
d="M956 2390l-241 -328q-20 -25 -11.5 -42t39.5 -17h58q39 0 61 27l287 329q21 23 12 42.5t-41 19.5h-102q-37 0 -62 -31zM569 1599l146 197q15 23 34.5 23t34.5 -23l146 -197h139l-246 377h-147l-246 -377h139zM752 1520q-288 0 -465.5 -212t-177.5 -563q0 -352 177.5 -563
t465.5 -211q286 0 462.5 211.5t176.5 562.5t-176.5 563t-462.5 212zM752 1356q191 0 308.5 -165.5t117.5 -445.5q0 -91 -20.5 -159.5t-56.5 -112t-90.5 -70.5t-117 -38t-141.5 -11q-101 0 -175.5 18t-134 61t-90 121t-30.5 191q0 280 118.5 445.5t311.5 165.5z" />
    </font>
</defs>
</svg>
